{
	"asset":{
		"generator":"Khronos glTF Blender I/O v5.0.21",
		"version":"2.0"
	},
	"extensionsUsed":[
		"KHR_materials_specular"
	],
	"scene":0,
	"scenes":[
		{
			"name":"Scene",
			"nodes":[
				0
			]
		}
	],
	"nodes":[
		{
			"mesh":0,
			"name":"mesh1",
			"rotation":[
				0.033772680908441544,
				-0.046933338046073914,
				0.057680658996105194,
				0.9966592788696289
			]
		}
	],
	"materials":[
		{
			"doubleSided":true,
			"extensions":{
				"KHR_materials_specular":{
					"specularFactor":0.4000000059604645
				}
			},
			"name":"acmat_1.001",
			"pbrMetallicRoughness":{
				"baseColorTexture":{
					"index":0
				},
				"metallicFactor":0,
				"roughnessFactor":0.6422290802001953
			}
		}
	],
	"meshes":[
		{
			"name":"mesh1.001",
			"primitives":[
				{
					"attributes":{
						"POSITION":0,
						"NORMAL":1,
						"TEXCOORD_0":2
					},
					"indices":3,
					"material":0
				}
			]
		}
	],
	"textures":[
		{
			"sampler":0,
			"source":0
		}
	],
	"images":[
		{
			"mimeType":"image/png",
			"name":"v_portalgun",
			"uri":"v_portalgun.png"
		}
	],
	"accessors":[
		{
			"bufferView":0,
			"componentType":5126,
			"count":43949,
			"max":[
				0.19135530292987823,
				0.19425265491008759,
				0.27200278639793396
			],
			"min":[
				-0.19343160092830658,
				-0.1298299878835678,
				-0.541070818901062
			],
			"type":"VEC3"
		},
		{
			"bufferView":1,
			"componentType":5126,
			"count":43949,
			"type":"VEC3"
		},
		{
			"bufferView":2,
			"componentType":5126,
			"count":43949,
			"type":"VEC2"
		},
		{
			"bufferView":3,
			"componentType":5123,
			"count":111282,
			"type":"SCALAR"
		}
	],
	"bufferViews":[
		{
			"buffer":0,
			"byteLength":527388,
			"byteOffset":0,
			"target":34962
		},
		{
			"buffer":0,
			"byteLength":527388,
			"byteOffset":527388,
			"target":34962
		},
		{
			"buffer":0,
			"byteLength":351592,
			"byteOffset":1054776,
			"target":34962
		},
		{
			"buffer":0,
			"byteLength":222564,
			"byteOffset":1406368,
			"target":34963
		}
	],
	"samplers":[
		{
			"magFilter":9729,
			"minFilter":9987
		}
	],
	"buffers":[
		{
			"byteLength":1628932,
			"uri":"PortalGunShell.bin"
		}
	]
}
