{
	"asset":{
		"generator":"Khronos glTF Blender I/O v5.0.21",
		"version":"2.0"
	},
	"scene":0,
	"scenes":[
		{
			"name":"Scene",
			"nodes":[
				15
			]
		}
	],
	"nodes":[
		{
			"mesh":0,
			"name":"mesh_1297969-0_0_0_transparents"
		},
		{
			"mesh":1,
			"name":"mesh_1297969-0_0_1_redacted16"
		},
		{
			"children":[
				0,
				1
			],
			"name":"pattern_110409428_0_hud17"
		},
		{
			"mesh":2,
			"name":"mesh_3041130909-0_0_0_gbuffer"
		},
		{
			"mesh":3,
			"name":"mesh_3041130909-0_0_1_transparents"
		},
		{
			"mesh":4,
			"name":"mesh_3041130909-0_0_2_transparents"
		},
		{
			"children":[
				3,
				4,
				5
			],
			"name":"pattern_1767692216_0_scope"
		},
		{
			"mesh":5,
			"name":"mesh_4159469989-0_0_0_gbuffer"
		},
		{
			"children":[
				7
			],
			"name":"pattern_2760903424_0_barrel"
		},
		{
			"mesh":6,
			"name":"mesh_3874554519-0_0_0_gbuffer"
		},
		{
			"mesh":7,
			"name":"mesh_3874554519-0_0_1_gbuffer"
		},
		{
			"mesh":8,
			"name":"mesh_3874554519-0_0_2_gbuffer"
		},
		{
			"mesh":9,
			"name":"mesh_3874554519-0_0_3_gbuffer"
		},
		{
			"children":[
				9,
				10,
				11,
				12
			],
			"name":"pattern_3192649626_0_frame"
		},
		{
			"children":[
				2,
				6,
				8,
				13
			],
			"name":"item_3_427899681",
			"scale":[
				150,
				150,
				150
			]
		},
		{
			"children":[
				14
			],
			"name":"content"
		}
	],
	"materials":[
		{
			"alphaMode":"BLEND",
			"doubleSided":true,
			"name":"mat_427899681_2",
			"normalTexture":{
				"index":0
			},
			"pbrMetallicRoughness":{
				"baseColorTexture":{
					"index":1
				},
				"metallicFactor":0
			}
		},
		{
			"alphaMode":"BLEND",
			"doubleSided":true,
			"name":"mat_427899681_2.001",
			"normalTexture":{
				"index":2
			},
			"pbrMetallicRoughness":{
				"baseColorTexture":{
					"index":3
				},
				"metallicFactor":0
			}
		},
		{
			"alphaMode":"BLEND",
			"doubleSided":true,
			"name":"mat_427899681_1.001",
			"normalTexture":{
				"index":4
			},
			"pbrMetallicRoughness":{
				"baseColorTexture":{
					"index":5
				},
				"metallicFactor":0
			}
		},
		{
			"alphaMode":"BLEND",
			"doubleSided":true,
			"name":"mat_427899681_1.002",
			"normalTexture":{
				"index":6
			},
			"pbrMetallicRoughness":{
				"baseColorTexture":{
					"index":7
				},
				"metallicFactor":0
			}
		},
		{
			"alphaMode":"BLEND",
			"doubleSided":true,
			"name":"mat_427899681_1.003",
			"normalTexture":{
				"index":8
			},
			"pbrMetallicRoughness":{
				"baseColorTexture":{
					"index":9
				},
				"metallicFactor":0
			}
		},
		{
			"alphaMode":"BLEND",
			"doubleSided":true,
			"name":"mat_427899681_1",
			"normalTexture":{
				"index":10
			},
			"pbrMetallicRoughness":{
				"baseColorTexture":{
					"index":11
				},
				"metallicFactor":0
			}
		},
		{
			"alphaMode":"BLEND",
			"doubleSided":true,
			"name":"mat_427899681_0",
			"normalTexture":{
				"index":12
			},
			"pbrMetallicRoughness":{
				"baseColorTexture":{
					"index":13
				},
				"metallicFactor":0
			}
		},
		{
			"alphaMode":"BLEND",
			"doubleSided":true,
			"name":"mat_427899681_0.001",
			"normalTexture":{
				"index":14
			},
			"pbrMetallicRoughness":{
				"baseColorTexture":{
					"index":15
				},
				"metallicFactor":0
			}
		},
		{
			"alphaMode":"BLEND",
			"doubleSided":true,
			"name":"mat_427899681_0.002",
			"normalTexture":{
				"index":16
			},
			"pbrMetallicRoughness":{
				"baseColorTexture":{
					"index":17
				},
				"metallicFactor":0
			}
		},
		{
			"alphaMode":"BLEND",
			"doubleSided":true,
			"name":"mat_427899681_0.003",
			"normalTexture":{
				"index":18
			},
			"pbrMetallicRoughness":{
				"baseColorTexture":{
					"index":19
				},
				"metallicFactor":0
			}
		}
	],
	"meshes":[
		{
			"name":"Mesh_5",
			"primitives":[
				{
					"attributes":{
						"POSITION":0,
						"NORMAL":1,
						"TEXCOORD_0":2,
						"COLOR_0":3
					},
					"indices":4,
					"material":0
				}
			]
		},
		{
			"name":"Mesh_6",
			"primitives":[
				{
					"attributes":{
						"POSITION":5,
						"NORMAL":6,
						"TEXCOORD_0":7,
						"COLOR_0":8
					},
					"indices":9,
					"material":1
				}
			]
		},
		{
			"name":"Mesh_7",
			"primitives":[
				{
					"attributes":{
						"POSITION":10,
						"NORMAL":11,
						"TEXCOORD_0":12,
						"COLOR_0":13
					},
					"indices":14,
					"material":2
				}
			]
		},
		{
			"name":"Mesh_8",
			"primitives":[
				{
					"attributes":{
						"POSITION":15,
						"NORMAL":16,
						"TEXCOORD_0":17,
						"COLOR_0":18
					},
					"indices":19,
					"material":3
				}
			]
		},
		{
			"name":"Mesh_9",
			"primitives":[
				{
					"attributes":{
						"POSITION":20,
						"NORMAL":21,
						"TEXCOORD_0":22,
						"COLOR_0":23
					},
					"indices":9,
					"material":4
				}
			]
		},
		{
			"name":"Mesh_4",
			"primitives":[
				{
					"attributes":{
						"POSITION":24,
						"NORMAL":25,
						"TEXCOORD_0":26,
						"COLOR_0":27
					},
					"indices":28,
					"material":5
				}
			]
		},
		{
			"name":"Mesh_0",
			"primitives":[
				{
					"attributes":{
						"POSITION":29,
						"NORMAL":30,
						"TEXCOORD_0":31,
						"COLOR_0":32
					},
					"indices":33,
					"material":6
				}
			]
		},
		{
			"name":"Mesh_1",
			"primitives":[
				{
					"attributes":{
						"POSITION":34,
						"NORMAL":35,
						"TEXCOORD_0":36,
						"COLOR_0":37
					},
					"indices":38,
					"material":7
				}
			]
		},
		{
			"name":"Mesh_2",
			"primitives":[
				{
					"attributes":{
						"POSITION":39,
						"NORMAL":40,
						"TEXCOORD_0":41,
						"COLOR_0":42
					},
					"indices":43,
					"material":8
				}
			]
		},
		{
			"name":"Mesh_3",
			"primitives":[
				{
					"attributes":{
						"POSITION":44,
						"NORMAL":45,
						"TEXCOORD_0":46,
						"COLOR_0":47
					},
					"indices":48,
					"material":9
				}
			]
		}
	],
	"textures":[
		{
			"sampler":0,
			"source":0
		},
		{
			"sampler":0,
			"source":1
		},
		{
			"sampler":0,
			"source":0
		},
		{
			"sampler":0,
			"source":1
		},
		{
			"sampler":0,
			"source":2
		},
		{
			"sampler":0,
			"source":3
		},
		{
			"sampler":0,
			"source":2
		},
		{
			"sampler":0,
			"source":3
		},
		{
			"sampler":0,
			"source":2
		},
		{
			"sampler":0,
			"source":3
		},
		{
			"sampler":0,
			"source":2
		},
		{
			"sampler":0,
			"source":3
		},
		{
			"sampler":0,
			"source":4
		},
		{
			"sampler":0,
			"source":5
		},
		{
			"sampler":0,
			"source":4
		},
		{
			"sampler":0,
			"source":5
		},
		{
			"sampler":0,
			"source":4
		},
		{
			"sampler":0,
			"source":5
		},
		{
			"sampler":0,
			"source":4
		},
		{
			"sampler":0,
			"source":5
		}
	],
	"images":[
		{
			"mimeType":"image/png",
			"name":"Image_5",
			"uri":"Image_5.png"
		},
		{
			"mimeType":"image/png",
			"name":"Image_4",
			"uri":"Image_4.png"
		},
		{
			"mimeType":"image/png",
			"name":"Image_3",
			"uri":"Image_3.png"
		},
		{
			"mimeType":"image/png",
			"name":"Image_2",
			"uri":"Image_2.png"
		},
		{
			"mimeType":"image/png",
			"name":"Image_1",
			"uri":"Image_1.png"
		},
		{
			"mimeType":"image/png",
			"name":"Image_0",
			"uri":"Image_0.png"
		}
	],
	"accessors":[
		{
			"bufferView":0,
			"componentType":5126,
			"count":16,
			"max":[
				0.007095993962138891,
				0.13382995128631592,
				-0.010451152920722961
			],
			"min":[
				-0.007095993962138891,
				0.11461406201124191,
				-0.01222151517868042
			],
			"type":"VEC3"
		},
		{
			"bufferView":1,
			"componentType":5126,
			"count":16,
			"type":"VEC3"
		},
		{
			"bufferView":2,
			"componentType":5126,
			"count":16,
			"type":"VEC2"
		},
		{
			"bufferView":3,
			"componentType":5123,
			"count":16,
			"normalized":true,
			"type":"VEC4"
		},
		{
			"bufferView":4,
			"componentType":5123,
			"count":36,
			"type":"SCALAR"
		},
		{
			"bufferView":5,
			"componentType":5126,
			"count":4,
			"max":[
				0.008720947429537773,
				-0.10440204292535782,
				-0.050413377583026886
			],
			"min":[
				-0.008720947429537773,
				-0.10440204292535782,
				-0.06806974858045578
			],
			"type":"VEC3"
		},
		{
			"bufferView":6,
			"componentType":5126,
			"count":4,
			"type":"VEC3"
		},
		{
			"bufferView":7,
			"componentType":5126,
			"count":4,
			"type":"VEC2"
		},
		{
			"bufferView":8,
			"componentType":5123,
			"count":4,
			"normalized":true,
			"type":"VEC4"
		},
		{
			"bufferView":9,
			"componentType":5123,
			"count":6,
			"type":"SCALAR"
		},
		{
			"bufferView":10,
			"componentType":5126,
			"count":2666,
			"max":[
				0.01334237027913332,
				0.13472720980644226,
				0.04365954548120499
			],
			"min":[
				-0.015644369646906853,
				0.09616752713918686,
				-0.06684091687202454
			],
			"type":"VEC3"
		},
		{
			"bufferView":11,
			"componentType":5126,
			"count":2666,
			"type":"VEC3"
		},
		{
			"bufferView":12,
			"componentType":5126,
			"count":2666,
			"type":"VEC2"
		},
		{
			"bufferView":13,
			"componentType":5123,
			"count":2666,
			"normalized":true,
			"type":"VEC4"
		},
		{
			"bufferView":14,
			"componentType":5123,
			"count":7272,
			"type":"SCALAR"
		},
		{
			"bufferView":15,
			"componentType":5126,
			"count":27,
			"max":[
				0.011664417572319508,
				0.09541460126638412,
				-0.06950061023235321
			],
			"min":[
				-0.011664609424769878,
				0.07274072617292404,
				-0.0845024511218071
			],
			"type":"VEC3"
		},
		{
			"bufferView":16,
			"componentType":5126,
			"count":27,
			"type":"VEC3"
		},
		{
			"bufferView":17,
			"componentType":5126,
			"count":27,
			"type":"VEC2"
		},
		{
			"bufferView":18,
			"componentType":5123,
			"count":27,
			"normalized":true,
			"type":"VEC4"
		},
		{
			"bufferView":19,
			"componentType":5123,
			"count":60,
			"type":"SCALAR"
		},
		{
			"bufferView":20,
			"componentType":5126,
			"count":4,
			"max":[
				0.006241381634026766,
				0.09493350237607956,
				-0.070816770195961
			],
			"min":[
				-0.00618486013263464,
				0.09108086675405502,
				-0.0733649879693985
			],
			"type":"VEC3"
		},
		{
			"bufferView":21,
			"componentType":5126,
			"count":4,
			"type":"VEC3"
		},
		{
			"bufferView":22,
			"componentType":5126,
			"count":4,
			"type":"VEC2"
		},
		{
			"bufferView":23,
			"componentType":5123,
			"count":4,
			"normalized":true,
			"type":"VEC4"
		},
		{
			"bufferView":24,
			"componentType":5126,
			"count":1629,
			"max":[
				0.02424289658665657,
				-0.06230304390192032,
				0.1650051474571228
			],
			"min":[
				-0.02424289658665657,
				-0.18830305337905884,
				0.053205959498882294
			],
			"type":"VEC3"
		},
		{
			"bufferView":25,
			"componentType":5126,
			"count":1629,
			"type":"VEC3"
		},
		{
			"bufferView":26,
			"componentType":5126,
			"count":1629,
			"type":"VEC2"
		},
		{
			"bufferView":27,
			"componentType":5123,
			"count":1629,
			"normalized":true,
			"type":"VEC4"
		},
		{
			"bufferView":28,
			"componentType":5123,
			"count":4308,
			"type":"SCALAR"
		},
		{
			"bufferView":29,
			"componentType":5126,
			"count":24537,
			"max":[
				0.053582996129989624,
				0.13471582531929016,
				0.8484224677085876
			],
			"min":[
				-0.053582996129989624,
				-0.17609792947769165,
				-0.3303314447402954
			],
			"type":"VEC3"
		},
		{
			"bufferView":30,
			"componentType":5126,
			"count":24537,
			"type":"VEC3"
		},
		{
			"bufferView":31,
			"componentType":5126,
			"count":24537,
			"type":"VEC2"
		},
		{
			"bufferView":32,
			"componentType":5123,
			"count":24537,
			"normalized":true,
			"type":"VEC4"
		},
		{
			"bufferView":33,
			"componentType":5123,
			"count":64758,
			"type":"SCALAR"
		},
		{
			"bufferView":34,
			"componentType":5126,
			"count":16,
			"max":[
				0.01554068736732006,
				0.07327256351709366,
				0.061117611825466156
			],
			"min":[
				-0.01554068736732006,
				0.05737213045358658,
				0.02530568093061447
			],
			"type":"VEC3"
		},
		{
			"bufferView":35,
			"componentType":5126,
			"count":16,
			"type":"VEC3"
		},
		{
			"bufferView":36,
			"componentType":5126,
			"count":16,
			"type":"VEC2"
		},
		{
			"bufferView":37,
			"componentType":5123,
			"count":16,
			"normalized":true,
			"type":"VEC4"
		},
		{
			"bufferView":38,
			"componentType":5123,
			"count":36,
			"type":"SCALAR"
		},
		{
			"bufferView":39,
			"componentType":5126,
			"count":1282,
			"max":[
				0.03316785767674446,
				0.09215881675481796,
				0.409811794757843
			],
			"min":[
				-0.01678178459405899,
				0.07203146070241928,
				0.3336372375488281
			],
			"type":"VEC3"
		},
		{
			"bufferView":40,
			"componentType":5126,
			"count":1282,
			"type":"VEC3"
		},
		{
			"bufferView":41,
			"componentType":5126,
			"count":1282,
			"type":"VEC2"
		},
		{
			"bufferView":42,
			"componentType":5123,
			"count":1282,
			"normalized":true,
			"type":"VEC4"
		},
		{
			"bufferView":43,
			"componentType":5123,
			"count":3312,
			"type":"SCALAR"
		},
		{
			"bufferView":44,
			"componentType":5126,
			"count":882,
			"max":[
				0.03746672719717026,
				0.06156308203935623,
				0.49006935954093933
			],
			"min":[
				-0.03746672719717026,
				-0.005600028671324253,
				0.08505818992853165
			],
			"type":"VEC3"
		},
		{
			"bufferView":45,
			"componentType":5126,
			"count":882,
			"type":"VEC3"
		},
		{
			"bufferView":46,
			"componentType":5126,
			"count":882,
			"type":"VEC2"
		},
		{
			"bufferView":47,
			"componentType":5123,
			"count":882,
			"normalized":true,
			"type":"VEC4"
		},
		{
			"bufferView":48,
			"componentType":5123,
			"count":1920,
			"type":"SCALAR"
		}
	],
	"bufferViews":[
		{
			"buffer":0,
			"byteLength":192,
			"byteOffset":0,
			"target":34962
		},
		{
			"buffer":0,
			"byteLength":192,
			"byteOffset":192,
			"target":34962
		},
		{
			"buffer":0,
			"byteLength":128,
			"byteOffset":384,
			"target":34962
		},
		{
			"buffer":0,
			"byteLength":128,
			"byteOffset":512,
			"target":34962
		},
		{
			"buffer":0,
			"byteLength":72,
			"byteOffset":640,
			"target":34963
		},
		{
			"buffer":0,
			"byteLength":48,
			"byteOffset":712,
			"target":34962
		},
		{
			"buffer":0,
			"byteLength":48,
			"byteOffset":760,
			"target":34962
		},
		{
			"buffer":0,
			"byteLength":32,
			"byteOffset":808,
			"target":34962
		},
		{
			"buffer":0,
			"byteLength":32,
			"byteOffset":840,
			"target":34962
		},
		{
			"buffer":0,
			"byteLength":12,
			"byteOffset":872,
			"target":34963
		},
		{
			"buffer":0,
			"byteLength":31992,
			"byteOffset":884,
			"target":34962
		},
		{
			"buffer":0,
			"byteLength":31992,
			"byteOffset":32876,
			"target":34962
		},
		{
			"buffer":0,
			"byteLength":21328,
			"byteOffset":64868,
			"target":34962
		},
		{
			"buffer":0,
			"byteLength":21328,
			"byteOffset":86196,
			"target":34962
		},
		{
			"buffer":0,
			"byteLength":14544,
			"byteOffset":107524,
			"target":34963
		},
		{
			"buffer":0,
			"byteLength":324,
			"byteOffset":122068,
			"target":34962
		},
		{
			"buffer":0,
			"byteLength":324,
			"byteOffset":122392,
			"target":34962
		},
		{
			"buffer":0,
			"byteLength":216,
			"byteOffset":122716,
			"target":34962
		},
		{
			"buffer":0,
			"byteLength":216,
			"byteOffset":122932,
			"target":34962
		},
		{
			"buffer":0,
			"byteLength":120,
			"byteOffset":123148,
			"target":34963
		},
		{
			"buffer":0,
			"byteLength":48,
			"byteOffset":123268,
			"target":34962
		},
		{
			"buffer":0,
			"byteLength":48,
			"byteOffset":123316,
			"target":34962
		},
		{
			"buffer":0,
			"byteLength":32,
			"byteOffset":123364,
			"target":34962
		},
		{
			"buffer":0,
			"byteLength":32,
			"byteOffset":123396,
			"target":34962
		},
		{
			"buffer":0,
			"byteLength":19548,
			"byteOffset":123428,
			"target":34962
		},
		{
			"buffer":0,
			"byteLength":19548,
			"byteOffset":142976,
			"target":34962
		},
		{
			"buffer":0,
			"byteLength":13032,
			"byteOffset":162524,
			"target":34962
		},
		{
			"buffer":0,
			"byteLength":13032,
			"byteOffset":175556,
			"target":34962
		},
		{
			"buffer":0,
			"byteLength":8616,
			"byteOffset":188588,
			"target":34963
		},
		{
			"buffer":0,
			"byteLength":294444,
			"byteOffset":197204,
			"target":34962
		},
		{
			"buffer":0,
			"byteLength":294444,
			"byteOffset":491648,
			"target":34962
		},
		{
			"buffer":0,
			"byteLength":196296,
			"byteOffset":786092,
			"target":34962
		},
		{
			"buffer":0,
			"byteLength":196296,
			"byteOffset":982388,
			"target":34962
		},
		{
			"buffer":0,
			"byteLength":129516,
			"byteOffset":1178684,
			"target":34963
		},
		{
			"buffer":0,
			"byteLength":192,
			"byteOffset":1308200,
			"target":34962
		},
		{
			"buffer":0,
			"byteLength":192,
			"byteOffset":1308392,
			"target":34962
		},
		{
			"buffer":0,
			"byteLength":128,
			"byteOffset":1308584,
			"target":34962
		},
		{
			"buffer":0,
			"byteLength":128,
			"byteOffset":1308712,
			"target":34962
		},
		{
			"buffer":0,
			"byteLength":72,
			"byteOffset":1308840,
			"target":34963
		},
		{
			"buffer":0,
			"byteLength":15384,
			"byteOffset":1308912,
			"target":34962
		},
		{
			"buffer":0,
			"byteLength":15384,
			"byteOffset":1324296,
			"target":34962
		},
		{
			"buffer":0,
			"byteLength":10256,
			"byteOffset":1339680,
			"target":34962
		},
		{
			"buffer":0,
			"byteLength":10256,
			"byteOffset":1349936,
			"target":34962
		},
		{
			"buffer":0,
			"byteLength":6624,
			"byteOffset":1360192,
			"target":34963
		},
		{
			"buffer":0,
			"byteLength":10584,
			"byteOffset":1366816,
			"target":34962
		},
		{
			"buffer":0,
			"byteLength":10584,
			"byteOffset":1377400,
			"target":34962
		},
		{
			"buffer":0,
			"byteLength":7056,
			"byteOffset":1387984,
			"target":34962
		},
		{
			"buffer":0,
			"byteLength":7056,
			"byteOffset":1395040,
			"target":34962
		},
		{
			"buffer":0,
			"byteLength":3840,
			"byteOffset":1402096,
			"target":34963
		}
	],
	"samplers":[
		{
			"magFilter":9729,
			"minFilter":9987
		}
	],
	"buffers":[
		{
			"byteLength":1405936,
			"uri":"RedDeath.bin"
		}
	]
}
