{
	"asset":{
		"generator":"Khronos glTF Blender I/O v5.0.21",
		"version":"2.0"
	},
	"extensionsUsed":[
		"KHR_materials_emissive_strength"
	],
	"scene":0,
	"scenes":[
		{
			"name":"Scene",
			"nodes":[
				3,
				16
			]
		}
	],
	"nodes":[
		{
			"name":"Cube.003",
			"rotation":[
				-0.501414954662323,
				0.49858102202415466,
				0.49858370423316956,
				0.5014123320579529
			],
			"scale":[
				17.99628448486328,
				28.078048706054688,
				17.99628257751465
			],
			"translation":[
				1276.7611083984375,
				75.9358139038086,
				-3.678884744644165
			]
		},
		{
			"children":[
				0
			],
			"name":"RootNode"
		},
		{
			"children":[
				1
			],
			"name":"df2c75df5a5845048dfd66c9862d17a9.fbx",
			"rotation":[
				0.70710688829422,
				0,
				0,
				0.7071066498756409
			],
			"scale":[
				0.009999999776482582,
				0.010000000707805157,
				0.010000000707805157
			]
		},
		{
			"children":[
				2
			],
			"name":"Sketchfab_model",
			"rotation":[
				-0.70710688829422,
				0,
				0,
				0.7071066498756409
			]
		},
		{
			"mesh":0,
			"name":"Cube.003_Base color_0",
			"translation":[
				-1.158592939376831,
				44.789791107177734,
				-3.0460784435272217
			]
		},
		{
			"mesh":1,
			"name":"Cube.003_Grn lig_0",
			"translation":[
				-1.158592939376831,
				44.789791107177734,
				-3.0460784435272217
			]
		},
		{
			"mesh":2,
			"name":"Cube.003_Material.001_0",
			"translation":[
				-1.158592939376831,
				44.789791107177734,
				-3.0460784435272217
			]
		},
		{
			"mesh":3,
			"name":"Cube.003_Material.002_0",
			"translation":[
				-1.158592939376831,
				44.789791107177734,
				-3.0460784435272217
			]
		},
		{
			"mesh":4,
			"name":"Cube.003_Material.003_0",
			"translation":[
				-1.158592939376831,
				44.789791107177734,
				-3.0460784435272217
			]
		},
		{
			"mesh":5,
			"name":"Cube.003_Material_0",
			"translation":[
				-1.158592939376831,
				44.789791107177734,
				-3.0460784435272217
			]
		},
		{
			"mesh":6,
			"name":"Cube.003_Mid_0",
			"translation":[
				-1.158592939376831,
				44.789791107177734,
				-3.0460784435272217
			]
		},
		{
			"mesh":7,
			"name":"Cube.003_Sides_0",
			"translation":[
				-1.158592939376831,
				44.789791107177734,
				-3.0460784435272217
			]
		},
		{
			"mesh":8,
			"name":"Cube.003_Ylo Lig_0",
			"translation":[
				-1.158592939376831,
				44.789791107177734,
				-3.0460784435272217
			]
		},
		{
			"children":[
				4,
				5,
				6,
				7,
				8,
				9,
				10,
				11,
				12
			],
			"name":"Cube.001",
			"rotation":[
				-0.501414954662323,
				0.49858102202415466,
				0.49858370423316956,
				0.5014123320579529
			],
			"scale":[
				17.99628448486328,
				28.078048706054688,
				17.99628257751465
			],
			"translation":[
				1276.7611083984375,
				75.9358139038086,
				-3.678884744644165
			]
		},
		{
			"children":[
				13
			],
			"name":"RootNode.001"
		},
		{
			"children":[
				14
			],
			"name":"df2c75df5a5845048dfd66c9862d17a9.fbx.001",
			"rotation":[
				0.70710688829422,
				0,
				0,
				0.7071066498756409
			],
			"scale":[
				0.009999999776482582,
				0.010000000707805157,
				0.010000000707805157
			]
		},
		{
			"children":[
				15
			],
			"name":"Sketchfab_model.001",
			"rotation":[
				-0.70710688829422,
				0,
				0,
				0.7071066498756409
			]
		}
	],
	"materials":[
		{
			"doubleSided":true,
			"name":"Base_color",
			"normalTexture":{
				"index":0
			},
			"pbrMetallicRoughness":{
				"baseColorFactor":[
					0.17901507019996643,
					0.17901507019996643,
					0.17901507019996643,
					1
				],
				"roughnessFactor":0.029709069058299065
			}
		},
		{
			"doubleSided":true,
			"emissiveFactor":[
				0,
				1,
				0.0013699005357921124
			],
			"extensions":{
				"KHR_materials_emissive_strength":{
					"emissiveStrength":10
				}
			},
			"name":"Grn_lig",
			"pbrMetallicRoughness":{
				"baseColorFactor":[
					0.024031858891248703,
					1,
					0,
					1
				],
				"metallicFactor":0,
				"roughnessFactor":0.8040408492088318
			}
		},
		{
			"doubleSided":true,
			"name":"Material.001",
			"pbrMetallicRoughness":{
				"baseColorFactor":[
					0.05780230090022087,
					0.05780230090022087,
					0.05780230090022087,
					1
				],
				"metallicFactor":0
			}
		},
		{
			"doubleSided":true,
			"name":"Material.002",
			"pbrMetallicRoughness":{
				"baseColorFactor":[
					0.15090115368366241,
					0.14807912707328796,
					0.14807912707328796,
					1
				],
				"metallicFactor":0
			}
		},
		{
			"doubleSided":true,
			"emissiveFactor":[
				0.21059630811214447,
				0.22857213020324707,
				0
			],
			"name":"Material.003",
			"pbrMetallicRoughness":{
				"baseColorFactor":[
					0.30933427810668945,
					0.26183393597602844,
					0,
					1
				],
				"metallicFactor":0,
				"roughnessFactor":0.8040408492088318
			}
		},
		{
			"doubleSided":true,
			"name":"Material.004",
			"pbrMetallicRoughness":{
				"baseColorTexture":{
					"index":1
				},
				"metallicFactor":0.6689544320106506,
				"roughnessFactor":0.17888544499874115
			}
		},
		{
			"doubleSided":true,
			"name":"material",
			"pbrMetallicRoughness":{
				"baseColorTexture":{
					"index":2
				},
				"metallicFactor":0,
				"roughnessFactor":0.8211145401000977
			}
		},
		{
			"doubleSided":true,
			"name":"Sides",
			"pbrMetallicRoughness":{
				"baseColorTexture":{
					"index":3
				},
				"metallicFactor":0.9980982542037964,
				"roughnessFactor":0.17888544499874115
			}
		},
		{
			"doubleSided":true,
			"name":"Ylo_Lig",
			"pbrMetallicRoughness":{
				"baseColorFactor":[
					0.07149847596883774,
					0.06405249983072281,
					0.06405249983072281,
					1
				],
				"metallicFactor":0.5897160768508911,
				"roughnessFactor":0.1959591805934906
			}
		}
	],
	"meshes":[
		{
			"name":"Cube.003_Base color_0.001",
			"primitives":[
				{
					"attributes":{
						"POSITION":0,
						"NORMAL":1,
						"TEXCOORD_0":2,
						"TEXCOORD_1":3
					},
					"indices":4,
					"material":0
				}
			]
		},
		{
			"name":"Cube.003_Grn lig_0",
			"primitives":[
				{
					"attributes":{
						"POSITION":5,
						"NORMAL":6,
						"TEXCOORD_0":7
					},
					"indices":8,
					"material":1
				}
			]
		},
		{
			"name":"Cube.003_Material.001_0",
			"primitives":[
				{
					"attributes":{
						"POSITION":9,
						"NORMAL":10,
						"TEXCOORD_0":11
					},
					"indices":12,
					"material":2
				}
			]
		},
		{
			"name":"Cube.003_Material.002_0",
			"primitives":[
				{
					"attributes":{
						"POSITION":13,
						"NORMAL":14,
						"TEXCOORD_0":15
					},
					"indices":16,
					"material":3
				}
			]
		},
		{
			"name":"Cube.003_Material.003_0",
			"primitives":[
				{
					"attributes":{
						"POSITION":17,
						"NORMAL":18,
						"TEXCOORD_0":19
					},
					"indices":20,
					"material":4
				}
			]
		},
		{
			"name":"Cube.003_Material_0",
			"primitives":[
				{
					"attributes":{
						"POSITION":21,
						"NORMAL":22,
						"TEXCOORD_0":23
					},
					"indices":24,
					"material":5
				}
			]
		},
		{
			"name":"Cube.003_Mid_0",
			"primitives":[
				{
					"attributes":{
						"POSITION":25,
						"NORMAL":26,
						"TEXCOORD_0":27
					},
					"indices":28,
					"material":6
				}
			]
		},
		{
			"name":"Cube.003_Sides_0",
			"primitives":[
				{
					"attributes":{
						"POSITION":29,
						"NORMAL":30,
						"TEXCOORD_0":31
					},
					"indices":24,
					"material":7
				}
			]
		},
		{
			"name":"Cube.003_Ylo Lig_0",
			"primitives":[
				{
					"attributes":{
						"POSITION":32,
						"NORMAL":33,
						"TEXCOORD_0":34
					},
					"indices":35,
					"material":8
				}
			]
		}
	],
	"textures":[
		{
			"sampler":0,
			"source":0
		},
		{
			"sampler":0,
			"source":1
		},
		{
			"sampler":0,
			"source":1
		},
		{
			"sampler":0,
			"source":2
		}
	],
	"images":[
		{
			"mimeType":"image/png",
			"name":"Base_color_normal",
			"uri":"Base_color_normal.png"
		},
		{
			"mimeType":"image/jpeg",
			"name":"material_baseColor",
			"uri":"material_baseColor.jpg"
		},
		{
			"mimeType":"image/jpeg",
			"name":"Sides_baseColor",
			"uri":"Sides_baseColor.jpg"
		}
	],
	"accessors":[
		{
			"bufferView":0,
			"componentType":5126,
			"count":3685,
			"max":[
				3.1863272190093994,
				1.0806005001068115,
				1.8021622896194458
			],
			"min":[
				-2.1877644062042236,
				0.48710203170776367,
				-3.6953654289245605
			],
			"type":"VEC3"
		},
		{
			"bufferView":1,
			"componentType":5126,
			"count":3685,
			"type":"VEC3"
		},
		{
			"bufferView":2,
			"componentType":5126,
			"count":3685,
			"type":"VEC2"
		},
		{
			"bufferView":3,
			"componentType":5126,
			"count":3685,
			"type":"VEC2"
		},
		{
			"bufferView":4,
			"componentType":5123,
			"count":6834,
			"type":"SCALAR"
		},
		{
			"bufferView":5,
			"componentType":5126,
			"count":1161,
			"max":[
				2.4517879486083984,
				0.7773689031600952,
				0.8704553842544556
			],
			"min":[
				-1.3891873359680176,
				0.7219172716140747,
				-2.7633965015411377
			],
			"type":"VEC3"
		},
		{
			"bufferView":6,
			"componentType":5126,
			"count":1161,
			"type":"VEC3"
		},
		{
			"bufferView":7,
			"componentType":5126,
			"count":1161,
			"type":"VEC2"
		},
		{
			"bufferView":8,
			"componentType":5123,
			"count":2208,
			"type":"SCALAR"
		},
		{
			"bufferView":9,
			"componentType":5126,
			"count":2695,
			"max":[
				2.6778388023376465,
				0.7123356461524963,
				1.2208682298660278
			],
			"min":[
				-1.6452937126159668,
				0.48630768060684204,
				-3.0974483489990234
			],
			"type":"VEC3"
		},
		{
			"bufferView":10,
			"componentType":5126,
			"count":2695,
			"type":"VEC3"
		},
		{
			"bufferView":11,
			"componentType":5126,
			"count":2695,
			"type":"VEC2"
		},
		{
			"bufferView":12,
			"componentType":5123,
			"count":3990,
			"type":"SCALAR"
		},
		{
			"bufferView":13,
			"componentType":5126,
			"count":2331,
			"max":[
				2.963494062423706,
				0.878686249256134,
				1.4988160133361816
			],
			"min":[
				-1.9140253067016602,
				0.4864218235015869,
				-3.3789355754852295
			],
			"type":"VEC3"
		},
		{
			"bufferView":14,
			"componentType":5126,
			"count":2331,
			"type":"VEC3"
		},
		{
			"bufferView":15,
			"componentType":5126,
			"count":2331,
			"type":"VEC2"
		},
		{
			"bufferView":16,
			"componentType":5123,
			"count":3450,
			"type":"SCALAR"
		},
		{
			"bufferView":17,
			"componentType":5126,
			"count":120,
			"max":[
				1.3292148113250732,
				0.725319504737854,
				-0.1636071801185608
			],
			"min":[
				-0.18968522548675537,
				0.6658705472946167,
				-1.682138442993164
			],
			"type":"VEC3"
		},
		{
			"bufferView":18,
			"componentType":5126,
			"count":120,
			"type":"VEC3"
		},
		{
			"bufferView":19,
			"componentType":5126,
			"count":120,
			"type":"VEC2"
		},
		{
			"bufferView":20,
			"componentType":5123,
			"count":192,
			"type":"SCALAR"
		},
		{
			"bufferView":21,
			"componentType":5126,
			"count":64,
			"max":[
				2.671454668045044,
				0.7452468276023865,
				1.225649118423462
			],
			"min":[
				-1.6665558815002441,
				0.7295025587081909,
				-3.112427234649658
			],
			"type":"VEC3"
		},
		{
			"bufferView":22,
			"componentType":5126,
			"count":64,
			"type":"VEC3"
		},
		{
			"bufferView":23,
			"componentType":5126,
			"count":64,
			"type":"VEC2"
		},
		{
			"bufferView":24,
			"componentType":5123,
			"count":96,
			"type":"SCALAR"
		},
		{
			"bufferView":25,
			"componentType":5126,
			"count":8,
			"max":[
				2.2506065368652344,
				0.715778648853302,
				0.6547838449478149
			],
			"min":[
				-1.245214581489563,
				0.7030879259109497,
				-2.541473865509033
			],
			"type":"VEC3"
		},
		{
			"bufferView":26,
			"componentType":5126,
			"count":8,
			"type":"VEC3"
		},
		{
			"bufferView":27,
			"componentType":5126,
			"count":8,
			"type":"VEC2"
		},
		{
			"bufferView":28,
			"componentType":5123,
			"count":18,
			"type":"SCALAR"
		},
		{
			"bufferView":29,
			"componentType":5126,
			"count":64,
			"max":[
				3.1863272190093994,
				1.0806005001068115,
				1.8021622896194458
			],
			"min":[
				-2.1877644062042236,
				0.778618335723877,
				-3.6953654289245605
			],
			"type":"VEC3"
		},
		{
			"bufferView":30,
			"componentType":5126,
			"count":64,
			"type":"VEC3"
		},
		{
			"bufferView":31,
			"componentType":5126,
			"count":64,
			"type":"VEC2"
		},
		{
			"bufferView":32,
			"componentType":5126,
			"count":692,
			"max":[
				3.054325819015503,
				1.0880149602890015,
				1.6613761186599731
			],
			"min":[
				-2.0426135063171387,
				0.739164412021637,
				-3.562828540802002
			],
			"type":"VEC3"
		},
		{
			"bufferView":33,
			"componentType":5126,
			"count":692,
			"type":"VEC3"
		},
		{
			"bufferView":34,
			"componentType":5126,
			"count":692,
			"type":"VEC2"
		},
		{
			"bufferView":35,
			"componentType":5123,
			"count":960,
			"type":"SCALAR"
		}
	],
	"bufferViews":[
		{
			"buffer":0,
			"byteLength":44220,
			"byteOffset":0,
			"target":34962
		},
		{
			"buffer":0,
			"byteLength":44220,
			"byteOffset":44220,
			"target":34962
		},
		{
			"buffer":0,
			"byteLength":29480,
			"byteOffset":88440,
			"target":34962
		},
		{
			"buffer":0,
			"byteLength":29480,
			"byteOffset":117920,
			"target":34962
		},
		{
			"buffer":0,
			"byteLength":13668,
			"byteOffset":147400,
			"target":34963
		},
		{
			"buffer":0,
			"byteLength":13932,
			"byteOffset":161068,
			"target":34962
		},
		{
			"buffer":0,
			"byteLength":13932,
			"byteOffset":175000,
			"target":34962
		},
		{
			"buffer":0,
			"byteLength":9288,
			"byteOffset":188932,
			"target":34962
		},
		{
			"buffer":0,
			"byteLength":4416,
			"byteOffset":198220,
			"target":34963
		},
		{
			"buffer":0,
			"byteLength":32340,
			"byteOffset":202636,
			"target":34962
		},
		{
			"buffer":0,
			"byteLength":32340,
			"byteOffset":234976,
			"target":34962
		},
		{
			"buffer":0,
			"byteLength":21560,
			"byteOffset":267316,
			"target":34962
		},
		{
			"buffer":0,
			"byteLength":7980,
			"byteOffset":288876,
			"target":34963
		},
		{
			"buffer":0,
			"byteLength":27972,
			"byteOffset":296856,
			"target":34962
		},
		{
			"buffer":0,
			"byteLength":27972,
			"byteOffset":324828,
			"target":34962
		},
		{
			"buffer":0,
			"byteLength":18648,
			"byteOffset":352800,
			"target":34962
		},
		{
			"buffer":0,
			"byteLength":6900,
			"byteOffset":371448,
			"target":34963
		},
		{
			"buffer":0,
			"byteLength":1440,
			"byteOffset":378348,
			"target":34962
		},
		{
			"buffer":0,
			"byteLength":1440,
			"byteOffset":379788,
			"target":34962
		},
		{
			"buffer":0,
			"byteLength":960,
			"byteOffset":381228,
			"target":34962
		},
		{
			"buffer":0,
			"byteLength":384,
			"byteOffset":382188,
			"target":34963
		},
		{
			"buffer":0,
			"byteLength":768,
			"byteOffset":382572,
			"target":34962
		},
		{
			"buffer":0,
			"byteLength":768,
			"byteOffset":383340,
			"target":34962
		},
		{
			"buffer":0,
			"byteLength":512,
			"byteOffset":384108,
			"target":34962
		},
		{
			"buffer":0,
			"byteLength":192,
			"byteOffset":384620,
			"target":34963
		},
		{
			"buffer":0,
			"byteLength":96,
			"byteOffset":384812,
			"target":34962
		},
		{
			"buffer":0,
			"byteLength":96,
			"byteOffset":384908,
			"target":34962
		},
		{
			"buffer":0,
			"byteLength":64,
			"byteOffset":385004,
			"target":34962
		},
		{
			"buffer":0,
			"byteLength":36,
			"byteOffset":385068,
			"target":34963
		},
		{
			"buffer":0,
			"byteLength":768,
			"byteOffset":385104,
			"target":34962
		},
		{
			"buffer":0,
			"byteLength":768,
			"byteOffset":385872,
			"target":34962
		},
		{
			"buffer":0,
			"byteLength":512,
			"byteOffset":386640,
			"target":34962
		},
		{
			"buffer":0,
			"byteLength":8304,
			"byteOffset":387152,
			"target":34962
		},
		{
			"buffer":0,
			"byteLength":8304,
			"byteOffset":395456,
			"target":34962
		},
		{
			"buffer":0,
			"byteLength":5536,
			"byteOffset":403760,
			"target":34962
		},
		{
			"buffer":0,
			"byteLength":1920,
			"byteOffset":409296,
			"target":34963
		}
	],
	"samplers":[
		{
			"magFilter":9729,
			"minFilter":9987
		}
	],
	"buffers":[
		{
			"byteLength":411216,
			"uri":"SpawnPlatform.bin"
		}
	]
}
