{
	"asset":{
		"generator":"Khronos glTF Blender I/O v5.0.21",
		"version":"2.0"
	},
	"extensionsUsed":[
		"KHR_materials_clearcoat"
	],
	"scene":0,
	"scenes":[
		{
			"name":"Scene",
			"nodes":[
				0,
				1,
				2,
				3,
				4,
				5,
				6,
				7,
				8,
				9,
				10,
				11,
				12,
				13,
				14,
				15,
				16,
				17
			]
		}
	],
	"nodes":[
		{
			"mesh":0,
			"name":"Black-Spindle.002",
			"rotation":[
				0,
				0.7071066498756409,
				0,
				0.70710688829422
			],
			"translation":[
				-0.33381035923957825,
				-0.07363074272871017,
				0
			]
		},
		{
			"mesh":1,
			"name":"Black-Spindle.003",
			"rotation":[
				0,
				0.7071066498756409,
				0,
				0.70710688829422
			],
			"translation":[
				-0.33381035923957825,
				-0.07363074272871017,
				0
			]
		},
		{
			"mesh":2,
			"name":"Black-Spindle.004",
			"rotation":[
				0,
				0.7071066498756409,
				0,
				0.70710688829422
			],
			"translation":[
				-0.33381035923957825,
				-0.07363074272871017,
				0
			]
		},
		{
			"mesh":3,
			"name":"Black-Spindle.005",
			"rotation":[
				0,
				0.7071066498756409,
				0,
				0.70710688829422
			],
			"translation":[
				-0.33381035923957825,
				-0.07363074272871017,
				0
			]
		},
		{
			"mesh":4,
			"name":"Black-Spindle.006",
			"rotation":[
				0,
				0.7071066498756409,
				0,
				0.70710688829422
			],
			"translation":[
				-0.33381035923957825,
				-0.07363074272871017,
				0
			]
		},
		{
			"name":"Black-Spindle.007",
			"rotation":[
				0,
				0.7071066498756409,
				0,
				0.70710688829422
			],
			"translation":[
				-0.33381035923957825,
				-0.07363074272871017,
				0
			]
		},
		{
			"mesh":5,
			"name":"Black-Spindle.008",
			"rotation":[
				0,
				0.7071066498756409,
				0,
				0.70710688829422
			],
			"translation":[
				-0.33381035923957825,
				-0.07363074272871017,
				0
			]
		},
		{
			"mesh":6,
			"name":"Black-Spindle.009",
			"rotation":[
				0,
				0.7071066498756409,
				0,
				0.70710688829422
			],
			"translation":[
				-0.33381035923957825,
				-0.07363074272871017,
				0
			]
		},
		{
			"mesh":7,
			"name":"Black-Spindle.010",
			"rotation":[
				0,
				0.7071066498756409,
				0,
				0.70710688829422
			],
			"translation":[
				-0.33381035923957825,
				-0.07363074272871017,
				0
			]
		},
		{
			"mesh":8,
			"name":"Black-Spindle.011",
			"rotation":[
				0,
				0.7071066498756409,
				0,
				0.70710688829422
			],
			"translation":[
				-0.33381035923957825,
				-0.07363074272871017,
				0
			]
		},
		{
			"mesh":9,
			"name":"Black-Spindle.012",
			"rotation":[
				0,
				0.7071066498756409,
				0,
				0.70710688829422
			],
			"translation":[
				-0.33381035923957825,
				-0.07363074272871017,
				0
			]
		},
		{
			"mesh":10,
			"name":"Black-Spindle.013",
			"rotation":[
				0,
				0.7071066498756409,
				0,
				0.70710688829422
			],
			"translation":[
				-0.33381035923957825,
				-0.07363074272871017,
				0
			]
		},
		{
			"mesh":11,
			"name":"Black-Spindle.014",
			"rotation":[
				0,
				0.7071066498756409,
				0,
				0.70710688829422
			],
			"translation":[
				-0.33381035923957825,
				-0.07363074272871017,
				0
			]
		},
		{
			"mesh":12,
			"name":"Black-Spindle.015",
			"rotation":[
				0,
				0.7071066498756409,
				0,
				0.70710688829422
			],
			"translation":[
				-0.33381035923957825,
				-0.07363074272871017,
				0
			]
		},
		{
			"mesh":13,
			"name":"Black-Spindle.016",
			"rotation":[
				0,
				0.7071066498756409,
				0,
				0.70710688829422
			],
			"translation":[
				-0.33381035923957825,
				-0.07363074272871017,
				0
			]
		},
		{
			"mesh":14,
			"name":"Black-Spindle.017",
			"rotation":[
				0,
				0.7071066498756409,
				0,
				0.70710688829422
			],
			"translation":[
				-0.33381035923957825,
				-0.07363074272871017,
				0
			]
		},
		{
			"mesh":15,
			"name":"Black-Spindle.018",
			"rotation":[
				0,
				0.7071066498756409,
				0,
				0.70710688829422
			],
			"translation":[
				-0.33381035923957825,
				-0.07363074272871017,
				0
			]
		},
		{
			"mesh":16,
			"name":"Black-Spindle.019",
			"rotation":[
				0,
				0.7071066498756409,
				0,
				0.70710688829422
			],
			"translation":[
				-0.33381035923957825,
				-0.07363074272871017,
				0
			]
		}
	],
	"materials":[
		{
			"alphaMode":"BLEND",
			"doubleSided":true,
			"name":"BlackSpindleDecals.001",
			"pbrMetallicRoughness":{
				"baseColorTexture":{
					"index":0
				},
				"metallicFactor":0,
				"roughnessFactor":0.5
			}
		},
		{
			"doubleSided":true,
			"extensions":{
				"KHR_materials_clearcoat":{
					"clearcoatRoughnessFactor":0
				}
			},
			"name":"BlackSpindleBarrel.003",
			"normalTexture":{
				"index":1
			},
			"pbrMetallicRoughness":{
				"baseColorTexture":{
					"index":2
				},
				"metallicFactor":0,
				"metallicRoughnessTexture":{
					"index":3
				}
			}
		},
		{
			"doubleSided":true,
			"extensions":{
				"KHR_materials_clearcoat":{
					"clearcoatRoughnessFactor":0
				}
			},
			"name":"BlackSpindleBarrel.004",
			"normalTexture":{
				"index":4
			},
			"pbrMetallicRoughness":{
				"baseColorTexture":{
					"index":5
				},
				"metallicFactor":0,
				"metallicRoughnessTexture":{
					"index":6
				}
			}
		},
		{
			"doubleSided":true,
			"name":"DefaultMaterial",
			"pbrMetallicRoughness":{
				"metallicFactor":0,
				"roughnessFactor":0.5
			}
		},
		{
			"doubleSided":true,
			"name":"Glass.001"
		},
		{
			"doubleSided":true,
			"extensions":{
				"KHR_materials_clearcoat":{
					"clearcoatRoughnessFactor":0
				}
			},
			"name":"BlackSpindleScope.003",
			"normalTexture":{
				"index":7
			},
			"pbrMetallicRoughness":{
				"baseColorTexture":{
					"index":8
				},
				"metallicFactor":0,
				"metallicRoughnessTexture":{
					"index":9
				}
			}
		},
		{
			"doubleSided":true,
			"extensions":{
				"KHR_materials_clearcoat":{
					"clearcoatRoughnessFactor":0
				}
			},
			"name":"BlackSpindleScope.004",
			"normalTexture":{
				"index":10
			},
			"pbrMetallicRoughness":{
				"baseColorTexture":{
					"index":11
				},
				"metallicFactor":0,
				"metallicRoughnessTexture":{
					"index":12
				}
			}
		},
		{
			"doubleSided":true,
			"extensions":{
				"KHR_materials_clearcoat":{
					"clearcoatRoughnessFactor":0
				}
			},
			"name":"BlackSpindleBarrel.005",
			"normalTexture":{
				"index":13
			},
			"pbrMetallicRoughness":{
				"baseColorTexture":{
					"index":14
				},
				"metallicFactor":0,
				"metallicRoughnessTexture":{
					"index":15
				}
			}
		},
		{
			"doubleSided":true,
			"extensions":{
				"KHR_materials_clearcoat":{
					"clearcoatRoughnessFactor":0
				}
			},
			"name":"BlackSpindleScope.005",
			"normalTexture":{
				"index":16
			},
			"pbrMetallicRoughness":{
				"baseColorTexture":{
					"index":17
				},
				"metallicFactor":0,
				"metallicRoughnessTexture":{
					"index":18
				}
			}
		}
	],
	"meshes":[
		{
			"name":"Black-Spindle.001",
			"primitives":[
				{
					"attributes":{
						"POSITION":0,
						"NORMAL":1,
						"TEXCOORD_0":2,
						"TEXCOORD_1":3,
						"COLOR_0":4,
						"COLOR_1":5,
						"COLOR_2":6
					},
					"indices":7,
					"material":0
				}
			]
		},
		{
			"name":"Black-Spindle.015",
			"primitives":[
				{
					"attributes":{
						"POSITION":8,
						"NORMAL":9,
						"TEXCOORD_0":10,
						"TEXCOORD_1":11,
						"COLOR_0":12,
						"COLOR_1":13,
						"COLOR_2":14
					},
					"indices":15,
					"material":1
				}
			]
		},
		{
			"name":"Black-Spindle.021",
			"primitives":[
				{
					"attributes":{
						"POSITION":16,
						"NORMAL":17,
						"TEXCOORD_0":18,
						"TEXCOORD_1":19,
						"COLOR_0":20,
						"COLOR_1":21,
						"COLOR_2":22
					},
					"indices":23,
					"material":0
				}
			]
		},
		{
			"name":"Black-Spindle.022",
			"primitives":[
				{
					"attributes":{
						"POSITION":24,
						"NORMAL":25,
						"TEXCOORD_0":26,
						"TEXCOORD_1":27,
						"COLOR_0":28,
						"COLOR_1":29,
						"COLOR_2":30
					},
					"indices":31,
					"material":1
				}
			]
		},
		{
			"name":"Black-Spindle.023",
			"primitives":[
				{
					"attributes":{
						"POSITION":32,
						"NORMAL":33,
						"TEXCOORD_0":34,
						"TEXCOORD_1":35,
						"COLOR_0":36,
						"COLOR_1":37,
						"COLOR_2":38
					},
					"indices":39,
					"material":0
				}
			]
		},
		{
			"name":"Black-Spindle.024",
			"primitives":[
				{
					"attributes":{
						"POSITION":40,
						"NORMAL":41,
						"TEXCOORD_0":42,
						"TEXCOORD_1":43,
						"COLOR_0":44,
						"COLOR_1":45,
						"COLOR_2":46
					},
					"indices":47,
					"material":2
				}
			]
		},
		{
			"name":"Black-Spindle.025",
			"primitives":[
				{
					"attributes":{
						"POSITION":48,
						"NORMAL":49,
						"TEXCOORD_0":50,
						"TEXCOORD_1":51,
						"COLOR_0":52,
						"COLOR_1":53
					},
					"indices":54,
					"material":3
				}
			]
		},
		{
			"name":"Black-Spindle.026",
			"primitives":[
				{
					"attributes":{
						"POSITION":55,
						"NORMAL":56,
						"TEXCOORD_0":57,
						"TEXCOORD_1":58,
						"COLOR_0":59,
						"COLOR_1":60,
						"COLOR_2":61
					},
					"indices":62,
					"material":4
				}
			]
		},
		{
			"name":"Black-Spindle.027",
			"primitives":[
				{
					"attributes":{
						"POSITION":63,
						"NORMAL":64,
						"TEXCOORD_0":65,
						"TEXCOORD_1":66,
						"COLOR_0":67,
						"COLOR_1":68,
						"COLOR_2":69
					},
					"indices":70,
					"material":5
				}
			]
		},
		{
			"name":"Black-Spindle.028",
			"primitives":[
				{
					"attributes":{
						"POSITION":71,
						"NORMAL":72,
						"TEXCOORD_0":73,
						"TEXCOORD_1":74,
						"COLOR_0":75,
						"COLOR_1":76,
						"COLOR_2":77
					},
					"indices":78,
					"material":6
				}
			]
		},
		{
			"name":"Black-Spindle.029",
			"primitives":[
				{
					"attributes":{
						"POSITION":79,
						"NORMAL":80,
						"TEXCOORD_0":81,
						"TEXCOORD_1":82,
						"COLOR_0":83,
						"COLOR_1":84,
						"COLOR_2":85
					},
					"indices":86,
					"material":2
				}
			]
		},
		{
			"name":"Black-Spindle.030",
			"primitives":[
				{
					"attributes":{
						"POSITION":87,
						"NORMAL":88,
						"TEXCOORD_0":89,
						"TEXCOORD_1":90,
						"COLOR_0":91,
						"COLOR_1":92,
						"COLOR_2":93
					},
					"indices":94,
					"material":1
				}
			]
		},
		{
			"name":"Black-Spindle.031",
			"primitives":[
				{
					"attributes":{
						"POSITION":95,
						"NORMAL":96,
						"TEXCOORD_0":97,
						"TEXCOORD_1":98,
						"COLOR_0":99,
						"COLOR_1":100,
						"COLOR_2":101
					},
					"indices":102,
					"material":2
				}
			]
		},
		{
			"name":"Black-Spindle.032",
			"primitives":[
				{
					"attributes":{
						"POSITION":103,
						"NORMAL":104,
						"TEXCOORD_0":105,
						"TEXCOORD_1":106,
						"COLOR_0":107,
						"COLOR_1":108,
						"COLOR_2":109
					},
					"indices":110,
					"material":7
				}
			]
		},
		{
			"name":"Black-Spindle.033",
			"primitives":[
				{
					"attributes":{
						"POSITION":111,
						"NORMAL":112,
						"TEXCOORD_0":113,
						"TEXCOORD_1":114,
						"COLOR_0":115,
						"COLOR_1":116,
						"COLOR_2":117
					},
					"indices":118,
					"material":7
				}
			]
		},
		{
			"name":"Black-Spindle.034",
			"primitives":[
				{
					"attributes":{
						"POSITION":119,
						"NORMAL":120,
						"TEXCOORD_0":121,
						"TEXCOORD_1":122,
						"COLOR_0":123,
						"COLOR_1":124,
						"COLOR_2":125
					},
					"indices":126,
					"material":8
				}
			]
		},
		{
			"name":"Black-Spindle.035",
			"primitives":[
				{
					"attributes":{
						"POSITION":127,
						"NORMAL":128,
						"TEXCOORD_0":129,
						"TEXCOORD_1":130,
						"COLOR_0":131,
						"COLOR_1":132,
						"COLOR_2":133
					},
					"indices":134,
					"material":4
				}
			]
		}
	],
	"textures":[
		{
			"sampler":0,
			"source":0
		},
		{
			"sampler":0,
			"source":1
		},
		{
			"sampler":0,
			"source":2
		},
		{
			"sampler":0,
			"source":3
		},
		{
			"sampler":0,
			"source":1
		},
		{
			"sampler":0,
			"source":2
		},
		{
			"sampler":0,
			"source":3
		},
		{
			"sampler":0,
			"source":4
		},
		{
			"sampler":0,
			"source":5
		},
		{
			"sampler":0,
			"source":6
		},
		{
			"sampler":0,
			"source":4
		},
		{
			"sampler":0,
			"source":5
		},
		{
			"sampler":0,
			"source":6
		},
		{
			"sampler":0,
			"source":1
		},
		{
			"sampler":0,
			"source":2
		},
		{
			"sampler":0,
			"source":3
		},
		{
			"sampler":0,
			"source":4
		},
		{
			"sampler":0,
			"source":5
		},
		{
			"sampler":0,
			"source":6
		}
	],
	"images":[
		{
			"mimeType":"image/png",
			"name":"Decals01_Diffuse",
			"uri":"Decals01_Diffuse.png"
		},
		{
			"mimeType":"image/png",
			"name":"Black-Spindle_normal_0",
			"uri":"Black-Spindle_normal_0.png"
		},
		{
			"mimeType":"image/png",
			"name":"Black-Spindle_diffuse_0",
			"uri":"Black-Spindle_diffuse_0.png"
		},
		{
			"mimeType":"image/png",
			"name":"Black-Spindle_gearstack_0",
			"uri":"Black-Spindle_gearstack_0.png"
		},
		{
			"mimeType":"image/png",
			"name":"Black-Spindle_normal_1",
			"uri":"Black-Spindle_normal_1.png"
		},
		{
			"mimeType":"image/png",
			"name":"Black-Spindle_diffuse_1",
			"uri":"Black-Spindle_diffuse_1.png"
		},
		{
			"mimeType":"image/png",
			"name":"Black-Spindle_gearstack_1",
			"uri":"Black-Spindle_gearstack_1.png"
		}
	],
	"accessors":[
		{
			"bufferView":0,
			"componentType":5126,
			"count":16,
			"max":[
				0.01816299930214882,
				0.039805151522159576,
				0.027523374184966087
			],
			"min":[
				-0.017652999609708786,
				-0.015286847949028015,
				-0.19101963937282562
			],
			"type":"VEC3"
		},
		{
			"bufferView":1,
			"componentType":5126,
			"count":16,
			"type":"VEC3"
		},
		{
			"bufferView":2,
			"componentType":5126,
			"count":16,
			"type":"VEC2"
		},
		{
			"bufferView":3,
			"componentType":5126,
			"count":16,
			"type":"VEC2"
		},
		{
			"bufferView":4,
			"componentType":5123,
			"count":16,
			"normalized":true,
			"type":"VEC4"
		},
		{
			"bufferView":5,
			"componentType":5123,
			"count":16,
			"normalized":true,
			"type":"VEC4"
		},
		{
			"bufferView":6,
			"componentType":5123,
			"count":16,
			"normalized":true,
			"type":"VEC4"
		},
		{
			"bufferView":7,
			"componentType":5123,
			"count":24,
			"type":"SCALAR"
		},
		{
			"bufferView":8,
			"componentType":5126,
			"count":2807,
			"max":[
				0.04803600162267685,
				0.09735815227031708,
				0.06626337766647339
			],
			"min":[
				-0.07681199908256531,
				-0.1017138659954071,
				-0.40810060501098633
			],
			"type":"VEC3"
		},
		{
			"bufferView":9,
			"componentType":5126,
			"count":2807,
			"type":"VEC3"
		},
		{
			"bufferView":10,
			"componentType":5126,
			"count":2807,
			"type":"VEC2"
		},
		{
			"bufferView":11,
			"componentType":5126,
			"count":2807,
			"type":"VEC2"
		},
		{
			"bufferView":12,
			"componentType":5126,
			"count":2807,
			"type":"VEC3"
		},
		{
			"bufferView":13,
			"componentType":5123,
			"count":2807,
			"normalized":true,
			"type":"VEC4"
		},
		{
			"bufferView":14,
			"componentType":5123,
			"count":2807,
			"normalized":true,
			"type":"VEC4"
		},
		{
			"bufferView":15,
			"componentType":5123,
			"count":13296,
			"type":"SCALAR"
		},
		{
			"bufferView":16,
			"componentType":5126,
			"count":24,
			"max":[
				0.016356000676751137,
				-0.03179784491658211,
				0.041444361209869385
			],
			"min":[
				-0.01633800007402897,
				-0.14047986268997192,
				-0.012682626023888588
			],
			"type":"VEC3"
		},
		{
			"bufferView":17,
			"componentType":5126,
			"count":24,
			"type":"VEC3"
		},
		{
			"bufferView":18,
			"componentType":5126,
			"count":24,
			"type":"VEC2"
		},
		{
			"bufferView":19,
			"componentType":5126,
			"count":24,
			"type":"VEC2"
		},
		{
			"bufferView":20,
			"componentType":5123,
			"count":24,
			"normalized":true,
			"type":"VEC4"
		},
		{
			"bufferView":21,
			"componentType":5123,
			"count":24,
			"normalized":true,
			"type":"VEC4"
		},
		{
			"bufferView":22,
			"componentType":5123,
			"count":24,
			"normalized":true,
			"type":"VEC4"
		},
		{
			"bufferView":23,
			"componentType":5123,
			"count":36,
			"type":"SCALAR"
		},
		{
			"bufferView":24,
			"componentType":5126,
			"count":439,
			"max":[
				0.016143999993801117,
				0.01322215422987938,
				0.0634123682975769
			],
			"min":[
				-0.01614299975335598,
				-0.14298786222934723,
				-0.08101162314414978
			],
			"type":"VEC3"
		},
		{
			"bufferView":25,
			"componentType":5126,
			"count":439,
			"type":"VEC3"
		},
		{
			"bufferView":26,
			"componentType":5126,
			"count":439,
			"type":"VEC2"
		},
		{
			"bufferView":27,
			"componentType":5126,
			"count":439,
			"type":"VEC2"
		},
		{
			"bufferView":28,
			"componentType":5126,
			"count":439,
			"type":"VEC3"
		},
		{
			"bufferView":29,
			"componentType":5123,
			"count":439,
			"normalized":true,
			"type":"VEC4"
		},
		{
			"bufferView":30,
			"componentType":5123,
			"count":439,
			"normalized":true,
			"type":"VEC4"
		},
		{
			"bufferView":31,
			"componentType":5123,
			"count":1968,
			"type":"SCALAR"
		},
		{
			"bufferView":32,
			"componentType":5126,
			"count":42,
			"max":[
				0.030326999723911285,
				0.18487313389778137,
				-0.12322263419628143
			],
			"min":[
				-0.022763000801205635,
				0.10997515916824341,
				-0.21411262452602386
			],
			"type":"VEC3"
		},
		{
			"bufferView":33,
			"componentType":5126,
			"count":42,
			"type":"VEC3"
		},
		{
			"bufferView":34,
			"componentType":5126,
			"count":42,
			"type":"VEC2"
		},
		{
			"bufferView":35,
			"componentType":5126,
			"count":42,
			"type":"VEC2"
		},
		{
			"bufferView":36,
			"componentType":5123,
			"count":42,
			"normalized":true,
			"type":"VEC4"
		},
		{
			"bufferView":37,
			"componentType":5123,
			"count":42,
			"normalized":true,
			"type":"VEC4"
		},
		{
			"bufferView":38,
			"componentType":5123,
			"count":42,
			"normalized":true,
			"type":"VEC4"
		},
		{
			"bufferView":39,
			"componentType":5123,
			"count":72,
			"type":"SCALAR"
		},
		{
			"bufferView":40,
			"componentType":5126,
			"count":134,
			"max":[
				0.041763998568058014,
				0.09894715249538422,
				0.5423774123191833
			],
			"min":[
				-0.041763998568058014,
				-0.14601586759090424,
				0.031072376295924187
			],
			"type":"VEC3"
		},
		{
			"bufferView":41,
			"componentType":5126,
			"count":134,
			"type":"VEC3"
		},
		{
			"bufferView":42,
			"componentType":5126,
			"count":134,
			"type":"VEC2"
		},
		{
			"bufferView":43,
			"componentType":5126,
			"count":134,
			"type":"VEC2"
		},
		{
			"bufferView":44,
			"componentType":5126,
			"count":134,
			"type":"VEC3"
		},
		{
			"bufferView":45,
			"componentType":5123,
			"count":134,
			"normalized":true,
			"type":"VEC4"
		},
		{
			"bufferView":46,
			"componentType":5123,
			"count":134,
			"normalized":true,
			"type":"VEC4"
		},
		{
			"bufferView":47,
			"componentType":5123,
			"count":768,
			"type":"SCALAR"
		},
		{
			"bufferView":48,
			"componentType":5126,
			"count":585,
			"max":[
				0.01242700032889843,
				0.16167312860488892,
				-0.16196562349796295
			],
			"min":[
				-0.01242700032889843,
				-0.059620846062898636,
				-0.21809162199497223
			],
			"type":"VEC3"
		},
		{
			"bufferView":49,
			"componentType":5126,
			"count":585,
			"type":"VEC3"
		},
		{
			"bufferView":50,
			"componentType":5126,
			"count":585,
			"type":"VEC2"
		},
		{
			"bufferView":51,
			"componentType":5126,
			"count":585,
			"type":"VEC2"
		},
		{
			"bufferView":52,
			"componentType":5126,
			"count":585,
			"type":"VEC3"
		},
		{
			"bufferView":53,
			"componentType":5123,
			"count":585,
			"normalized":true,
			"type":"VEC4"
		},
		{
			"bufferView":54,
			"componentType":5123,
			"count":1014,
			"type":"SCALAR"
		},
		{
			"bufferView":55,
			"componentType":5126,
			"count":57,
			"max":[
				0.01684200018644333,
				0.16770514845848083,
				-0.21715162694454193
			],
			"min":[
				-0.016874000430107117,
				0.133988156914711,
				-0.21940962970256805
			],
			"type":"VEC3"
		},
		{
			"bufferView":56,
			"componentType":5126,
			"count":57,
			"type":"VEC3"
		},
		{
			"bufferView":57,
			"componentType":5126,
			"count":57,
			"type":"VEC2"
		},
		{
			"bufferView":58,
			"componentType":5126,
			"count":57,
			"type":"VEC2"
		},
		{
			"bufferView":59,
			"componentType":5126,
			"count":57,
			"type":"VEC3"
		},
		{
			"bufferView":60,
			"componentType":5123,
			"count":57,
			"normalized":true,
			"type":"VEC4"
		},
		{
			"bufferView":61,
			"componentType":5123,
			"count":57,
			"normalized":true,
			"type":"VEC4"
		},
		{
			"bufferView":62,
			"componentType":5123,
			"count":162,
			"type":"SCALAR"
		},
		{
			"bufferView":63,
			"componentType":5126,
			"count":497,
			"max":[
				0.04882200062274933,
				0.20129212737083435,
				0.1529623419046402
			],
			"min":[
				-0.048875000327825546,
				0.13586115837097168,
				-0.18454961478710175
			],
			"type":"VEC3"
		},
		{
			"bufferView":64,
			"componentType":5126,
			"count":497,
			"type":"VEC3"
		},
		{
			"bufferView":65,
			"componentType":5126,
			"count":497,
			"type":"VEC2"
		},
		{
			"bufferView":66,
			"componentType":5126,
			"count":497,
			"type":"VEC2"
		},
		{
			"bufferView":67,
			"componentType":5126,
			"count":497,
			"type":"VEC3"
		},
		{
			"bufferView":68,
			"componentType":5123,
			"count":497,
			"normalized":true,
			"type":"VEC4"
		},
		{
			"bufferView":69,
			"componentType":5123,
			"count":497,
			"normalized":true,
			"type":"VEC4"
		},
		{
			"bufferView":70,
			"componentType":5123,
			"count":2454,
			"type":"SCALAR"
		},
		{
			"bufferView":71,
			"componentType":5126,
			"count":3090,
			"max":[
				0.05164499953389168,
				0.20963013172149658,
				0.16690336167812347
			],
			"min":[
				-0.04355499893426895,
				0.0970761626958847,
				-0.24425263702869415
			],
			"type":"VEC3"
		},
		{
			"bufferView":72,
			"componentType":5126,
			"count":3090,
			"type":"VEC3"
		},
		{
			"bufferView":73,
			"componentType":5126,
			"count":3090,
			"type":"VEC2"
		},
		{
			"bufferView":74,
			"componentType":5126,
			"count":3090,
			"type":"VEC2"
		},
		{
			"bufferView":75,
			"componentType":5126,
			"count":3090,
			"type":"VEC3"
		},
		{
			"bufferView":76,
			"componentType":5123,
			"count":3090,
			"normalized":true,
			"type":"VEC4"
		},
		{
			"bufferView":77,
			"componentType":5123,
			"count":3090,
			"normalized":true,
			"type":"VEC4"
		},
		{
			"bufferView":78,
			"componentType":5123,
			"count":13518,
			"type":"SCALAR"
		},
		{
			"bufferView":79,
			"componentType":5126,
			"count":2697,
			"max":[
				0.08119499683380127,
				0.1354401558637619,
				1.144227385520935
			],
			"min":[
				-0.08119499683380127,
				-0.004542846232652664,
				-0.3266535997390747
			],
			"type":"VEC3"
		},
		{
			"bufferView":80,
			"componentType":5126,
			"count":2697,
			"type":"VEC3"
		},
		{
			"bufferView":81,
			"componentType":5126,
			"count":2697,
			"type":"VEC2"
		},
		{
			"bufferView":82,
			"componentType":5126,
			"count":2697,
			"type":"VEC2"
		},
		{
			"bufferView":83,
			"componentType":5126,
			"count":2697,
			"type":"VEC3"
		},
		{
			"bufferView":84,
			"componentType":5123,
			"count":2697,
			"normalized":true,
			"type":"VEC4"
		},
		{
			"bufferView":85,
			"componentType":5123,
			"count":2697,
			"normalized":true,
			"type":"VEC4"
		},
		{
			"bufferView":86,
			"componentType":5123,
			"count":14304,
			"type":"SCALAR"
		},
		{
			"bufferView":87,
			"componentType":5126,
			"count":2032,
			"max":[
				0.03511999920010567,
				0.09736715257167816,
				1.1499533653259277
			],
			"min":[
				-0.03511999920010567,
				-0.06608185172080994,
				-0.09666162729263306
			],
			"type":"VEC3"
		},
		{
			"bufferView":88,
			"componentType":5126,
			"count":2032,
			"type":"VEC3"
		},
		{
			"bufferView":89,
			"componentType":5126,
			"count":2032,
			"type":"VEC2"
		},
		{
			"bufferView":90,
			"componentType":5126,
			"count":2032,
			"type":"VEC2"
		},
		{
			"bufferView":91,
			"componentType":5126,
			"count":2032,
			"type":"VEC3"
		},
		{
			"bufferView":92,
			"componentType":5123,
			"count":2032,
			"normalized":true,
			"type":"VEC4"
		},
		{
			"bufferView":93,
			"componentType":5123,
			"count":2032,
			"normalized":true,
			"type":"VEC4"
		},
		{
			"bufferView":94,
			"componentType":5123,
			"count":7455,
			"type":"SCALAR"
		},
		{
			"bufferView":95,
			"componentType":5126,
			"count":118,
			"max":[
				0.03705799952149391,
				0.120382159948349,
				-0.16002662479877472
			],
			"min":[
				-0.03705799952149391,
				0.04788815602660179,
				-0.32728463411331177
			],
			"type":"VEC3"
		},
		{
			"bufferView":96,
			"componentType":5126,
			"count":118,
			"type":"VEC3"
		},
		{
			"bufferView":97,
			"componentType":5126,
			"count":118,
			"type":"VEC2"
		},
		{
			"bufferView":98,
			"componentType":5126,
			"count":118,
			"type":"VEC2"
		},
		{
			"bufferView":99,
			"componentType":5126,
			"count":118,
			"type":"VEC3"
		},
		{
			"bufferView":100,
			"componentType":5123,
			"count":118,
			"normalized":true,
			"type":"VEC4"
		},
		{
			"bufferView":101,
			"componentType":5123,
			"count":118,
			"normalized":true,
			"type":"VEC4"
		},
		{
			"bufferView":102,
			"componentType":5123,
			"count":606,
			"type":"SCALAR"
		},
		{
			"bufferView":103,
			"componentType":5126,
			"count":900,
			"max":[
				0.040619999170303345,
				0.1043771505355835,
				0.3046903610229492
			],
			"min":[
				-0.040619999170303345,
				-0.028617847710847855,
				-0.09436263144016266
			],
			"type":"VEC3"
		},
		{
			"bufferView":104,
			"componentType":5126,
			"count":900,
			"type":"VEC3"
		},
		{
			"bufferView":105,
			"componentType":5126,
			"count":900,
			"type":"VEC2"
		},
		{
			"bufferView":106,
			"componentType":5126,
			"count":900,
			"type":"VEC2"
		},
		{
			"bufferView":107,
			"componentType":5126,
			"count":900,
			"type":"VEC3"
		},
		{
			"bufferView":108,
			"componentType":5123,
			"count":900,
			"normalized":true,
			"type":"VEC4"
		},
		{
			"bufferView":109,
			"componentType":5123,
			"count":900,
			"normalized":true,
			"type":"VEC4"
		},
		{
			"bufferView":110,
			"componentType":5123,
			"count":4326,
			"type":"SCALAR"
		},
		{
			"bufferView":111,
			"componentType":5126,
			"count":977,
			"max":[
				0.03655099868774414,
				0.1008901596069336,
				-0.2314116209745407
			],
			"min":[
				-0.03655099868774414,
				-0.08656485378742218,
				-0.4449766278266907
			],
			"type":"VEC3"
		},
		{
			"bufferView":112,
			"componentType":5126,
			"count":977,
			"type":"VEC3"
		},
		{
			"bufferView":113,
			"componentType":5126,
			"count":977,
			"type":"VEC2"
		},
		{
			"bufferView":114,
			"componentType":5126,
			"count":977,
			"type":"VEC2"
		},
		{
			"bufferView":115,
			"componentType":5126,
			"count":977,
			"type":"VEC3"
		},
		{
			"bufferView":116,
			"componentType":5123,
			"count":977,
			"normalized":true,
			"type":"VEC4"
		},
		{
			"bufferView":117,
			"componentType":5123,
			"count":977,
			"normalized":true,
			"type":"VEC4"
		},
		{
			"bufferView":118,
			"componentType":5123,
			"count":4404,
			"type":"SCALAR"
		},
		{
			"bufferView":119,
			"componentType":5126,
			"count":146,
			"max":[
				0.043501999229192734,
				0.19437214732170105,
				0.15801934897899628
			],
			"min":[
				-0.04355499893426895,
				0.10731515288352966,
				-0.025725627318024635
			],
			"type":"VEC3"
		},
		{
			"bufferView":120,
			"componentType":5126,
			"count":146,
			"type":"VEC3"
		},
		{
			"bufferView":121,
			"componentType":5126,
			"count":146,
			"type":"VEC2"
		},
		{
			"bufferView":122,
			"componentType":5126,
			"count":146,
			"type":"VEC2"
		},
		{
			"bufferView":123,
			"componentType":5126,
			"count":146,
			"type":"VEC3"
		},
		{
			"bufferView":124,
			"componentType":5123,
			"count":146,
			"normalized":true,
			"type":"VEC4"
		},
		{
			"bufferView":125,
			"componentType":5123,
			"count":146,
			"normalized":true,
			"type":"VEC4"
		},
		{
			"bufferView":126,
			"componentType":5123,
			"count":576,
			"type":"SCALAR"
		},
		{
			"bufferView":127,
			"componentType":5126,
			"count":574,
			"max":[
				0.03062799945473671,
				0.18163013458251953,
				0.15827636420726776
			],
			"min":[
				-0.030625000596046448,
				0.12037715315818787,
				-0.22443361580371857
			],
			"type":"VEC3"
		},
		{
			"bufferView":128,
			"componentType":5126,
			"count":574,
			"type":"VEC3"
		},
		{
			"bufferView":129,
			"componentType":5126,
			"count":574,
			"type":"VEC2"
		},
		{
			"bufferView":130,
			"componentType":5126,
			"count":574,
			"type":"VEC2"
		},
		{
			"bufferView":131,
			"componentType":5126,
			"count":574,
			"type":"VEC3"
		},
		{
			"bufferView":132,
			"componentType":5123,
			"count":574,
			"normalized":true,
			"type":"VEC4"
		},
		{
			"bufferView":133,
			"componentType":5123,
			"count":574,
			"normalized":true,
			"type":"VEC4"
		},
		{
			"bufferView":134,
			"componentType":5123,
			"count":2796,
			"type":"SCALAR"
		}
	],
	"bufferViews":[
		{
			"buffer":0,
			"byteLength":192,
			"byteOffset":0,
			"target":34962
		},
		{
			"buffer":0,
			"byteLength":192,
			"byteOffset":192,
			"target":34962
		},
		{
			"buffer":0,
			"byteLength":128,
			"byteOffset":384,
			"target":34962
		},
		{
			"buffer":0,
			"byteLength":128,
			"byteOffset":512,
			"target":34962
		},
		{
			"buffer":0,
			"byteLength":128,
			"byteOffset":640,
			"target":34962
		},
		{
			"buffer":0,
			"byteLength":128,
			"byteOffset":768,
			"target":34962
		},
		{
			"buffer":0,
			"byteLength":128,
			"byteOffset":896,
			"target":34962
		},
		{
			"buffer":0,
			"byteLength":48,
			"byteOffset":1024,
			"target":34963
		},
		{
			"buffer":0,
			"byteLength":33684,
			"byteOffset":1072,
			"target":34962
		},
		{
			"buffer":0,
			"byteLength":33684,
			"byteOffset":34756,
			"target":34962
		},
		{
			"buffer":0,
			"byteLength":22456,
			"byteOffset":68440,
			"target":34962
		},
		{
			"buffer":0,
			"byteLength":22456,
			"byteOffset":90896,
			"target":34962
		},
		{
			"buffer":0,
			"byteLength":33684,
			"byteOffset":113352,
			"target":34962
		},
		{
			"buffer":0,
			"byteLength":22456,
			"byteOffset":147036,
			"target":34962
		},
		{
			"buffer":0,
			"byteLength":22456,
			"byteOffset":169492,
			"target":34962
		},
		{
			"buffer":0,
			"byteLength":26592,
			"byteOffset":191948,
			"target":34963
		},
		{
			"buffer":0,
			"byteLength":288,
			"byteOffset":218540,
			"target":34962
		},
		{
			"buffer":0,
			"byteLength":288,
			"byteOffset":218828,
			"target":34962
		},
		{
			"buffer":0,
			"byteLength":192,
			"byteOffset":219116,
			"target":34962
		},
		{
			"buffer":0,
			"byteLength":192,
			"byteOffset":219308,
			"target":34962
		},
		{
			"buffer":0,
			"byteLength":192,
			"byteOffset":219500,
			"target":34962
		},
		{
			"buffer":0,
			"byteLength":192,
			"byteOffset":219692,
			"target":34962
		},
		{
			"buffer":0,
			"byteLength":192,
			"byteOffset":219884,
			"target":34962
		},
		{
			"buffer":0,
			"byteLength":72,
			"byteOffset":220076,
			"target":34963
		},
		{
			"buffer":0,
			"byteLength":5268,
			"byteOffset":220148,
			"target":34962
		},
		{
			"buffer":0,
			"byteLength":5268,
			"byteOffset":225416,
			"target":34962
		},
		{
			"buffer":0,
			"byteLength":3512,
			"byteOffset":230684,
			"target":34962
		},
		{
			"buffer":0,
			"byteLength":3512,
			"byteOffset":234196,
			"target":34962
		},
		{
			"buffer":0,
			"byteLength":5268,
			"byteOffset":237708,
			"target":34962
		},
		{
			"buffer":0,
			"byteLength":3512,
			"byteOffset":242976,
			"target":34962
		},
		{
			"buffer":0,
			"byteLength":3512,
			"byteOffset":246488,
			"target":34962
		},
		{
			"buffer":0,
			"byteLength":3936,
			"byteOffset":250000,
			"target":34963
		},
		{
			"buffer":0,
			"byteLength":504,
			"byteOffset":253936,
			"target":34962
		},
		{
			"buffer":0,
			"byteLength":504,
			"byteOffset":254440,
			"target":34962
		},
		{
			"buffer":0,
			"byteLength":336,
			"byteOffset":254944,
			"target":34962
		},
		{
			"buffer":0,
			"byteLength":336,
			"byteOffset":255280,
			"target":34962
		},
		{
			"buffer":0,
			"byteLength":336,
			"byteOffset":255616,
			"target":34962
		},
		{
			"buffer":0,
			"byteLength":336,
			"byteOffset":255952,
			"target":34962
		},
		{
			"buffer":0,
			"byteLength":336,
			"byteOffset":256288,
			"target":34962
		},
		{
			"buffer":0,
			"byteLength":144,
			"byteOffset":256624,
			"target":34963
		},
		{
			"buffer":0,
			"byteLength":1608,
			"byteOffset":256768,
			"target":34962
		},
		{
			"buffer":0,
			"byteLength":1608,
			"byteOffset":258376,
			"target":34962
		},
		{
			"buffer":0,
			"byteLength":1072,
			"byteOffset":259984,
			"target":34962
		},
		{
			"buffer":0,
			"byteLength":1072,
			"byteOffset":261056,
			"target":34962
		},
		{
			"buffer":0,
			"byteLength":1608,
			"byteOffset":262128,
			"target":34962
		},
		{
			"buffer":0,
			"byteLength":1072,
			"byteOffset":263736,
			"target":34962
		},
		{
			"buffer":0,
			"byteLength":1072,
			"byteOffset":264808,
			"target":34962
		},
		{
			"buffer":0,
			"byteLength":1536,
			"byteOffset":265880,
			"target":34963
		},
		{
			"buffer":0,
			"byteLength":7020,
			"byteOffset":267416,
			"target":34962
		},
		{
			"buffer":0,
			"byteLength":7020,
			"byteOffset":274436,
			"target":34962
		},
		{
			"buffer":0,
			"byteLength":4680,
			"byteOffset":281456,
			"target":34962
		},
		{
			"buffer":0,
			"byteLength":4680,
			"byteOffset":286136,
			"target":34962
		},
		{
			"buffer":0,
			"byteLength":7020,
			"byteOffset":290816,
			"target":34962
		},
		{
			"buffer":0,
			"byteLength":4680,
			"byteOffset":297836,
			"target":34962
		},
		{
			"buffer":0,
			"byteLength":2028,
			"byteOffset":302516,
			"target":34963
		},
		{
			"buffer":0,
			"byteLength":684,
			"byteOffset":304544,
			"target":34962
		},
		{
			"buffer":0,
			"byteLength":684,
			"byteOffset":305228,
			"target":34962
		},
		{
			"buffer":0,
			"byteLength":456,
			"byteOffset":305912,
			"target":34962
		},
		{
			"buffer":0,
			"byteLength":456,
			"byteOffset":306368,
			"target":34962
		},
		{
			"buffer":0,
			"byteLength":684,
			"byteOffset":306824,
			"target":34962
		},
		{
			"buffer":0,
			"byteLength":456,
			"byteOffset":307508,
			"target":34962
		},
		{
			"buffer":0,
			"byteLength":456,
			"byteOffset":307964,
			"target":34962
		},
		{
			"buffer":0,
			"byteLength":324,
			"byteOffset":308420,
			"target":34963
		},
		{
			"buffer":0,
			"byteLength":5964,
			"byteOffset":308744,
			"target":34962
		},
		{
			"buffer":0,
			"byteLength":5964,
			"byteOffset":314708,
			"target":34962
		},
		{
			"buffer":0,
			"byteLength":3976,
			"byteOffset":320672,
			"target":34962
		},
		{
			"buffer":0,
			"byteLength":3976,
			"byteOffset":324648,
			"target":34962
		},
		{
			"buffer":0,
			"byteLength":5964,
			"byteOffset":328624,
			"target":34962
		},
		{
			"buffer":0,
			"byteLength":3976,
			"byteOffset":334588,
			"target":34962
		},
		{
			"buffer":0,
			"byteLength":3976,
			"byteOffset":338564,
			"target":34962
		},
		{
			"buffer":0,
			"byteLength":4908,
			"byteOffset":342540,
			"target":34963
		},
		{
			"buffer":0,
			"byteLength":37080,
			"byteOffset":347448,
			"target":34962
		},
		{
			"buffer":0,
			"byteLength":37080,
			"byteOffset":384528,
			"target":34962
		},
		{
			"buffer":0,
			"byteLength":24720,
			"byteOffset":421608,
			"target":34962
		},
		{
			"buffer":0,
			"byteLength":24720,
			"byteOffset":446328,
			"target":34962
		},
		{
			"buffer":0,
			"byteLength":37080,
			"byteOffset":471048,
			"target":34962
		},
		{
			"buffer":0,
			"byteLength":24720,
			"byteOffset":508128,
			"target":34962
		},
		{
			"buffer":0,
			"byteLength":24720,
			"byteOffset":532848,
			"target":34962
		},
		{
			"buffer":0,
			"byteLength":27036,
			"byteOffset":557568,
			"target":34963
		},
		{
			"buffer":0,
			"byteLength":32364,
			"byteOffset":584604,
			"target":34962
		},
		{
			"buffer":0,
			"byteLength":32364,
			"byteOffset":616968,
			"target":34962
		},
		{
			"buffer":0,
			"byteLength":21576,
			"byteOffset":649332,
			"target":34962
		},
		{
			"buffer":0,
			"byteLength":21576,
			"byteOffset":670908,
			"target":34962
		},
		{
			"buffer":0,
			"byteLength":32364,
			"byteOffset":692484,
			"target":34962
		},
		{
			"buffer":0,
			"byteLength":21576,
			"byteOffset":724848,
			"target":34962
		},
		{
			"buffer":0,
			"byteLength":21576,
			"byteOffset":746424,
			"target":34962
		},
		{
			"buffer":0,
			"byteLength":28608,
			"byteOffset":768000,
			"target":34963
		},
		{
			"buffer":0,
			"byteLength":24384,
			"byteOffset":796608,
			"target":34962
		},
		{
			"buffer":0,
			"byteLength":24384,
			"byteOffset":820992,
			"target":34962
		},
		{
			"buffer":0,
			"byteLength":16256,
			"byteOffset":845376,
			"target":34962
		},
		{
			"buffer":0,
			"byteLength":16256,
			"byteOffset":861632,
			"target":34962
		},
		{
			"buffer":0,
			"byteLength":24384,
			"byteOffset":877888,
			"target":34962
		},
		{
			"buffer":0,
			"byteLength":16256,
			"byteOffset":902272,
			"target":34962
		},
		{
			"buffer":0,
			"byteLength":16256,
			"byteOffset":918528,
			"target":34962
		},
		{
			"buffer":0,
			"byteLength":14910,
			"byteOffset":934784,
			"target":34963
		},
		{
			"buffer":0,
			"byteLength":1416,
			"byteOffset":949696,
			"target":34962
		},
		{
			"buffer":0,
			"byteLength":1416,
			"byteOffset":951112,
			"target":34962
		},
		{
			"buffer":0,
			"byteLength":944,
			"byteOffset":952528,
			"target":34962
		},
		{
			"buffer":0,
			"byteLength":944,
			"byteOffset":953472,
			"target":34962
		},
		{
			"buffer":0,
			"byteLength":1416,
			"byteOffset":954416,
			"target":34962
		},
		{
			"buffer":0,
			"byteLength":944,
			"byteOffset":955832,
			"target":34962
		},
		{
			"buffer":0,
			"byteLength":944,
			"byteOffset":956776,
			"target":34962
		},
		{
			"buffer":0,
			"byteLength":1212,
			"byteOffset":957720,
			"target":34963
		},
		{
			"buffer":0,
			"byteLength":10800,
			"byteOffset":958932,
			"target":34962
		},
		{
			"buffer":0,
			"byteLength":10800,
			"byteOffset":969732,
			"target":34962
		},
		{
			"buffer":0,
			"byteLength":7200,
			"byteOffset":980532,
			"target":34962
		},
		{
			"buffer":0,
			"byteLength":7200,
			"byteOffset":987732,
			"target":34962
		},
		{
			"buffer":0,
			"byteLength":10800,
			"byteOffset":994932,
			"target":34962
		},
		{
			"buffer":0,
			"byteLength":7200,
			"byteOffset":1005732,
			"target":34962
		},
		{
			"buffer":0,
			"byteLength":7200,
			"byteOffset":1012932,
			"target":34962
		},
		{
			"buffer":0,
			"byteLength":8652,
			"byteOffset":1020132,
			"target":34963
		},
		{
			"buffer":0,
			"byteLength":11724,
			"byteOffset":1028784,
			"target":34962
		},
		{
			"buffer":0,
			"byteLength":11724,
			"byteOffset":1040508,
			"target":34962
		},
		{
			"buffer":0,
			"byteLength":7816,
			"byteOffset":1052232,
			"target":34962
		},
		{
			"buffer":0,
			"byteLength":7816,
			"byteOffset":1060048,
			"target":34962
		},
		{
			"buffer":0,
			"byteLength":11724,
			"byteOffset":1067864,
			"target":34962
		},
		{
			"buffer":0,
			"byteLength":7816,
			"byteOffset":1079588,
			"target":34962
		},
		{
			"buffer":0,
			"byteLength":7816,
			"byteOffset":1087404,
			"target":34962
		},
		{
			"buffer":0,
			"byteLength":8808,
			"byteOffset":1095220,
			"target":34963
		},
		{
			"buffer":0,
			"byteLength":1752,
			"byteOffset":1104028,
			"target":34962
		},
		{
			"buffer":0,
			"byteLength":1752,
			"byteOffset":1105780,
			"target":34962
		},
		{
			"buffer":0,
			"byteLength":1168,
			"byteOffset":1107532,
			"target":34962
		},
		{
			"buffer":0,
			"byteLength":1168,
			"byteOffset":1108700,
			"target":34962
		},
		{
			"buffer":0,
			"byteLength":1752,
			"byteOffset":1109868,
			"target":34962
		},
		{
			"buffer":0,
			"byteLength":1168,
			"byteOffset":1111620,
			"target":34962
		},
		{
			"buffer":0,
			"byteLength":1168,
			"byteOffset":1112788,
			"target":34962
		},
		{
			"buffer":0,
			"byteLength":1152,
			"byteOffset":1113956,
			"target":34963
		},
		{
			"buffer":0,
			"byteLength":6888,
			"byteOffset":1115108,
			"target":34962
		},
		{
			"buffer":0,
			"byteLength":6888,
			"byteOffset":1121996,
			"target":34962
		},
		{
			"buffer":0,
			"byteLength":4592,
			"byteOffset":1128884,
			"target":34962
		},
		{
			"buffer":0,
			"byteLength":4592,
			"byteOffset":1133476,
			"target":34962
		},
		{
			"buffer":0,
			"byteLength":6888,
			"byteOffset":1138068,
			"target":34962
		},
		{
			"buffer":0,
			"byteLength":4592,
			"byteOffset":1144956,
			"target":34962
		},
		{
			"buffer":0,
			"byteLength":4592,
			"byteOffset":1149548,
			"target":34962
		},
		{
			"buffer":0,
			"byteLength":5592,
			"byteOffset":1154140,
			"target":34963
		}
	],
	"samplers":[
		{
			"magFilter":9729,
			"minFilter":9987
		}
	],
	"buffers":[
		{
			"byteLength":1159732,
			"uri":"BlackSpindle.bin"
		}
	]
}
