{
	"asset":{
		"generator":"Khronos glTF Blender I/O v5.0.21",
		"version":"2.0"
	},
	"extensionsUsed":[
		"KHR_materials_specular"
	],
	"scene":0,
	"scenes":[
		{
			"name":"Scene",
			"nodes":[
				0,
				1,
				2,
				3,
				4,
				5,
				6,
				7,
				8,
				9,
				10,
				11,
				12,
				13,
				14,
				15,
				16,
				17,
				18,
				19
			]
		}
	],
	"nodes":[
		{
			"mesh":0,
			"name":"Object_11",
			"rotation":[
				-0.0017474881606176496,
				0,
				0,
				1
			]
		},
		{
			"mesh":1,
			"name":"Object_16",
			"rotation":[
				-0.0017474881606176496,
				0,
				0,
				1
			]
		},
		{
			"mesh":2,
			"name":"Object_18",
			"rotation":[
				-0.0017474881606176496,
				0,
				0,
				1
			]
		},
		{
			"mesh":3,
			"name":"Object_22",
			"rotation":[
				-0.0017474881606176496,
				0,
				0,
				1
			]
		},
		{
			"mesh":4,
			"name":"Object_24",
			"rotation":[
				-0.0017474881606176496,
				0,
				0,
				1
			]
		},
		{
			"mesh":5,
			"name":"Object_26",
			"rotation":[
				-0.0017474881606176496,
				0,
				0,
				1
			]
		},
		{
			"mesh":6,
			"name":"Object_28",
			"rotation":[
				-0.0017474881606176496,
				0,
				0,
				1
			]
		},
		{
			"mesh":7,
			"name":"Object_30",
			"rotation":[
				-0.0017474881606176496,
				0,
				0,
				1
			]
		},
		{
			"mesh":8,
			"name":"Object_32",
			"rotation":[
				-0.0017474881606176496,
				0,
				0,
				1
			]
		},
		{
			"mesh":9,
			"name":"Object_34",
			"rotation":[
				-0.0017474881606176496,
				0,
				0,
				1
			]
		},
		{
			"mesh":10,
			"name":"Object_4",
			"rotation":[
				-0.0017474881606176496,
				0,
				0,
				1
			]
		},
		{
			"mesh":11,
			"name":"Object_42",
			"rotation":[
				-0.0017474881606176496,
				0,
				0,
				1
			]
		},
		{
			"mesh":12,
			"name":"Object_44",
			"rotation":[
				-0.0017474881606176496,
				0,
				0,
				1
			]
		},
		{
			"mesh":13,
			"name":"Object_46",
			"rotation":[
				-0.0017474881606176496,
				0,
				0,
				1
			]
		},
		{
			"mesh":14,
			"name":"Object_48",
			"rotation":[
				-0.0017474881606176496,
				0,
				0,
				1
			]
		},
		{
			"mesh":15,
			"name":"Object_6",
			"rotation":[
				-0.0017474881606176496,
				0,
				0,
				1
			]
		},
		{
			"mesh":16,
			"name":"Object_82",
			"rotation":[
				-0.0017474881606176496,
				0,
				0,
				1
			]
		},
		{
			"mesh":17,
			"name":"Object_92",
			"rotation":[
				-0.0017474881606176496,
				0,
				0,
				1
			]
		},
		{
			"mesh":18,
			"name":"Object_94",
			"rotation":[
				-0.0017474881606176496,
				0,
				0,
				1
			]
		},
		{
			"mesh":19,
			"name":"Object_96",
			"rotation":[
				-0.0017474881606176496,
				0,
				0,
				1
			]
		}
	],
	"materials":[
		{
			"doubleSided":true,
			"extensions":{
				"KHR_materials_specular":{
					"specularFactor":0
				}
			},
			"name":"Mat 2",
			"pbrMetallicRoughness":{
				"baseColorTexture":{
					"index":0
				},
				"metallicFactor":0
			}
		},
		{
			"doubleSided":true,
			"extensions":{
				"KHR_materials_specular":{
					"specularFactor":0
				}
			},
			"name":"Mat 1",
			"pbrMetallicRoughness":{
				"baseColorTexture":{
					"index":1
				},
				"metallicFactor":0
			}
		},
		{
			"doubleSided":true,
			"extensions":{
				"KHR_materials_specular":{
					"specularFactor":0
				}
			},
			"name":"Mat 4",
			"pbrMetallicRoughness":{
				"baseColorTexture":{
					"index":2
				},
				"metallicFactor":0
			}
		},
		{
			"doubleSided":true,
			"extensions":{
				"KHR_materials_specular":{
					"specularFactor":0
				}
			},
			"name":"Mat 3",
			"pbrMetallicRoughness":{
				"baseColorFactor":[
					0.800000011920929,
					0.800000011920929,
					0.800000011920929,
					1
				],
				"metallicFactor":0
			}
		},
		{
			"doubleSided":true,
			"extensions":{
				"KHR_materials_specular":{
					"specularFactor":0
				}
			},
			"name":"Mat 5",
			"pbrMetallicRoughness":{
				"baseColorTexture":{
					"index":3
				},
				"metallicFactor":0
			}
		}
	],
	"meshes":[
		{
			"name":"Object_11",
			"primitives":[
				{
					"attributes":{
						"POSITION":0,
						"NORMAL":1,
						"TEXCOORD_0":2
					},
					"indices":3,
					"material":0
				}
			]
		},
		{
			"name":"Object_16",
			"primitives":[
				{
					"attributes":{
						"POSITION":4,
						"NORMAL":5,
						"TEXCOORD_0":6
					},
					"indices":7,
					"material":0
				}
			]
		},
		{
			"name":"Object_18",
			"primitives":[
				{
					"attributes":{
						"POSITION":8,
						"NORMAL":9,
						"TEXCOORD_0":10
					},
					"indices":11,
					"material":1
				}
			]
		},
		{
			"name":"Object_22",
			"primitives":[
				{
					"attributes":{
						"POSITION":12,
						"NORMAL":13,
						"TEXCOORD_0":14
					},
					"indices":15,
					"material":2
				}
			]
		},
		{
			"name":"Object_24",
			"primitives":[
				{
					"attributes":{
						"POSITION":16,
						"NORMAL":17,
						"TEXCOORD_0":18
					},
					"indices":19,
					"material":0
				}
			]
		},
		{
			"name":"Object_26",
			"primitives":[
				{
					"attributes":{
						"POSITION":20,
						"NORMAL":21,
						"TEXCOORD_0":22
					},
					"indices":23,
					"material":2
				}
			]
		},
		{
			"name":"Object_28",
			"primitives":[
				{
					"attributes":{
						"POSITION":24,
						"NORMAL":25,
						"TEXCOORD_0":26
					},
					"indices":27,
					"material":3
				}
			]
		},
		{
			"name":"Object_30",
			"primitives":[
				{
					"attributes":{
						"POSITION":28,
						"NORMAL":29,
						"TEXCOORD_0":30
					},
					"indices":31,
					"material":2
				}
			]
		},
		{
			"name":"Object_32",
			"primitives":[
				{
					"attributes":{
						"POSITION":32,
						"NORMAL":33,
						"TEXCOORD_0":34
					},
					"indices":19,
					"material":0
				}
			]
		},
		{
			"name":"Object_34",
			"primitives":[
				{
					"attributes":{
						"POSITION":35,
						"NORMAL":36,
						"TEXCOORD_0":37
					},
					"indices":38,
					"material":0
				}
			]
		},
		{
			"name":"Object_4",
			"primitives":[
				{
					"attributes":{
						"POSITION":39,
						"NORMAL":40,
						"TEXCOORD_0":41
					},
					"indices":42,
					"material":1
				}
			]
		},
		{
			"name":"Object_42",
			"primitives":[
				{
					"attributes":{
						"POSITION":43,
						"NORMAL":44,
						"TEXCOORD_0":45
					},
					"indices":46,
					"material":0
				}
			]
		},
		{
			"name":"Object_44",
			"primitives":[
				{
					"attributes":{
						"POSITION":47,
						"NORMAL":48,
						"TEXCOORD_0":49
					},
					"indices":50,
					"material":1
				}
			]
		},
		{
			"name":"Object_46",
			"primitives":[
				{
					"attributes":{
						"POSITION":51,
						"NORMAL":52,
						"TEXCOORD_0":53
					},
					"indices":50,
					"material":1
				}
			]
		},
		{
			"name":"Object_48",
			"primitives":[
				{
					"attributes":{
						"POSITION":54,
						"NORMAL":55,
						"TEXCOORD_0":56
					},
					"indices":50,
					"material":1
				}
			]
		},
		{
			"name":"Object_6",
			"primitives":[
				{
					"attributes":{
						"POSITION":57,
						"NORMAL":58,
						"TEXCOORD_0":59
					},
					"indices":50,
					"material":1
				}
			]
		},
		{
			"name":"Object_82",
			"primitives":[
				{
					"attributes":{
						"POSITION":60,
						"NORMAL":61,
						"TEXCOORD_0":62
					},
					"indices":63,
					"material":2
				}
			]
		},
		{
			"name":"Object_92",
			"primitives":[
				{
					"attributes":{
						"POSITION":64,
						"NORMAL":65,
						"TEXCOORD_0":66
					},
					"indices":67,
					"material":4
				}
			]
		},
		{
			"name":"Object_94",
			"primitives":[
				{
					"attributes":{
						"POSITION":68,
						"NORMAL":69,
						"TEXCOORD_0":70
					},
					"indices":71,
					"material":0
				}
			]
		},
		{
			"name":"Object_96",
			"primitives":[
				{
					"attributes":{
						"POSITION":72,
						"NORMAL":73,
						"TEXCOORD_0":74
					},
					"indices":75,
					"material":0
				}
			]
		}
	],
	"textures":[
		{
			"sampler":0,
			"source":0
		},
		{
			"sampler":0,
			"source":1
		},
		{
			"sampler":0,
			"source":2
		},
		{
			"sampler":0,
			"source":1
		}
	],
	"images":[
		{
			"mimeType":"image/jpeg",
			"name":"Picsart_25-03-29_12-51-49-394",
			"uri":"Picsart_25-03-29_12-51-49-394.jpg"
		},
		{
			"mimeType":"image/jpeg",
			"name":"Picsart_25-03-29_12-49-56-870",
			"uri":"Picsart_25-03-29_12-49-56-870.jpg"
		},
		{
			"mimeType":"image/jpeg",
			"name":"Picsart_25-03-29_12-50-52-063",
			"uri":"Picsart_25-03-29_12-50-52-063.jpg"
		}
	],
	"accessors":[
		{
			"bufferView":0,
			"componentType":5126,
			"count":6480,
			"max":[
				0.39835378527641296,
				0.867111086845398,
				0.39835110306739807
			],
			"min":[
				-0.39835330843925476,
				0.6938285827636719,
				-0.3983556926250458
			],
			"type":"VEC3"
		},
		{
			"bufferView":1,
			"componentType":5126,
			"count":6480,
			"type":"VEC3"
		},
		{
			"bufferView":2,
			"componentType":5126,
			"count":6480,
			"type":"VEC2"
		},
		{
			"bufferView":3,
			"componentType":5123,
			"count":6480,
			"type":"SCALAR"
		},
		{
			"bufferView":4,
			"componentType":5126,
			"count":324,
			"max":[
				0.7071065902709961,
				0.8232557773590088,
				0.10838410258293152
			],
			"min":[
				-0.7071068286895752,
				0.6987966895103455,
				-0.1083872988820076
			],
			"type":"VEC3"
		},
		{
			"bufferView":5,
			"componentType":5126,
			"count":324,
			"type":"VEC3"
		},
		{
			"bufferView":6,
			"componentType":5126,
			"count":324,
			"type":"VEC2"
		},
		{
			"bufferView":7,
			"componentType":5123,
			"count":324,
			"type":"SCALAR"
		},
		{
			"bufferView":8,
			"componentType":5126,
			"count":1308,
			"max":[
				1.123252034187317,
				0.38466310501098633,
				0.08457519859075546
			],
			"min":[
				-1.123252034187317,
				-0.10496839880943298,
				-0.08458005636930466
			],
			"type":"VEC3"
		},
		{
			"bufferView":9,
			"componentType":5126,
			"count":1308,
			"type":"VEC3"
		},
		{
			"bufferView":10,
			"componentType":5126,
			"count":1308,
			"type":"VEC2"
		},
		{
			"bufferView":11,
			"componentType":5123,
			"count":1308,
			"type":"SCALAR"
		},
		{
			"bufferView":12,
			"componentType":5126,
			"count":108,
			"max":[
				0.08393415063619614,
				0.8668373823165894,
				0.5442143082618713
			],
			"min":[
				-0.08393415063619614,
				0.8323628902435303,
				0.49752119183540344
			],
			"type":"VEC3"
		},
		{
			"bufferView":13,
			"componentType":5126,
			"count":108,
			"type":"VEC3"
		},
		{
			"bufferView":14,
			"componentType":5126,
			"count":108,
			"type":"VEC2"
		},
		{
			"bufferView":15,
			"componentType":5123,
			"count":108,
			"type":"SCALAR"
		},
		{
			"bufferView":16,
			"componentType":5126,
			"count":576,
			"max":[
				0.16011729836463928,
				0.8154296278953552,
				0.1765912026166916
			],
			"min":[
				-0.160117506980896,
				0.7934191823005676,
				-0.17517560720443726
			],
			"type":"VEC3"
		},
		{
			"bufferView":17,
			"componentType":5126,
			"count":576,
			"type":"VEC3"
		},
		{
			"bufferView":18,
			"componentType":5126,
			"count":576,
			"type":"VEC2"
		},
		{
			"bufferView":19,
			"componentType":5123,
			"count":576,
			"type":"SCALAR"
		},
		{
			"bufferView":20,
			"componentType":5126,
			"count":3768,
			"max":[
				0.14505979418754578,
				0.8131083846092224,
				0.14505769312381744
			],
			"min":[
				-0.1450600028038025,
				0.7386487722396851,
				-0.14506059885025024
			],
			"type":"VEC3"
		},
		{
			"bufferView":21,
			"componentType":5126,
			"count":3768,
			"type":"VEC3"
		},
		{
			"bufferView":22,
			"componentType":5126,
			"count":3768,
			"type":"VEC2"
		},
		{
			"bufferView":23,
			"componentType":5123,
			"count":3768,
			"type":"SCALAR"
		},
		{
			"bufferView":24,
			"componentType":5126,
			"count":1584,
			"max":[
				0.09263516962528229,
				0.8069317936897278,
				0.11922570317983627
			],
			"min":[
				-0.09263520687818527,
				0.7796080112457275,
				-0.11922819912433624
			],
			"type":"VEC3"
		},
		{
			"bufferView":25,
			"componentType":5126,
			"count":1584,
			"type":"VEC3"
		},
		{
			"bufferView":26,
			"componentType":5126,
			"count":1584,
			"type":"VEC2"
		},
		{
			"bufferView":27,
			"componentType":5123,
			"count":1584,
			"type":"SCALAR"
		},
		{
			"bufferView":28,
			"componentType":5126,
			"count":372,
			"max":[
				0.30723848938941956,
				0.805060088634491,
				0.307235985994339
			],
			"min":[
				-0.30723869800567627,
				0.6789659857749939,
				-0.307238906621933
			],
			"type":"VEC3"
		},
		{
			"bufferView":29,
			"componentType":5126,
			"count":372,
			"type":"VEC3"
		},
		{
			"bufferView":30,
			"componentType":5126,
			"count":372,
			"type":"VEC2"
		},
		{
			"bufferView":31,
			"componentType":5123,
			"count":372,
			"type":"SCALAR"
		},
		{
			"bufferView":32,
			"componentType":5126,
			"count":576,
			"max":[
				0.46347561478614807,
				0.8775345087051392,
				0.4634738862514496
			],
			"min":[
				-0.4634757936000824,
				0.6789659857749939,
				-0.46347668766975403
			],
			"type":"VEC3"
		},
		{
			"bufferView":33,
			"componentType":5126,
			"count":576,
			"type":"VEC3"
		},
		{
			"bufferView":34,
			"componentType":5126,
			"count":576,
			"type":"VEC2"
		},
		{
			"bufferView":35,
			"componentType":5126,
			"count":1872,
			"max":[
				1.0717799663543701,
				0.40694040060043335,
				0.07521697878837585
			],
			"min":[
				-1.0717799663543701,
				0.36812278628349304,
				-0.07522183656692505
			],
			"type":"VEC3"
		},
		{
			"bufferView":36,
			"componentType":5126,
			"count":1872,
			"type":"VEC3"
		},
		{
			"bufferView":37,
			"componentType":5126,
			"count":1872,
			"type":"VEC2"
		},
		{
			"bufferView":38,
			"componentType":5123,
			"count":1872,
			"type":"SCALAR"
		},
		{
			"bufferView":39,
			"componentType":5126,
			"count":4560,
			"max":[
				0.9999994039535522,
				0.9233462810516357,
				0.9999974966049194
			],
			"min":[
				-0.9999994039535522,
				-0.9238799810409546,
				-1
			],
			"type":"VEC3"
		},
		{
			"bufferView":40,
			"componentType":5126,
			"count":4560,
			"type":"VEC3"
		},
		{
			"bufferView":41,
			"componentType":5126,
			"count":4560,
			"type":"VEC2"
		},
		{
			"bufferView":42,
			"componentType":5123,
			"count":4560,
			"type":"SCALAR"
		},
		{
			"bufferView":43,
			"componentType":5126,
			"count":240,
			"max":[
				0.30133509635925293,
				0.7970116138458252,
				0.11757279932498932
			],
			"min":[
				-0.30133509635925293,
				0.6789661049842834,
				-0.11757569760084152
			],
			"type":"VEC3"
		},
		{
			"bufferView":44,
			"componentType":5126,
			"count":240,
			"type":"VEC3"
		},
		{
			"bufferView":45,
			"componentType":5126,
			"count":240,
			"type":"VEC2"
		},
		{
			"bufferView":46,
			"componentType":5123,
			"count":240,
			"type":"SCALAR"
		},
		{
			"bufferView":47,
			"componentType":5126,
			"count":930,
			"max":[
				0.7664303183555603,
				-0.3459959924221039,
				-0.20493820309638977
			],
			"min":[
				0.2031507045030594,
				-0.9144381284713745,
				-0.7652087807655334
			],
			"type":"VEC3"
		},
		{
			"bufferView":48,
			"componentType":5126,
			"count":930,
			"type":"VEC3"
		},
		{
			"bufferView":49,
			"componentType":5126,
			"count":930,
			"type":"VEC2"
		},
		{
			"bufferView":50,
			"componentType":5123,
			"count":930,
			"type":"SCALAR"
		},
		{
			"bufferView":51,
			"componentType":5126,
			"count":930,
			"max":[
				0.7652059197425842,
				-0.34599581360816956,
				0.7664282917976379
			],
			"min":[
				0.20493559539318085,
				-0.9144378900527954,
				0.20314860343933105
			],
			"type":"VEC3"
		},
		{
			"bufferView":52,
			"componentType":5126,
			"count":930,
			"type":"VEC3"
		},
		{
			"bufferView":53,
			"componentType":5126,
			"count":930,
			"type":"VEC2"
		},
		{
			"bufferView":54,
			"componentType":5126,
			"count":930,
			"max":[
				-0.20315079391002655,
				-0.34599581360816956,
				0.7652043104171753
			],
			"min":[
				-0.7664301991462708,
				-0.914438009262085,
				0.20493359863758087
			],
			"type":"VEC3"
		},
		{
			"bufferView":55,
			"componentType":5126,
			"count":930,
			"type":"VEC3"
		},
		{
			"bufferView":56,
			"componentType":5126,
			"count":930,
			"type":"VEC2"
		},
		{
			"bufferView":57,
			"componentType":5126,
			"count":930,
			"max":[
				-0.20493529736995697,
				-0.3459959924221039,
				-0.203153595328331
			],
			"min":[
				-0.7652056813240051,
				-0.914438009262085,
				-0.7664331793785095
			],
			"type":"VEC3"
		},
		{
			"bufferView":58,
			"componentType":5126,
			"count":930,
			"type":"VEC3"
		},
		{
			"bufferView":59,
			"componentType":5126,
			"count":930,
			"type":"VEC2"
		},
		{
			"bufferView":60,
			"componentType":5126,
			"count":18,
			"max":[
				0.17883910238742828,
				0.7798311114311218,
				-0.5937585830688477
			],
			"min":[
				-0.17883990705013275,
				0.7454636096954346,
				-0.646737277507782
			],
			"type":"VEC3"
		},
		{
			"bufferView":61,
			"componentType":5126,
			"count":18,
			"type":"VEC3"
		},
		{
			"bufferView":62,
			"componentType":5126,
			"count":18,
			"type":"VEC2"
		},
		{
			"bufferView":63,
			"componentType":5123,
			"count":18,
			"type":"SCALAR"
		},
		{
			"bufferView":64,
			"componentType":5126,
			"count":90,
			"max":[
				0.1623612940311432,
				-0.5407735705375671,
				0.16235989332199097
			],
			"min":[
				-0.16236120462417603,
				-0.5407739281654358,
				-0.16236180067062378
			],
			"type":"VEC3"
		},
		{
			"bufferView":65,
			"componentType":5126,
			"count":90,
			"type":"VEC3"
		},
		{
			"bufferView":66,
			"componentType":5126,
			"count":90,
			"type":"VEC2"
		},
		{
			"bufferView":67,
			"componentType":5123,
			"count":90,
			"type":"SCALAR"
		},
		{
			"bufferView":68,
			"componentType":5126,
			"count":864,
			"max":[
				0.31704699993133545,
				-0.843903124332428,
				0.31704699993133545
			],
			"min":[
				-0.31704699993133545,
				-0.9061102271080017,
				-0.3170469105243683
			],
			"type":"VEC3"
		},
		{
			"bufferView":69,
			"componentType":5126,
			"count":864,
			"type":"VEC3"
		},
		{
			"bufferView":70,
			"componentType":5126,
			"count":864,
			"type":"VEC2"
		},
		{
			"bufferView":71,
			"componentType":5123,
			"count":864,
			"type":"SCALAR"
		},
		{
			"bufferView":72,
			"componentType":5126,
			"count":4098,
			"max":[
				0.39337849617004395,
				-0.5407735705375671,
				0.39337649941444397
			],
			"min":[
				-0.39337828755378723,
				-0.9238796830177307,
				-0.3933785855770111
			],
			"type":"VEC3"
		},
		{
			"bufferView":73,
			"componentType":5126,
			"count":4098,
			"type":"VEC3"
		},
		{
			"bufferView":74,
			"componentType":5126,
			"count":4098,
			"type":"VEC2"
		},
		{
			"bufferView":75,
			"componentType":5123,
			"count":4098,
			"type":"SCALAR"
		}
	],
	"bufferViews":[
		{
			"buffer":0,
			"byteLength":77760,
			"byteOffset":0,
			"target":34962
		},
		{
			"buffer":0,
			"byteLength":77760,
			"byteOffset":77760,
			"target":34962
		},
		{
			"buffer":0,
			"byteLength":51840,
			"byteOffset":155520,
			"target":34962
		},
		{
			"buffer":0,
			"byteLength":12960,
			"byteOffset":207360,
			"target":34963
		},
		{
			"buffer":0,
			"byteLength":3888,
			"byteOffset":220320,
			"target":34962
		},
		{
			"buffer":0,
			"byteLength":3888,
			"byteOffset":224208,
			"target":34962
		},
		{
			"buffer":0,
			"byteLength":2592,
			"byteOffset":228096,
			"target":34962
		},
		{
			"buffer":0,
			"byteLength":648,
			"byteOffset":230688,
			"target":34963
		},
		{
			"buffer":0,
			"byteLength":15696,
			"byteOffset":231336,
			"target":34962
		},
		{
			"buffer":0,
			"byteLength":15696,
			"byteOffset":247032,
			"target":34962
		},
		{
			"buffer":0,
			"byteLength":10464,
			"byteOffset":262728,
			"target":34962
		},
		{
			"buffer":0,
			"byteLength":2616,
			"byteOffset":273192,
			"target":34963
		},
		{
			"buffer":0,
			"byteLength":1296,
			"byteOffset":275808,
			"target":34962
		},
		{
			"buffer":0,
			"byteLength":1296,
			"byteOffset":277104,
			"target":34962
		},
		{
			"buffer":0,
			"byteLength":864,
			"byteOffset":278400,
			"target":34962
		},
		{
			"buffer":0,
			"byteLength":216,
			"byteOffset":279264,
			"target":34963
		},
		{
			"buffer":0,
			"byteLength":6912,
			"byteOffset":279480,
			"target":34962
		},
		{
			"buffer":0,
			"byteLength":6912,
			"byteOffset":286392,
			"target":34962
		},
		{
			"buffer":0,
			"byteLength":4608,
			"byteOffset":293304,
			"target":34962
		},
		{
			"buffer":0,
			"byteLength":1152,
			"byteOffset":297912,
			"target":34963
		},
		{
			"buffer":0,
			"byteLength":45216,
			"byteOffset":299064,
			"target":34962
		},
		{
			"buffer":0,
			"byteLength":45216,
			"byteOffset":344280,
			"target":34962
		},
		{
			"buffer":0,
			"byteLength":30144,
			"byteOffset":389496,
			"target":34962
		},
		{
			"buffer":0,
			"byteLength":7536,
			"byteOffset":419640,
			"target":34963
		},
		{
			"buffer":0,
			"byteLength":19008,
			"byteOffset":427176,
			"target":34962
		},
		{
			"buffer":0,
			"byteLength":19008,
			"byteOffset":446184,
			"target":34962
		},
		{
			"buffer":0,
			"byteLength":12672,
			"byteOffset":465192,
			"target":34962
		},
		{
			"buffer":0,
			"byteLength":3168,
			"byteOffset":477864,
			"target":34963
		},
		{
			"buffer":0,
			"byteLength":4464,
			"byteOffset":481032,
			"target":34962
		},
		{
			"buffer":0,
			"byteLength":4464,
			"byteOffset":485496,
			"target":34962
		},
		{
			"buffer":0,
			"byteLength":2976,
			"byteOffset":489960,
			"target":34962
		},
		{
			"buffer":0,
			"byteLength":744,
			"byteOffset":492936,
			"target":34963
		},
		{
			"buffer":0,
			"byteLength":6912,
			"byteOffset":493680,
			"target":34962
		},
		{
			"buffer":0,
			"byteLength":6912,
			"byteOffset":500592,
			"target":34962
		},
		{
			"buffer":0,
			"byteLength":4608,
			"byteOffset":507504,
			"target":34962
		},
		{
			"buffer":0,
			"byteLength":22464,
			"byteOffset":512112,
			"target":34962
		},
		{
			"buffer":0,
			"byteLength":22464,
			"byteOffset":534576,
			"target":34962
		},
		{
			"buffer":0,
			"byteLength":14976,
			"byteOffset":557040,
			"target":34962
		},
		{
			"buffer":0,
			"byteLength":3744,
			"byteOffset":572016,
			"target":34963
		},
		{
			"buffer":0,
			"byteLength":54720,
			"byteOffset":575760,
			"target":34962
		},
		{
			"buffer":0,
			"byteLength":54720,
			"byteOffset":630480,
			"target":34962
		},
		{
			"buffer":0,
			"byteLength":36480,
			"byteOffset":685200,
			"target":34962
		},
		{
			"buffer":0,
			"byteLength":9120,
			"byteOffset":721680,
			"target":34963
		},
		{
			"buffer":0,
			"byteLength":2880,
			"byteOffset":730800,
			"target":34962
		},
		{
			"buffer":0,
			"byteLength":2880,
			"byteOffset":733680,
			"target":34962
		},
		{
			"buffer":0,
			"byteLength":1920,
			"byteOffset":736560,
			"target":34962
		},
		{
			"buffer":0,
			"byteLength":480,
			"byteOffset":738480,
			"target":34963
		},
		{
			"buffer":0,
			"byteLength":11160,
			"byteOffset":738960,
			"target":34962
		},
		{
			"buffer":0,
			"byteLength":11160,
			"byteOffset":750120,
			"target":34962
		},
		{
			"buffer":0,
			"byteLength":7440,
			"byteOffset":761280,
			"target":34962
		},
		{
			"buffer":0,
			"byteLength":1860,
			"byteOffset":768720,
			"target":34963
		},
		{
			"buffer":0,
			"byteLength":11160,
			"byteOffset":770580,
			"target":34962
		},
		{
			"buffer":0,
			"byteLength":11160,
			"byteOffset":781740,
			"target":34962
		},
		{
			"buffer":0,
			"byteLength":7440,
			"byteOffset":792900,
			"target":34962
		},
		{
			"buffer":0,
			"byteLength":11160,
			"byteOffset":800340,
			"target":34962
		},
		{
			"buffer":0,
			"byteLength":11160,
			"byteOffset":811500,
			"target":34962
		},
		{
			"buffer":0,
			"byteLength":7440,
			"byteOffset":822660,
			"target":34962
		},
		{
			"buffer":0,
			"byteLength":11160,
			"byteOffset":830100,
			"target":34962
		},
		{
			"buffer":0,
			"byteLength":11160,
			"byteOffset":841260,
			"target":34962
		},
		{
			"buffer":0,
			"byteLength":7440,
			"byteOffset":852420,
			"target":34962
		},
		{
			"buffer":0,
			"byteLength":216,
			"byteOffset":859860,
			"target":34962
		},
		{
			"buffer":0,
			"byteLength":216,
			"byteOffset":860076,
			"target":34962
		},
		{
			"buffer":0,
			"byteLength":144,
			"byteOffset":860292,
			"target":34962
		},
		{
			"buffer":0,
			"byteLength":36,
			"byteOffset":860436,
			"target":34963
		},
		{
			"buffer":0,
			"byteLength":1080,
			"byteOffset":860472,
			"target":34962
		},
		{
			"buffer":0,
			"byteLength":1080,
			"byteOffset":861552,
			"target":34962
		},
		{
			"buffer":0,
			"byteLength":720,
			"byteOffset":862632,
			"target":34962
		},
		{
			"buffer":0,
			"byteLength":180,
			"byteOffset":863352,
			"target":34963
		},
		{
			"buffer":0,
			"byteLength":10368,
			"byteOffset":863532,
			"target":34962
		},
		{
			"buffer":0,
			"byteLength":10368,
			"byteOffset":873900,
			"target":34962
		},
		{
			"buffer":0,
			"byteLength":6912,
			"byteOffset":884268,
			"target":34962
		},
		{
			"buffer":0,
			"byteLength":1728,
			"byteOffset":891180,
			"target":34963
		},
		{
			"buffer":0,
			"byteLength":49176,
			"byteOffset":892908,
			"target":34962
		},
		{
			"buffer":0,
			"byteLength":49176,
			"byteOffset":942084,
			"target":34962
		},
		{
			"buffer":0,
			"byteLength":32784,
			"byteOffset":991260,
			"target":34962
		},
		{
			"buffer":0,
			"byteLength":8196,
			"byteOffset":1024044,
			"target":34963
		}
	],
	"samplers":[
		{
			"magFilter":9729,
			"minFilter":9987
		}
	],
	"buffers":[
		{
			"byteLength":1032240,
			"uri":"Ball.bin"
		}
	]
}
