{
	"asset":{
		"generator":"Khronos glTF Blender I/O v5.0.21",
		"version":"2.0"
	},
	"scene":0,
	"scenes":[
		{
			"name":"Scene",
			"nodes":[
				14
			]
		}
	],
	"nodes":[
		{
			"mesh":0,
			"name":"mesh_3658713116-0_0_0_gbuffer"
		},
		{
			"children":[
				0
			],
			"name":"pattern_1263460317_0_frame"
		},
		{
			"mesh":1,
			"name":"mesh_24025557-0_0_0_gbuffer"
		},
		{
			"children":[
				2
			],
			"name":"pattern_2620065388_0_magazine"
		},
		{
			"mesh":2,
			"name":"mesh_1178659431-0_0_0_gbuffer"
		},
		{
			"children":[
				4
			],
			"name":"pattern_2869638558_0_barrel"
		},
		{
			"mesh":3,
			"name":"mesh_3531602345-0_0_0_gbuffer"
		},
		{
			"children":[
				6
			],
			"name":"pattern_3117534668_0_scope"
		},
		{
			"mesh":4,
			"name":"mesh_2684459071-0_0_0_gbuffer"
		},
		{
			"mesh":5,
			"name":"mesh_2684459071-0_0_1_gbuffer"
		},
		{
			"children":[
				8,
				9
			],
			"name":"pattern_328488574_0_stock"
		},
		{
			"mesh":6,
			"name":"mesh_1845128305-0_0_2_redacted16"
		},
		{
			"children":[
				11
			],
			"name":"pattern_3784150000_0_hud17"
		},
		{
			"children":[
				1,
				3,
				5,
				7,
				10,
				12
			],
			"name":"item_2_2286143274",
			"scale":[
				150,
				150,
				150
			]
		},
		{
			"children":[
				13
			],
			"name":"content"
		}
	],
	"materials":[
		{
			"alphaMode":"BLEND",
			"doubleSided":true,
			"name":"mat_2286143274_1",
			"normalTexture":{
				"index":0
			},
			"pbrMetallicRoughness":{
				"baseColorTexture":{
					"index":1
				},
				"metallicFactor":0
			}
		},
		{
			"alphaMode":"BLEND",
			"doubleSided":true,
			"name":"mat_2286143274_0.001",
			"normalTexture":{
				"index":2
			},
			"pbrMetallicRoughness":{
				"baseColorTexture":{
					"index":3
				},
				"metallicFactor":0
			}
		},
		{
			"alphaMode":"BLEND",
			"doubleSided":true,
			"name":"mat_2286143274_0",
			"normalTexture":{
				"index":4
			},
			"pbrMetallicRoughness":{
				"baseColorTexture":{
					"index":5
				},
				"metallicFactor":0
			}
		},
		{
			"alphaMode":"BLEND",
			"doubleSided":true,
			"name":"mat_2286143274_0.002",
			"normalTexture":{
				"index":6
			},
			"pbrMetallicRoughness":{
				"baseColorTexture":{
					"index":7
				},
				"metallicFactor":0
			}
		},
		{
			"alphaMode":"BLEND",
			"doubleSided":true,
			"name":"mat_2286143274_0.003",
			"normalTexture":{
				"index":8
			},
			"pbrMetallicRoughness":{
				"baseColorTexture":{
					"index":9
				},
				"metallicFactor":0
			}
		},
		{
			"alphaMode":"BLEND",
			"doubleSided":true,
			"name":"mat_2286143274_0.004",
			"normalTexture":{
				"index":10
			},
			"pbrMetallicRoughness":{
				"baseColorTexture":{
					"index":11
				},
				"metallicFactor":0
			}
		},
		{
			"alphaMode":"BLEND",
			"doubleSided":true,
			"name":"mat_2286143274_2.002",
			"pbrMetallicRoughness":{
				"metallicFactor":0
			}
		}
	],
	"meshes":[
		{
			"name":"Mesh_1.001",
			"primitives":[
				{
					"attributes":{
						"POSITION":0,
						"NORMAL":1,
						"TEXCOORD_0":2,
						"COLOR_0":3
					},
					"indices":4,
					"material":0
				}
			]
		},
		{
			"name":"Mesh_2.001",
			"primitives":[
				{
					"attributes":{
						"POSITION":5,
						"NORMAL":6,
						"TEXCOORD_0":7,
						"COLOR_0":8
					},
					"indices":9,
					"material":1
				}
			]
		},
		{
			"name":"Mesh_0.001",
			"primitives":[
				{
					"attributes":{
						"POSITION":10,
						"NORMAL":11,
						"TEXCOORD_0":12,
						"COLOR_0":13
					},
					"indices":14,
					"material":2
				}
			]
		},
		{
			"name":"Mesh_6.001",
			"primitives":[
				{
					"attributes":{
						"POSITION":15,
						"NORMAL":16,
						"TEXCOORD_0":17,
						"COLOR_0":18
					},
					"indices":19,
					"material":3
				}
			]
		},
		{
			"name":"Mesh_7.001",
			"primitives":[
				{
					"attributes":{
						"POSITION":20,
						"NORMAL":21,
						"TEXCOORD_0":22,
						"COLOR_0":23
					},
					"indices":24,
					"material":4
				}
			]
		},
		{
			"name":"Mesh_8.001",
			"primitives":[
				{
					"attributes":{
						"POSITION":25,
						"NORMAL":26,
						"TEXCOORD_0":27,
						"COLOR_0":28
					},
					"indices":29,
					"material":5
				}
			]
		},
		{
			"name":"Mesh_5.001",
			"primitives":[
				{
					"attributes":{
						"POSITION":30,
						"NORMAL":31,
						"TEXCOORD_0":32,
						"COLOR_0":33
					},
					"indices":34,
					"material":6
				}
			]
		}
	],
	"textures":[
		{
			"sampler":0,
			"source":0
		},
		{
			"sampler":0,
			"source":1
		},
		{
			"sampler":0,
			"source":2
		},
		{
			"sampler":0,
			"source":3
		},
		{
			"sampler":0,
			"source":2
		},
		{
			"sampler":0,
			"source":3
		},
		{
			"sampler":0,
			"source":2
		},
		{
			"sampler":0,
			"source":3
		},
		{
			"sampler":0,
			"source":2
		},
		{
			"sampler":0,
			"source":3
		},
		{
			"sampler":0,
			"source":2
		},
		{
			"sampler":0,
			"source":3
		}
	],
	"images":[
		{
			"mimeType":"image/png",
			"name":"Image_3",
			"uri":"Image_3.png"
		},
		{
			"mimeType":"image/png",
			"name":"Image_2",
			"uri":"Image_2.png"
		},
		{
			"mimeType":"image/png",
			"name":"Image_1",
			"uri":"Image_1.png"
		},
		{
			"mimeType":"image/png",
			"name":"Image_0",
			"uri":"Image_0.png"
		}
	],
	"accessors":[
		{
			"bufferView":0,
			"componentType":5126,
			"count":2758,
			"max":[
				0.023109467700123787,
				0.0935140997171402,
				0.09477999806404114
			],
			"min":[
				-0.02311946637928486,
				-0.03522156924009323,
				-0.3092699944972992
			],
			"type":"VEC3"
		},
		{
			"bufferView":1,
			"componentType":5126,
			"count":2758,
			"type":"VEC3"
		},
		{
			"bufferView":2,
			"componentType":5126,
			"count":2758,
			"type":"VEC2"
		},
		{
			"bufferView":3,
			"componentType":5123,
			"count":2758,
			"normalized":true,
			"type":"VEC4"
		},
		{
			"bufferView":4,
			"componentType":5123,
			"count":12810,
			"type":"SCALAR"
		},
		{
			"bufferView":5,
			"componentType":5126,
			"count":1906,
			"max":[
				0.01955878734588623,
				0.09896023571491241,
				0.08073999732732773
			],
			"min":[
				-0.019528787583112717,
				0.059862300753593445,
				-0.0889899954199791
			],
			"type":"VEC3"
		},
		{
			"bufferView":6,
			"componentType":5126,
			"count":1906,
			"type":"VEC3"
		},
		{
			"bufferView":7,
			"componentType":5126,
			"count":1906,
			"type":"VEC2"
		},
		{
			"bufferView":8,
			"componentType":5123,
			"count":1906,
			"normalized":true,
			"type":"VEC4"
		},
		{
			"bufferView":9,
			"componentType":5123,
			"count":10338,
			"type":"SCALAR"
		},
		{
			"bufferView":10,
			"componentType":5126,
			"count":3076,
			"max":[
				0.02526860684156418,
				0.10430820286273956,
				0.3113900125026703
			],
			"min":[
				-0.02526860684156418,
				-0.12213566899299622,
				-0.28492000699043274
			],
			"type":"VEC3"
		},
		{
			"bufferView":11,
			"componentType":5126,
			"count":3076,
			"type":"VEC3"
		},
		{
			"bufferView":12,
			"componentType":5126,
			"count":3076,
			"type":"VEC2"
		},
		{
			"bufferView":13,
			"componentType":5123,
			"count":3076,
			"normalized":true,
			"type":"VEC4"
		},
		{
			"bufferView":14,
			"componentType":5123,
			"count":11814,
			"type":"SCALAR"
		},
		{
			"bufferView":15,
			"componentType":5126,
			"count":1898,
			"max":[
				0.02291977033019066,
				0.14172117412090302,
				0.13651999831199646
			],
			"min":[
				-0.022899769246578217,
				0.09515134990215302,
				0.08841000497341156
			],
			"type":"VEC3"
		},
		{
			"bufferView":16,
			"componentType":5126,
			"count":1898,
			"type":"VEC3"
		},
		{
			"bufferView":17,
			"componentType":5126,
			"count":1898,
			"type":"VEC2"
		},
		{
			"bufferView":18,
			"componentType":5123,
			"count":1898,
			"normalized":true,
			"type":"VEC4"
		},
		{
			"bufferView":19,
			"componentType":5123,
			"count":5274,
			"type":"SCALAR"
		},
		{
			"bufferView":20,
			"componentType":5126,
			"count":876,
			"max":[
				0.01789167709648609,
				0.03063306212425232,
				0.14227211475372314
			],
			"min":[
				-0.01789207011461258,
				-0.100217804312706,
				-0.0694107934832573
			],
			"type":"VEC3"
		},
		{
			"bufferView":21,
			"componentType":5126,
			"count":876,
			"type":"VEC3"
		},
		{
			"bufferView":22,
			"componentType":5126,
			"count":876,
			"type":"VEC2"
		},
		{
			"bufferView":23,
			"componentType":5123,
			"count":876,
			"normalized":true,
			"type":"VEC4"
		},
		{
			"bufferView":24,
			"componentType":5123,
			"count":4014,
			"type":"SCALAR"
		},
		{
			"bufferView":25,
			"componentType":5126,
			"count":2270,
			"max":[
				0.0209700595587492,
				0.055250316858291626,
				0.22631001472473145
			],
			"min":[
				-0.02099006064236164,
				-0.10121779143810272,
				-0.094930000603199
			],
			"type":"VEC3"
		},
		{
			"bufferView":26,
			"componentType":5126,
			"count":2270,
			"type":"VEC3"
		},
		{
			"bufferView":27,
			"componentType":5126,
			"count":2270,
			"type":"VEC2"
		},
		{
			"bufferView":28,
			"componentType":5123,
			"count":2270,
			"normalized":true,
			"type":"VEC4"
		},
		{
			"bufferView":29,
			"componentType":5123,
			"count":7146,
			"type":"SCALAR"
		},
		{
			"bufferView":30,
			"componentType":5126,
			"count":4,
			"max":[
				0.008828294463455677,
				-0.053808730095624924,
				0.008721299469470978
			],
			"min":[
				-0.008828294463455677,
				-0.053808730095624924,
				-0.008720409125089645
			],
			"type":"VEC3"
		},
		{
			"bufferView":31,
			"componentType":5126,
			"count":4,
			"type":"VEC3"
		},
		{
			"bufferView":32,
			"componentType":5126,
			"count":4,
			"type":"VEC2"
		},
		{
			"bufferView":33,
			"componentType":5123,
			"count":4,
			"normalized":true,
			"type":"VEC4"
		},
		{
			"bufferView":34,
			"componentType":5123,
			"count":6,
			"type":"SCALAR"
		}
	],
	"bufferViews":[
		{
			"buffer":0,
			"byteLength":33096,
			"byteOffset":0,
			"target":34962
		},
		{
			"buffer":0,
			"byteLength":33096,
			"byteOffset":33096,
			"target":34962
		},
		{
			"buffer":0,
			"byteLength":22064,
			"byteOffset":66192,
			"target":34962
		},
		{
			"buffer":0,
			"byteLength":22064,
			"byteOffset":88256,
			"target":34962
		},
		{
			"buffer":0,
			"byteLength":25620,
			"byteOffset":110320,
			"target":34963
		},
		{
			"buffer":0,
			"byteLength":22872,
			"byteOffset":135940,
			"target":34962
		},
		{
			"buffer":0,
			"byteLength":22872,
			"byteOffset":158812,
			"target":34962
		},
		{
			"buffer":0,
			"byteLength":15248,
			"byteOffset":181684,
			"target":34962
		},
		{
			"buffer":0,
			"byteLength":15248,
			"byteOffset":196932,
			"target":34962
		},
		{
			"buffer":0,
			"byteLength":20676,
			"byteOffset":212180,
			"target":34963
		},
		{
			"buffer":0,
			"byteLength":36912,
			"byteOffset":232856,
			"target":34962
		},
		{
			"buffer":0,
			"byteLength":36912,
			"byteOffset":269768,
			"target":34962
		},
		{
			"buffer":0,
			"byteLength":24608,
			"byteOffset":306680,
			"target":34962
		},
		{
			"buffer":0,
			"byteLength":24608,
			"byteOffset":331288,
			"target":34962
		},
		{
			"buffer":0,
			"byteLength":23628,
			"byteOffset":355896,
			"target":34963
		},
		{
			"buffer":0,
			"byteLength":22776,
			"byteOffset":379524,
			"target":34962
		},
		{
			"buffer":0,
			"byteLength":22776,
			"byteOffset":402300,
			"target":34962
		},
		{
			"buffer":0,
			"byteLength":15184,
			"byteOffset":425076,
			"target":34962
		},
		{
			"buffer":0,
			"byteLength":15184,
			"byteOffset":440260,
			"target":34962
		},
		{
			"buffer":0,
			"byteLength":10548,
			"byteOffset":455444,
			"target":34963
		},
		{
			"buffer":0,
			"byteLength":10512,
			"byteOffset":465992,
			"target":34962
		},
		{
			"buffer":0,
			"byteLength":10512,
			"byteOffset":476504,
			"target":34962
		},
		{
			"buffer":0,
			"byteLength":7008,
			"byteOffset":487016,
			"target":34962
		},
		{
			"buffer":0,
			"byteLength":7008,
			"byteOffset":494024,
			"target":34962
		},
		{
			"buffer":0,
			"byteLength":8028,
			"byteOffset":501032,
			"target":34963
		},
		{
			"buffer":0,
			"byteLength":27240,
			"byteOffset":509060,
			"target":34962
		},
		{
			"buffer":0,
			"byteLength":27240,
			"byteOffset":536300,
			"target":34962
		},
		{
			"buffer":0,
			"byteLength":18160,
			"byteOffset":563540,
			"target":34962
		},
		{
			"buffer":0,
			"byteLength":18160,
			"byteOffset":581700,
			"target":34962
		},
		{
			"buffer":0,
			"byteLength":14292,
			"byteOffset":599860,
			"target":34963
		},
		{
			"buffer":0,
			"byteLength":48,
			"byteOffset":614152,
			"target":34962
		},
		{
			"buffer":0,
			"byteLength":48,
			"byteOffset":614200,
			"target":34962
		},
		{
			"buffer":0,
			"byteLength":32,
			"byteOffset":614248,
			"target":34962
		},
		{
			"buffer":0,
			"byteLength":32,
			"byteOffset":614280,
			"target":34962
		},
		{
			"buffer":0,
			"byteLength":12,
			"byteOffset":614312,
			"target":34963
		}
	],
	"samplers":[
		{
			"magFilter":9729,
			"minFilter":9987
		}
	],
	"buffers":[
		{
			"byteLength":614324,
			"uri":"Huckleberry.bin"
		}
	]
}
