# Blender 5.0.1
# www.blender.org
mtllib Venipede.mtl
o merged_0_0_node
v 0.111815 -0.000000 -0.053595
v 0.055248 0.177963 -0.015876
v 0.065301 0.088235 0.199717
v 0.041158 0.129396 -0.074950
v 0.065301 -0.088235 0.199717
v 0.017200 0.098374 -0.093701
v 0.055248 -0.177963 -0.015876
v 0.017200 -0.098374 -0.093701
v 0.041158 -0.129396 -0.074950
v 0.034213 0.174084 0.111286
v -0.038810 0.134765 -0.093701
v -0.030012 0.200921 -0.004291
v 0.034213 -0.174084 0.111286
v -0.007926 0.000000 0.249880
v -0.022442 -0.105098 0.216321
v -0.038810 -0.134765 -0.093701
v -0.065164 0.175393 0.127451
v -0.022442 0.105098 0.216321
v -0.111036 0.098071 -0.093701
v -0.065164 -0.175393 0.127451
v -0.030012 -0.200921 -0.004291
v -0.127032 0.111117 0.137185
v -0.127032 0.154707 0.016166
v -0.097345 0.000000 0.213735
v -0.127032 -0.154707 0.016166
v -0.127032 -0.111117 0.137185
v -0.111036 -0.098071 -0.093701
v -0.182964 0.000000 0.024813
v -0.154670 0.000000 0.128511
v -0.253485 0.038721 -0.078174
v -0.301440 0.025412 -0.031266
v -0.260858 0.078002 -0.024190
v -0.303146 0.000000 -0.031436
v -0.195432 0.113000 -0.019784
v -0.253485 -0.038721 -0.078174
v -0.190621 0.080904 -0.086715
v -0.190621 0.000000 -0.096939
v -0.320291 0.000000 -0.044774
v -0.131422 0.080981 -0.015432
v -0.174225 0.098299 0.068204
v -0.258752 0.075803 0.051927
v -0.190621 -0.080904 -0.086715
v -0.301440 -0.025412 -0.031266
v -0.195432 -0.113000 -0.019784
v -0.260858 -0.078002 -0.024190
v -0.131422 0.000000 -0.065768
v -0.161916 0.023156 0.121664
v -0.131422 0.071324 0.066468
v -0.131422 -0.080981 -0.015432
v -0.174225 -0.098299 0.068204
v -0.258752 -0.075803 0.051927
v -0.094711 0.000000 -0.009676
v -0.269099 0.023457 0.057076
v -0.148384 0.000000 0.152736
v -0.246740 0.000000 0.109355
v -0.161916 -0.023156 0.121664
v -0.131422 -0.071324 0.066468
v -0.131422 0.000000 0.105854
v -0.309632 0.000000 0.027177
v -0.269099 -0.023457 0.057076
v 0.243329 0.046412 0.013512
v 0.243329 -0.046412 0.013512
v 0.310596 -0.000000 -0.058252
v 0.176508 -0.000000 0.138589
v 0.212778 0.067897 -0.041503
v 0.161182 0.091270 0.117243
v 0.141872 0.136440 0.033228
v 0.212778 -0.067897 -0.041503
v 0.161182 -0.091270 0.117243
v 0.141872 -0.136440 0.033228
v 0.059186 0.155670 -0.021602
v 0.191729 0.060979 -0.093701
v 0.065237 0.082610 0.173506
v 0.044014 0.157223 0.101729
v 0.059186 -0.155670 -0.021602
v 0.191729 -0.060979 -0.093701
v 0.065237 -0.082611 0.173506
v 0.044014 -0.157223 0.101729
v 0.017200 0.086316 -0.093701
v 0.017200 -0.086316 -0.093701
v 0.368751 -0.058394 0.066763
v 0.344870 -0.073484 0.082993
v 0.434944 -0.099900 0.163629
v 0.268907 -0.043931 -0.028647
v 0.395395 -0.079731 0.076823
v 0.388286 -0.073484 0.045501
v 0.364405 -0.088574 0.061731
v 0.368751 0.058394 0.066763
v 0.434944 0.099900 0.163629
v 0.344870 0.073484 0.082993
v 0.395395 0.079731 0.076823
v 0.268907 0.043931 -0.028647
v 0.388286 0.073484 0.045501
v 0.364405 0.088574 0.061731
v -0.254338 -0.113910 0.153164
v -0.227258 -0.095815 0.152350
v -0.201412 -0.154251 0.258324
v -0.287124 -0.035653 0.043246
v -0.257604 -0.115777 0.188551
v -0.281418 -0.104942 0.168901
v -0.254338 -0.086847 0.168087
v -0.254338 0.113910 0.153164
v -0.201412 0.154251 0.258324
v -0.227258 0.095815 0.152350
v -0.257604 0.115777 0.188551
v -0.287124 0.035653 0.043246
v -0.281418 0.104942 0.168901
v -0.254338 0.086847 0.168087
v -0.058018 -0.085705 -0.137388
v -0.003170 -0.092782 -0.087868
v -0.039424 -0.111774 -0.087868
v -0.039424 -0.073791 -0.087868
v -0.075678 -0.092782 -0.087868
v 0.093448 -0.040761 -0.126511
v 0.127140 -0.045695 -0.087868
v 0.104868 -0.058934 -0.087868
v 0.104868 -0.032455 -0.087868
v 0.082597 -0.045695 -0.087868
v -0.058018 0.085705 -0.137388
v -0.039424 0.111774 -0.087868
v -0.003170 0.092782 -0.087868
v -0.075678 0.092782 -0.087868
v -0.039424 0.073791 -0.087868
v 0.093448 0.040761 -0.126511
v 0.104868 0.058934 -0.087868
v 0.127140 0.045695 -0.087868
v 0.082597 0.045695 -0.087868
v 0.104868 0.032455 -0.087868
v 0.033432 -0.053791 -0.129071
v 0.069359 -0.059051 -0.087868
v 0.045612 -0.073167 -0.087868
v 0.045612 -0.044935 -0.087868
v 0.021865 -0.059051 -0.087868
v 0.153732 -0.026694 -0.126512
v 0.187423 -0.031628 -0.087868
v 0.165152 -0.044867 -0.087868
v 0.165152 -0.018389 -0.087868
v 0.142880 -0.031628 -0.087868
v 0.033432 0.053791 -0.129071
v 0.045612 0.073167 -0.087868
v 0.069359 0.059051 -0.087868
v 0.021865 0.059051 -0.087868
v 0.045612 0.044935 -0.087868
v 0.153732 0.026694 -0.126512
v 0.165152 0.044867 -0.087868
v 0.187423 0.031628 -0.087868
v 0.142880 0.031628 -0.087868
v 0.165152 0.018389 -0.087868
vn 0.9591 -0.0000 -0.2832
vn 0.6811 0.6743 -0.2853
vn 0.7674 0.3607 0.5300
vn 0.5913 0.4481 -0.6705
vn 0.7674 -0.3607 0.5300
vn 0.4459 0.2811 -0.8498
vn 0.6811 -0.6743 -0.2853
vn 0.3603 -0.2270 -0.9048
vn 0.5912 -0.4482 -0.6705
vn 0.3779 0.8456 0.3771
vn 0.0108 0.4125 -0.9109
vn -0.1585 0.9668 -0.2004
vn 0.3779 -0.8456 0.3771
vn -0.0905 -0.0000 0.9959
vn -0.0528 -0.6053 0.7943
vn 0.0130 -0.4941 -0.8693
vn -0.3164 0.8355 0.4492
vn -0.0528 0.6053 0.7943
vn -0.6483 0.4336 -0.6259
vn -0.3164 -0.8355 0.4492
vn -0.1585 -0.9668 -0.2004
vn -0.7479 0.3258 0.5783
vn -0.7825 0.6225 0.0090
vn -0.7231 -0.0000 0.6908
vn -0.7825 -0.6225 0.0090
vn -0.7479 -0.3258 0.5783
vn -0.6483 -0.4335 -0.6259
vn -0.9986 -0.0000 -0.0520
vn -0.9180 -0.0000 0.3965
vn -0.5430 0.3849 -0.7463
vn -0.3357 0.2649 -0.9040
vn -0.5070 0.6625 -0.5513
vn -0.2276 -0.0000 -0.9738
vn -0.1239 0.9549 -0.2699
vn -0.5430 -0.3849 -0.7463
vn 0.2237 0.4408 -0.8693
vn 0.1267 -0.0000 -0.9919
vn 0.6140 -0.0000 -0.7893
vn 0.7147 0.6580 -0.2370
vn 0.1468 0.8585 0.4913
vn -0.6954 0.6003 0.3950
vn -0.6445 0.7636 0.0399
vn 0.2237 -0.4408 -0.8693
vn -0.3357 -0.2649 -0.9040
vn -0.1239 -0.9549 -0.2699
vn -0.5070 -0.6625 -0.5513
vn 0.7586 -0.0000 -0.6516
vn -0.2333 0.5268 0.8173
vn 0.6674 0.5336 0.5195
vn -0.8838 0.4248 0.1962
vn 0.7147 -0.6580 -0.2370
vn 0.1468 -0.8585 0.4913
vn -0.6954 -0.6003 0.3950
vn -0.6445 -0.7636 0.0399
vn 0.9999 -0.0000 0.0161
vn -0.7954 0.2130 0.5674
vn 0.1678 -0.0000 0.9858
vn -0.6787 -0.0000 0.7344
vn -0.5920 0.6786 0.4348
vn -0.2333 -0.5268 0.8173
vn 0.6674 -0.5336 0.5195
vn -0.8838 -0.4248 0.1962
vn 0.7826 -0.0000 0.6225
vn -0.7205 0.6305 0.2887
vn -0.7295 0.6587 0.1842
vn -0.7954 -0.2130 0.5674
vn -0.5920 -0.6786 0.4347
vn -0.7205 -0.6305 0.2887
vn -0.8272 0.5485 0.1225
vn -0.7295 -0.6587 0.1842
vn -0.8272 -0.5485 0.1225
vn 0.8125 0.4523 0.3677
vn 0.8125 -0.4523 0.3677
vn 0.9842 -0.0000 -0.1772
vn 0.6709 -0.0000 0.7416
vn 0.5508 0.8242 -0.1318
vn 0.5711 0.6188 0.5394
vn 0.4868 0.8724 0.0444
vn 0.5508 -0.8242 -0.1318
vn 0.5711 -0.6188 0.5394
vn 0.4868 -0.8724 0.0444
vn 0.2959 0.9077 -0.2974
vn 0.3338 0.5832 -0.7406
vn 0.3509 0.3384 0.8731
vn 0.2928 0.8976 0.3295
vn 0.2959 -0.9077 -0.2974
vn 0.3338 -0.5832 -0.7406
vn 0.3509 -0.3384 0.8731
vn 0.2928 -0.8976 0.3295
vn 0.0667 0.4268 -0.9019
vn 0.0667 -0.4268 -0.9019
vn 0.1828 0.9666 0.1795
vn -0.7529 -0.0013 0.6581
vn 0.2925 -0.1981 0.9355
vn -0.9563 0.1766 -0.2331
vn 0.9338 -0.0762 -0.3495
vn 0.7819 -0.0086 -0.6234
vn -0.0981 -0.9844 -0.1458
vn 0.1828 -0.9666 0.1795
vn 0.2924 0.1981 0.9355
vn -0.7531 -0.0012 0.6579
vn 0.9338 0.0762 -0.3495
vn -0.9563 -0.1766 -0.2331
vn 0.7819 0.0086 -0.6234
vn -0.0981 0.9844 -0.1458
vn -0.0062 -0.8970 -0.4421
vn 0.9461 0.1564 -0.2837
vn 0.6716 -0.3577 0.6489
vn 0.2692 0.4651 -0.8434
vn -0.7663 -0.3102 0.5626
vn -0.9302 -0.1773 0.3215
vn -0.0062 0.8525 0.5226
vn -0.0062 0.8970 -0.4421
vn 0.6716 0.3578 0.6488
vn 0.9460 -0.1565 -0.2838
vn -0.7663 0.3102 0.5626
vn 0.2692 -0.4651 -0.8433
vn -0.9302 0.1773 0.3215
vn -0.0062 -0.8525 0.5226
vn -0.2130 0.2758 -0.9373
vn 0.6725 0.1671 -0.7210
vn -0.0825 -0.8943 -0.4399
vn -0.0634 0.9754 -0.2109
vn -0.9388 0.1393 -0.3150
vn -0.2644 0.3017 -0.9160
vn 0.7537 0.1651 -0.6361
vn -0.0953 -0.9114 -0.4004
vn -0.0723 0.9793 -0.1892
vn -0.9592 0.1253 -0.2534
vn -0.2130 -0.2758 -0.9373
vn -0.0825 0.8943 -0.4399
vn 0.6725 -0.1672 -0.7210
vn -0.9388 -0.1393 -0.3150
vn -0.0634 -0.9754 -0.2109
vn -0.2644 -0.3017 -0.9160
vn -0.0953 0.9114 -0.4004
vn 0.7537 -0.1651 -0.6361
vn -0.9592 -0.1253 -0.2533
vn -0.0723 -0.9793 -0.1891
vn -0.0954 -0.9114 -0.4004
vn -0.0722 0.9793 -0.1891
vn -0.9592 0.1254 -0.2534
vn -0.0954 0.9114 -0.4004
vn -0.9592 -0.1254 -0.2534
vn -0.0723 -0.9793 -0.1892
vt 0.552127 0.604735
vt 0.475201 0.651883
vt 0.488873 0.921375
vt 0.456053 0.581170
vt 0.432903 0.554602
vt 0.446597 0.810836
vt 0.347294 0.554602
vt 0.359258 0.666365
vt 0.389292 0.984079
vt 0.369553 0.942130
vt 0.311456 0.831042
vt 0.249074 0.554602
vt 0.227323 0.843210
vt 0.227323 0.691936
vt 0.267693 0.938897
vt 0.216655 0.165870
vt 0.367761 0.306334
vt 0.216655 0.295492
vt 0.427038 0.155060
vt 0.065548 0.306334
vt 0.350020 0.017727
vt 0.006272 0.155060
vt 0.083290 0.017727
vt 0.216655 0.402022
vt 0.586614 0.709408
vt 0.579173 0.774445
vt 0.586077 0.774445
vt 0.578884 0.774445
vt 0.597925 0.774445
vt 0.597005 0.687761
vt 0.574380 0.808248
vt 0.607919 0.774445
vt 0.599305 0.908688
vt 0.587418 0.872058
vt 0.607265 0.713113
vt 0.599760 0.952409
vt 0.608981 0.877917
vt 0.614156 0.774445
vt 0.585748 0.879472
vt 0.600001 0.975586
vt 0.586950 0.920343
vt 0.609492 0.927002
vt 0.578556 0.846113
vt 0.704751 0.688405
vt 0.708137 0.688405
vt 0.683726 0.554004
vt 0.748858 0.802061
vt 0.676479 0.693512
vt 0.737374 0.810357
vt 0.698246 0.799121
vt 0.701631 0.799121
vt 0.662337 0.869513
vt 0.650829 0.693651
vt 0.747463 0.929745
vt 0.713335 0.926238
vt 0.665722 0.869513
vt 0.716720 0.926238
vt 0.624997 0.899834
vt 0.628382 0.899834
vt 0.526436 0.202420
vt 0.553924 0.202420
vt 0.539096 0.355890
vt 0.539096 0.030720
vt 0.513410 0.238711
vt 0.498948 0.202420
vt 0.551590 0.403523
vt 0.590402 0.465829
vt 0.551590 0.465829
vt 0.512778 0.465829
vt 0.933455 0.123350
vt 0.616826 0.000823
vt 0.566926 0.123350
vt 0.883558 0.000823
vt 0.616414 0.185979
vt 0.883971 0.185979
vt 0.852210 0.392511
vt 0.648174 0.392511
vt 0.750191 0.546508
vt 0.639347 0.185979
vt 0.861038 0.185979
s 1
usemtl mat_body_mat_id
f 1/1/1 2/2/2 3/3/3
f 1/1/1 4/4/4 2/2/2
f 1/1/1 3/3/3 5/3/5
f 1/1/1 6/5/6 4/4/4
f 1/1/1 5/3/5 7/2/7
f 1/1/1 8/5/8 6/5/6
f 1/1/1 7/2/7 9/4/9
f 1/1/1 9/4/9 8/5/8
f 2/2/2 10/6/10 3/3/3
f 2/2/2 4/4/4 11/7/11
f 2/2/2 12/8/12 10/6/10
f 2/2/2 11/7/11 12/8/12
f 4/4/4 6/5/6 11/7/11
f 5/3/5 13/6/13 7/2/7
f 5/3/5 3/3/3 14/9/14
f 5/3/5 15/10/15 13/6/13
f 5/3/5 14/9/14 15/10/15
f 9/4/9 16/7/16 8/5/8
f 9/4/9 7/2/7 16/7/16
f 10/6/10 12/8/12 17/11/17
f 10/6/10 18/10/18 3/3/3
f 10/6/10 17/11/17 18/10/18
f 3/3/3 18/10/18 14/9/14
f 11/7/11 19/12/19 12/8/12
f 13/6/13 15/10/15 20/11/20
f 13/6/13 21/8/21 7/2/7
f 13/6/13 20/11/20 21/8/21
f 7/2/7 21/8/21 16/7/16
f 17/11/17 22/13/22 18/10/18
f 17/11/17 12/8/12 23/14/23
f 17/11/17 23/14/23 22/13/22
f 23/14/23 12/8/12 19/12/19
f 14/9/14 24/15/24 15/10/15
f 14/9/14 18/10/18 24/15/24
f 18/10/18 22/13/22 24/15/24
f 20/11/20 25/14/25 21/8/21
f 20/11/20 15/10/15 26/13/26
f 20/11/20 26/13/26 25/14/25
f 26/13/26 15/10/15 24/15/24
f 16/7/16 21/8/21 27/12/27
f 27/12/27 21/8/21 25/14/25
f 28/16/28 26/17/26 29/18/29
f 28/16/28 25/19/25 26/17/26
f 28/16/28 29/18/29 22/20/22
f 28/16/28 27/21/27 25/19/25
f 28/16/28 22/20/22 23/22/23
f 28/16/28 19/23/19 27/21/27
f 28/16/28 23/22/23 19/23/19
f 26/17/26 24/24/24 29/18/29
f 29/18/29 24/24/24 22/20/22
f 30/25/30 31/26/31 32/27/32
f 30/25/30 33/28/33 31/26/31
f 30/25/30 32/27/32 34/29/34
f 30/25/30 35/25/35 33/28/33
f 30/25/30 34/29/34 36/30/36
f 30/25/30 37/30/37 35/25/35
f 30/25/30 36/30/36 37/30/37
f 31/26/31 33/28/33 38/31/38
f 34/29/34 39/32/39 36/30/36
f 34/29/34 40/33/40 39/32/39
f 34/29/34 41/34/41 40/33/40
f 34/29/34 32/27/42 41/34/41
f 35/25/35 37/30/37 42/30/43
f 35/25/35 43/26/44 33/28/33
f 35/25/35 42/30/43 44/29/45
f 35/25/35 45/27/46 43/26/44
f 35/25/35 44/29/45 45/27/46
f 43/26/44 38/31/38 33/28/33
f 36/30/36 39/32/39 46/35/47
f 36/30/36 46/35/47 37/30/37
f 37/30/37 46/35/47 42/30/43
f 40/33/40 41/34/41 47/36/48
f 40/33/40 48/37/49 39/32/39
f 40/33/40 47/36/48 48/37/49
f 32/27/42 31/26/50 41/34/41
f 44/29/45 42/30/43 49/32/51
f 44/29/45 49/32/51 50/33/52
f 44/29/45 50/33/52 51/34/53
f 44/29/45 51/34/53 45/27/54
f 42/30/43 46/35/47 49/32/51
f 39/32/39 48/37/49 52/38/55
f 39/32/39 52/38/55 46/35/47
f 46/35/47 52/38/55 49/32/51
f 47/36/48 41/34/41 53/39/56
f 47/36/48 54/40/57 48/37/49
f 47/36/48 55/41/58 54/40/57
f 47/36/48 53/39/59 55/41/58
f 53/39/56 41/34/41 31/26/50
f 50/33/52 56/36/60 51/34/53
f 50/33/52 49/32/51 57/37/61
f 50/33/52 57/37/61 56/36/60
f 49/32/51 52/38/55 57/37/61
f 45/27/54 51/34/53 43/26/62
f 48/37/49 54/40/57 58/42/63
f 48/37/49 58/42/63 52/38/55
f 54/40/57 55/41/58 56/36/60
f 54/40/57 56/36/60 57/37/61
f 54/40/57 57/37/61 58/42/63
f 58/42/63 57/37/61 52/38/55
f 53/39/59 59/43/64 55/41/58
f 53/39/59 31/26/65 59/43/64
f 51/34/53 60/39/66 43/26/62
f 51/34/53 56/36/60 60/39/66
f 55/41/58 60/39/67 56/36/60
f 55/41/58 59/43/68 60/39/67
f 31/26/65 38/31/69 59/43/64
f 59/43/68 43/26/70 60/39/67
f 59/43/68 38/31/71 43/26/70
f 61/44/72 62/45/73 63/46/74
f 61/44/72 64/47/75 62/45/73
f 61/44/72 63/46/74 65/48/76
f 61/44/72 66/49/77 64/47/75
f 61/44/72 65/48/76 67/50/78
f 61/44/72 67/50/78 66/49/77
f 62/45/73 68/48/79 63/46/74
f 62/45/73 64/47/75 69/49/80
f 62/45/73 70/51/81 68/48/79
f 62/45/73 69/49/80 70/51/81
f 65/48/76 71/52/82 67/50/78
f 65/48/76 63/46/74 72/53/83
f 65/48/76 72/53/83 71/52/82
f 66/49/77 73/54/84 64/47/75
f 66/49/77 67/50/78 74/55/85
f 66/49/77 74/55/85 73/54/84
f 74/55/85 67/50/78 71/52/82
f 68/48/79 70/51/81 75/56/86
f 68/48/79 76/53/87 63/46/74
f 68/48/79 75/56/86 76/53/87
f 69/49/80 64/47/75 77/54/88
f 69/49/80 78/57/89 70/51/81
f 69/49/80 77/54/88 78/57/89
f 78/57/89 75/56/86 70/51/81
f 77/54/88 64/47/75 73/54/84
f 72/53/83 79/58/90 71/52/82
f 76/53/87 75/56/86 80/59/91
f 81/60/92 82/61/93 83/62/94
f 81/60/92 84/63/95 82/61/93
f 81/60/92 83/62/94 85/64/96
f 81/60/92 86/65/97 84/63/95
f 81/60/92 85/64/96 86/65/97
f 82/61/93 87/60/98 83/62/94
f 82/61/93 84/63/95 87/60/98
f 87/60/98 86/65/97 85/64/96
f 87/60/98 85/64/96 83/62/94
f 87/60/98 84/63/95 86/65/97
f 88/60/99 89/62/100 90/61/101
f 88/60/99 91/64/102 89/62/100
f 88/60/99 90/61/101 92/63/103
f 88/60/99 93/65/104 91/64/102
f 88/60/99 92/63/103 93/65/104
f 89/62/100 94/60/105 90/61/101
f 89/62/100 91/64/102 94/60/105
f 94/60/105 92/63/103 90/61/101
f 94/60/105 91/64/102 93/65/104
f 94/60/105 93/65/104 92/63/103
f 95/60/106 96/61/107 97/62/108
f 95/60/106 98/63/109 96/61/107
f 95/60/106 97/62/108 99/64/110
f 95/60/106 100/65/111 98/63/109
f 95/60/106 99/64/110 100/65/111
f 96/61/107 101/60/112 97/62/108
f 96/61/107 98/63/109 101/60/112
f 101/60/112 100/65/111 99/64/110
f 101/60/112 99/64/110 97/62/108
f 101/60/112 98/63/109 100/65/111
f 102/60/113 103/62/114 104/61/115
f 102/60/113 105/64/116 103/62/114
f 102/60/113 104/61/115 106/63/117
f 102/60/113 107/65/118 105/64/116
f 102/60/113 106/63/117 107/65/118
f 103/62/114 108/60/119 104/61/115
f 103/62/114 105/64/116 108/60/119
f 108/60/119 106/63/117 104/61/115
f 108/60/119 105/64/116 107/65/118
f 108/60/119 107/65/118 106/63/117
f 109/66/120 110/67/121 111/68/122
f 109/66/120 112/68/123 110/67/121
f 109/66/120 111/68/122 113/69/124
f 109/66/120 113/69/124 112/68/123
f 114/66/125 115/67/126 116/68/127
f 114/66/125 117/68/128 115/67/126
f 114/66/125 116/68/127 118/69/129
f 114/66/125 118/69/129 117/68/128
f 119/66/130 120/68/131 121/67/132
f 119/66/130 122/69/133 120/68/131
f 119/66/130 121/67/132 123/68/134
f 119/66/130 123/68/134 122/69/133
f 124/66/135 125/68/136 126/67/137
f 124/66/135 127/69/138 125/68/136
f 124/66/135 126/67/137 128/68/139
f 124/66/135 128/68/139 127/69/138
f 129/66/125 130/67/126 131/68/140
f 129/66/125 132/68/141 130/67/126
f 129/66/125 131/68/140 133/69/142
f 129/66/125 133/69/142 132/68/141
f 134/66/125 135/67/126 136/68/140
f 134/66/125 137/68/128 135/67/126
f 134/66/125 136/68/140 138/69/142
f 134/66/125 138/69/142 137/68/128
f 139/66/135 140/68/143 141/67/137
f 139/66/135 142/69/144 140/68/143
f 139/66/135 141/67/137 143/68/145
f 139/66/135 143/68/145 142/69/144
f 144/66/135 145/68/143 146/67/137
f 144/66/135 147/69/144 145/68/143
f 144/66/135 146/67/137 148/68/139
f 144/66/135 148/68/139 147/69/144
f 16/70/16 19/71/19 11/72/11
f 16/70/16 27/73/27 19/71/19
f 16/70/16 11/72/11 6/74/6
f 16/70/16 6/74/6 8/75/8
f 76/76/87 72/77/83 63/78/74
f 76/76/87 79/79/90 72/77/83
f 76/76/87 80/80/91 79/79/90
o merged_1_0_node
v -0.162361 -0.098183 -0.049807
v -0.152399 -0.115266 -0.001903
v -0.224723 -0.123767 -0.013591
v -0.246053 -0.073324 -0.065220
v -0.202305 -0.088619 -0.072795
v -0.275263 -0.065228 -0.025280
v -0.255911 -0.079953 0.037858
v -0.192718 -0.099553 0.049546
v -0.186156 -0.020705 -0.033107
v -0.162361 0.098183 -0.049807
v -0.224723 0.123767 -0.013591
v -0.152399 0.115266 -0.001903
v -0.246053 0.073324 -0.065220
v -0.202305 0.088619 -0.072795
v -0.275263 0.065228 -0.025280
v -0.255911 0.079953 0.037858
v -0.192718 0.099553 0.049546
v -0.186156 0.020705 -0.033107
vn -0.0084 -0.9414 -0.3371
vn 0.1346 -0.9879 0.0766
vn -0.3090 -0.9511 -0.0000
vn -0.4205 -0.8076 -0.4135
vn -0.1845 -0.8552 -0.4843
vn -0.6896 -0.7201 -0.0765
vn -0.5466 -0.7666 0.3370
vn -0.1344 -0.9005 0.4135
vn 0.3162 0.9409 0.1213
vn -0.0084 0.9415 -0.3370
vn -0.3090 0.9511 -0.0000
vn 0.1346 0.9879 0.0765
vn -0.4205 0.8076 -0.4135
vn -0.1875 0.8542 -0.4849
vn -0.6896 0.7201 -0.0766
vn -0.5415 0.7682 0.3415
vn -0.1345 0.9005 0.4135
vn 0.3162 -0.9409 0.1213
vt 0.609405 0.819453
vt 0.671543 0.875222
vt 0.488826 0.875193
vt 0.368356 0.819424
vt 0.488881 0.800042
vt 0.306108 0.875164
vt 0.397413 0.947904
vt 0.580130 0.947933
vt 0.488826 0.831397
s 1
usemtl TEX_ANIM_EYE_mat_id
f 149/81/146 150/82/147 151/83/148
f 152/84/149 153/85/150 151/83/148
f 151/83/148 153/85/150 149/81/146
f 154/86/151 152/84/149 151/83/148
f 155/87/152 154/86/151 151/83/148
f 156/88/153 155/87/152 151/83/148
f 150/82/147 156/88/153 151/83/148
f 155/87/152 157/89/154 154/86/151
f 149/81/146 153/85/150 157/89/154
f 157/89/154 153/85/150 152/84/149
f 157/89/154 152/84/149 154/86/151
f 156/88/153 157/89/154 155/87/152
f 150/82/147 157/89/154 156/88/153
f 149/81/146 157/89/154 150/82/147
f 158/81/155 159/83/156 160/82/157
f 161/84/158 159/83/156 162/85/159
f 159/83/156 158/81/155 162/85/159
f 163/86/160 159/83/156 161/84/158
f 164/87/161 159/83/156 163/86/160
f 165/88/162 159/83/156 164/87/161
f 160/82/157 159/83/156 165/88/162
f 164/87/161 163/86/160 166/89/163
f 158/81/155 166/89/163 162/85/159
f 166/89/163 161/84/158 162/85/159
f 166/89/163 163/86/160 161/84/158
f 165/88/162 164/87/161 166/89/163
f 160/82/157 165/88/162 166/89/163
f 158/81/155 160/82/157 166/89/163
