{
	"asset":{
		"generator":"Khronos glTF Blender I/O v5.0.21",
		"version":"2.0"
	},
	"extensionsUsed":[
		"KHR_materials_specular"
	],
	"scene":0,
	"scenes":[
		{
			"name":"Scene",
			"nodes":[
				0,
				1
			]
		}
	],
	"nodes":[
		{
			"mesh":0,
			"name":"mesh0",
			"rotation":[
				0.033772677183151245,
				-0.046933338046073914,
				0.057680658996105194,
				0.9966592788696289
			]
		},
		{
			"mesh":1,
			"name":"mesh1",
			"rotation":[
				0.033772677183151245,
				-0.046933338046073914,
				0.057680658996105194,
				0.9966592788696289
			]
		}
	],
	"materials":[
		{
			"doubleSided":true,
			"extensions":{
				"KHR_materials_specular":{
					"specularFactor":0.4000000059604645
				}
			},
			"name":"acmat_0.001",
			"pbrMetallicRoughness":{
				"baseColorTexture":{
					"index":0
				},
				"metallicFactor":0,
				"roughnessFactor":0.6422290802001953
			}
		},
		{
			"doubleSided":true,
			"extensions":{
				"KHR_materials_specular":{
					"specularFactor":0.4000000059604645
				}
			},
			"name":"acmat_1.001",
			"pbrMetallicRoughness":{
				"baseColorTexture":{
					"index":1
				},
				"metallicFactor":0,
				"roughnessFactor":0.6422290802001953
			}
		}
	],
	"meshes":[
		{
			"name":"mesh0.001",
			"primitives":[
				{
					"attributes":{
						"POSITION":0,
						"NORMAL":1,
						"TEXCOORD_0":2
					},
					"indices":3,
					"material":0
				}
			]
		},
		{
			"name":"mesh1.001",
			"primitives":[
				{
					"attributes":{
						"POSITION":4,
						"NORMAL":5,
						"TEXCOORD_0":6
					},
					"indices":7,
					"material":1
				}
			]
		}
	],
	"textures":[
		{
			"sampler":0,
			"source":0
		},
		{
			"sampler":0,
			"source":1
		}
	],
	"images":[
		{
			"mimeType":"image/png",
			"name":"v_portalgun_glass",
			"uri":"v_portalgun_glass.png"
		},
		{
			"mimeType":"image/png",
			"name":"v_portalgun",
			"uri":"v_portalgun.png"
		}
	],
	"accessors":[
		{
			"bufferView":0,
			"componentType":5126,
			"count":378,
			"max":[
				0.05331763997673988,
				0.08569803833961487,
				-0.001441742293536663
			],
			"min":[
				-0.06553992629051208,
				-0.03568110242486,
				-0.3328123986721039
			],
			"type":"VEC3"
		},
		{
			"bufferView":1,
			"componentType":5126,
			"count":378,
			"type":"VEC3"
		},
		{
			"bufferView":2,
			"componentType":5126,
			"count":378,
			"type":"VEC2"
		},
		{
			"bufferView":3,
			"componentType":5123,
			"count":1404,
			"type":"SCALAR"
		},
		{
			"bufferView":4,
			"componentType":5126,
			"count":43125,
			"max":[
				0.19135530292987823,
				0.19425265491008759,
				0.27200278639793396
			],
			"min":[
				-0.19343160092830658,
				-0.1298299878835678,
				-0.541070818901062
			],
			"type":"VEC3"
		},
		{
			"bufferView":5,
			"componentType":5126,
			"count":43125,
			"type":"VEC3"
		},
		{
			"bufferView":6,
			"componentType":5126,
			"count":43125,
			"type":"VEC2"
		},
		{
			"bufferView":7,
			"componentType":5123,
			"count":111282,
			"type":"SCALAR"
		}
	],
	"bufferViews":[
		{
			"buffer":0,
			"byteLength":4536,
			"byteOffset":0,
			"target":34962
		},
		{
			"buffer":0,
			"byteLength":4536,
			"byteOffset":4536,
			"target":34962
		},
		{
			"buffer":0,
			"byteLength":3024,
			"byteOffset":9072,
			"target":34962
		},
		{
			"buffer":0,
			"byteLength":2808,
			"byteOffset":12096,
			"target":34963
		},
		{
			"buffer":0,
			"byteLength":517500,
			"byteOffset":14904,
			"target":34962
		},
		{
			"buffer":0,
			"byteLength":517500,
			"byteOffset":532404,
			"target":34962
		},
		{
			"buffer":0,
			"byteLength":345000,
			"byteOffset":1049904,
			"target":34962
		},
		{
			"buffer":0,
			"byteLength":222564,
			"byteOffset":1394904,
			"target":34963
		}
	],
	"samplers":[
		{
			"magFilter":9729,
			"minFilter":9987
		}
	],
	"buffers":[
		{
			"byteLength":1617468,
			"uri":"PortalGun.bin"
		}
	]
}
