{
	"asset":{
		"generator":"Khronos glTF Blender I/O v5.0.21",
		"version":"2.0"
	},
	"scene":0,
	"scenes":[
		{
			"name":"Scene",
			"nodes":[
				5
			]
		}
	],
	"nodes":[
		{
			"mesh":0,
			"name":"mesh_1031123559-0_0_0_gbuffer"
		},
		{
			"children":[
				0
			],
			"name":"pattern_2929936866_0_scope"
		},
		{
			"mesh":1,
			"name":"mesh_2898690846-0_0_0_gbuffer"
		},
		{
			"children":[
				2
			],
			"name":"pattern_3348748351_0_frame"
		},
		{
			"children":[
				1,
				3
			],
			"name":"item_3_1665952087",
			"scale":[
				150,
				150,
				150
			]
		},
		{
			"children":[
				4
			],
			"name":"content.001"
		}
	],
	"materials":[
		{
			"alphaMode":"BLEND",
			"doubleSided":true,
			"name":"mat_1665952087_1",
			"normalTexture":{
				"index":0
			},
			"pbrMetallicRoughness":{
				"baseColorTexture":{
					"index":1
				},
				"metallicFactor":0
			}
		},
		{
			"alphaMode":"BLEND",
			"doubleSided":true,
			"name":"mat_1665952087_0",
			"normalTexture":{
				"index":2
			},
			"pbrMetallicRoughness":{
				"baseColorTexture":{
					"index":3
				},
				"metallicFactor":0
			}
		}
	],
	"meshes":[
		{
			"name":"Mesh_1.001",
			"primitives":[
				{
					"attributes":{
						"POSITION":0,
						"NORMAL":1,
						"TEXCOORD_0":2,
						"COLOR_0":3
					},
					"indices":4,
					"material":0
				}
			]
		},
		{
			"name":"Mesh_0.001",
			"primitives":[
				{
					"attributes":{
						"POSITION":5,
						"NORMAL":6,
						"TEXCOORD_0":7,
						"COLOR_0":8
					},
					"indices":9,
					"material":1
				}
			]
		}
	],
	"textures":[
		{
			"sampler":0,
			"source":0
		},
		{
			"sampler":0,
			"source":1
		},
		{
			"sampler":0,
			"source":2
		},
		{
			"sampler":0,
			"source":3
		}
	],
	"images":[
		{
			"mimeType":"image/png",
			"name":"Image_3",
			"uri":"Image_3.png"
		},
		{
			"mimeType":"image/png",
			"name":"Image_2",
			"uri":"Image_2.png"
		},
		{
			"mimeType":"image/png",
			"name":"Image_1",
			"uri":"Image_1.png"
		},
		{
			"mimeType":"image/png",
			"name":"Image_0",
			"uri":"Image_0.png"
		}
	],
	"accessors":[
		{
			"bufferView":0,
			"componentType":5126,
			"count":1596,
			"max":[
				0.02365240640938282,
				0.14908279478549957,
				0.8005560040473938
			],
			"min":[
				-0.02365240640938282,
				0.08318699896335602,
				0.003211960196495056
			],
			"type":"VEC3"
		},
		{
			"bufferView":1,
			"componentType":5126,
			"count":1596,
			"type":"VEC3"
		},
		{
			"bufferView":2,
			"componentType":5126,
			"count":1596,
			"type":"VEC2"
		},
		{
			"bufferView":3,
			"componentType":5123,
			"count":1596,
			"normalized":true,
			"type":"VEC4"
		},
		{
			"bufferView":4,
			"componentType":5123,
			"count":4182,
			"type":"SCALAR"
		},
		{
			"bufferView":5,
			"componentType":5126,
			"count":3542,
			"max":[
				0.05590493977069855,
				0.09073275327682495,
				0.799066960811615
			],
			"min":[
				-0.05590493977069855,
				-0.14265497028827667,
				-0.4225650429725647
			],
			"type":"VEC3"
		},
		{
			"bufferView":6,
			"componentType":5126,
			"count":3542,
			"type":"VEC3"
		},
		{
			"bufferView":7,
			"componentType":5126,
			"count":3542,
			"type":"VEC2"
		},
		{
			"bufferView":8,
			"componentType":5123,
			"count":3542,
			"normalized":true,
			"type":"VEC4"
		},
		{
			"bufferView":9,
			"componentType":5123,
			"count":12492,
			"type":"SCALAR"
		}
	],
	"bufferViews":[
		{
			"buffer":0,
			"byteLength":19152,
			"byteOffset":0,
			"target":34962
		},
		{
			"buffer":0,
			"byteLength":19152,
			"byteOffset":19152,
			"target":34962
		},
		{
			"buffer":0,
			"byteLength":12768,
			"byteOffset":38304,
			"target":34962
		},
		{
			"buffer":0,
			"byteLength":12768,
			"byteOffset":51072,
			"target":34962
		},
		{
			"buffer":0,
			"byteLength":8364,
			"byteOffset":63840,
			"target":34963
		},
		{
			"buffer":0,
			"byteLength":42504,
			"byteOffset":72204,
			"target":34962
		},
		{
			"buffer":0,
			"byteLength":42504,
			"byteOffset":114708,
			"target":34962
		},
		{
			"buffer":0,
			"byteLength":28336,
			"byteOffset":157212,
			"target":34962
		},
		{
			"buffer":0,
			"byteLength":28336,
			"byteOffset":185548,
			"target":34962
		},
		{
			"buffer":0,
			"byteLength":24984,
			"byteOffset":213884,
			"target":34963
		}
	],
	"samplers":[
		{
			"magFilter":9729,
			"minFilter":9987
		}
	],
	"buffers":[
		{
			"byteLength":238868,
			"uri":"Horseman.bin"
		}
	]
}
