{
	"asset":{
		"generator":"Khronos glTF Blender I/O v5.0.21",
		"version":"2.0"
	},
	"extensionsUsed":[
		"KHR_materials_clearcoat",
		"KHR_materials_specular",
		"KHR_materials_ior",
		"KHR_texture_transform"
	],
	"extensionsRequired":[
		"KHR_texture_transform"
	],
	"scene":0,
	"scenes":[
		{
			"name":"Scene",
			"nodes":[
				18
			]
		}
	],
	"nodes":[
		{
			"name":"Foot.L",
			"rotation":[
				4.457401203694644e-08,
				6.114577217886108e-07,
				-0.3088487982749939,
				0.9511111378669739
			],
			"scale":[
				1,
				0.9999999403953552,
				1
			],
			"translation":[
				0.020834704861044884,
				0.017820660024881363,
				-5.6849698282235295e-09
			]
		},
		{
			"children":[
				0
			],
			"name":"Utility",
			"rotation":[
				-4.780008111993084e-06,
				1.6781267504484276e-06,
				-0.9612748026847839,
				0.2755916714668274
			],
			"scale":[
				0.9999997615814209,
				1,
				1
			],
			"translation":[
				-0.05251890793442726,
				0.14256927371025085,
				5.769152267021127e-07
			]
		},
		{
			"name":"Thigh.L",
			"rotation":[
				0.0031119894701987505,
				-0.028521621599793434,
				0.9995864629745483,
				0.0019396226853132248
			],
			"scale":[
				1,
				0.9999999403953552,
				1.0000027418136597
			],
			"translation":[
				0.010376331396400928,
				0.11161043494939804,
				-0.07746123522520065
			]
		},
		{
			"name":"Spine_1",
			"rotation":[
				0.00019315847021061927,
				0.027457281947135925,
				0.9996209144592285,
				0.002033375669270754
			],
			"scale":[
				1,
				0.9999997615814209,
				1.000002145767212
			],
			"translation":[
				0.010377769358456135,
				0.11161034554243088,
				0.07761763781309128
			]
		},
		{
			"name":"Calf.L",
			"rotation":[
				5.352387688617455e-06,
				5.475323305859092e-08,
				0.995244562625885,
				0.09740793704986572
			],
			"scale":[
				0.9999954700469971,
				1,
				1
			],
			"translation":[
				-0.07109354436397552,
				-0.018979722633957863,
				6.57163695905183e-07
			]
		},
		{
			"name":"Thigh.R",
			"rotation":[
				5.701836016669404e-06,
				-2.009235942068699e-07,
				0.9992624521255493,
				0.03839946165680885
			],
			"scale":[
				1.0000085830688477,
				0.9999999403953552,
				1
			],
			"translation":[
				0.0725758746266365,
				-0.0035251695662736893,
				-6.842486186542374e-07
			]
		},
		{
			"name":"Spine_3",
			"rotation":[
				0.5045660734176636,
				-0.4953920841217041,
				0.5045703053474426,
				0.49538737535476685
			],
			"scale":[
				0.9999999403953552,
				0.9999998807907104,
				0.9999999403953552
			],
			"translation":[
				3.725587394143304e-09,
				0.06434714794158936,
				7.105427357601002e-15
			]
		},
		{
			"children":[
				6
			],
			"name":"Calf.R",
			"rotation":[
				-1.7278301811529673e-07,
				3.7602324027830036e-06,
				-0.9167428612709045,
				0.3994778096675873
			],
			"scale":[
				1.0000001192092896,
				1,
				1
			],
			"translation":[
				0.04390934482216835,
				0.07509270310401917,
				-2.7218450782129366e-07
			]
		},
		{
			"name":"Neck_1",
			"rotation":[
				0.4739554524421692,
				0.5169587135314941,
				0.5334270596504211,
				0.4728376865386963
			],
			"scale":[
				0.9999999403953552,
				1.000000238418579,
				1.000000238418579
			],
			"translation":[
				-5.587935447692871e-09,
				0.06434713304042816,
				2.9802322387695312e-08
			]
		},
		{
			"children":[
				8
			],
			"name":"Foot.R",
			"rotation":[
				-0.2436450570821762,
				0.3866018056869507,
				0.8837729692459106,
				0.10060574859380722
			],
			"scale":[
				0.9999998807907104,
				0.9999997019767761,
				0.9999997019767761
			],
			"translation":[
				-0.02250424027442932,
				0.07509270310401917,
				0.037136632949113846
			]
		},
		{
			"name":"Clav.L",
			"rotation":[
				-0.5262339115142822,
				0.38238027691841125,
				-0.48192930221557617,
				0.5870327949523926
			],
			"scale":[
				1,
				0.9999999403953552,
				0.9999998211860657
			],
			"translation":[
				-7.450580596923828e-09,
				0.06434711068868637,
				-2.0489096641540527e-08
			]
		},
		{
			"children":[
				10
			],
			"name":"Spine_2",
			"rotation":[
				0.16388557851314545,
				-0.3760908842086792,
				0.9019750356674194,
				0.13467830419540405
			],
			"scale":[
				1.0000001192092896,
				1,
				1.0000001192092896
			],
			"translation":[
				-0.02199726179242134,
				0.07509270310401917,
				-0.03723004087805748
			]
		},
		{
			"children":[
				7,
				9,
				11
			],
			"name":"Pelvis",
			"rotation":[
				2.8155915288152755e-07,
				1.2491481982124242e-07,
				-0.0011261655017733574,
				0.9999994039535522
			],
			"scale":[
				0.9999999403953552,
				0.9999999403953552,
				1
			],
			"translation":[
				0.0026441309601068497,
				0.22333839535713196,
				-2.403211851742526e-08
			]
		},
		{
			"children":[
				1,
				2,
				3,
				4,
				5,
				12
			],
			"name":"Pedestal",
			"rotation":[
				-3.4787146887538256e-06,
				-3.0732610412087524e-06,
				-0.706309974193573,
				0.7079026699066162
			],
			"scale":[
				0.9999999403953552,
				0.9999998807907104,
				1
			],
			"translation":[
				-0.01618771255016327,
				0.02180732600390911,
				2.930006015589015e-09
			]
		},
		{
			"mesh":0,
			"name":"Under-Construction.00.000",
			"skin":0
		},
		{
			"mesh":1,
			"name":"Under-Construction.00.002",
			"skin":0
		},
		{
			"mesh":2,
			"name":"Under-Construction.01.000",
			"skin":0
		},
		{
			"mesh":3,
			"name":"Under-Construction.02.000",
			"skin":0
		},
		{
			"children":[
				14,
				15,
				16,
				17,
				13
			],
			"name":"Armature",
			"rotation":[
				0,
				-0.7071068286895752,
				0,
				0.7071068286895752
			]
		}
	],
	"materials":[
		{
			"doubleSided":true,
			"extensions":{
				"KHR_materials_clearcoat":{
					"clearcoatRoughnessFactor":0
				},
				"KHR_materials_specular":{
					"specularTexture":{
						"index":0
					}
				},
				"KHR_materials_ior":{
					"ior":0
				}
			},
			"name":"Body",
			"normalTexture":{
				"index":1
			},
			"pbrMetallicRoughness":{
				"baseColorTexture":{
					"index":2
				},
				"metallicRoughnessTexture":{
					"extensions":{
						"KHR_texture_transform":{
							"offset":[
								0,
								-3
							],
							"scale":[
								2,
								4
							]
						}
					},
					"index":3,
					"texCoord":1
				}
			}
		},
		{
			"doubleSided":true,
			"emissiveFactor":[
				1,
				1,
				1
			],
			"extensions":{
				"KHR_materials_specular":{
					"specularFactor":0
				},
				"KHR_materials_ior":{
					"ior":1.4500000476837158
				}
			},
			"name":"Decals",
			"pbrMetallicRoughness":{
				"baseColorTexture":{
					"index":4
				},
				"metallicRoughnessTexture":{
					"index":5
				}
			}
		},
		{
			"doubleSided":true,
			"extensions":{
				"KHR_materials_clearcoat":{
					"clearcoatRoughnessFactor":0
				},
				"KHR_materials_specular":{
					"specularTexture":{
						"index":6
					}
				},
				"KHR_materials_ior":{
					"ior":0
				}
			},
			"name":"Front",
			"normalTexture":{
				"index":7
			},
			"pbrMetallicRoughness":{
				"baseColorTexture":{
					"index":8
				},
				"metallicRoughnessTexture":{
					"extensions":{
						"KHR_texture_transform":{
							"offset":[
								0,
								-3
							],
							"scale":[
								2,
								4
							]
						}
					},
					"index":9,
					"texCoord":1
				}
			}
		},
		{
			"doubleSided":true,
			"extensions":{
				"KHR_materials_clearcoat":{
					"clearcoatRoughnessFactor":0
				},
				"KHR_materials_specular":{
					"specularTexture":{
						"index":10
					}
				},
				"KHR_materials_ior":{
					"ior":0
				}
			},
			"name":"Grip",
			"normalTexture":{
				"index":11
			},
			"pbrMetallicRoughness":{
				"baseColorTexture":{
					"index":12
				},
				"metallicRoughnessTexture":{
					"extensions":{
						"KHR_texture_transform":{
							"offset":[
								0,
								-3
							],
							"scale":[
								2,
								4
							]
						}
					},
					"index":13,
					"texCoord":1
				}
			}
		}
	],
	"meshes":[
		{
			"name":"Under-Construction.00.000",
			"primitives":[
				{
					"attributes":{
						"POSITION":0,
						"NORMAL":1,
						"TEXCOORD_0":2,
						"TEXCOORD_1":3,
						"TEXCOORD_2":4,
						"COLOR_0":5,
						"COLOR_1":6,
						"JOINTS_0":7,
						"WEIGHTS_0":8
					},
					"indices":9,
					"material":0
				}
			]
		},
		{
			"name":"Under-Construction.00.002",
			"primitives":[
				{
					"attributes":{
						"POSITION":11,
						"NORMAL":12,
						"TEXCOORD_0":13,
						"TEXCOORD_1":14,
						"TEXCOORD_2":15,
						"COLOR_0":16,
						"COLOR_1":17,
						"JOINTS_0":18,
						"WEIGHTS_0":19
					},
					"indices":20,
					"material":1
				}
			]
		},
		{
			"name":"Under-Construction.01.000",
			"primitives":[
				{
					"attributes":{
						"POSITION":21,
						"NORMAL":22,
						"TEXCOORD_0":23,
						"TEXCOORD_1":24,
						"TEXCOORD_2":25,
						"COLOR_0":26,
						"COLOR_1":27,
						"JOINTS_0":28,
						"WEIGHTS_0":29
					},
					"indices":30,
					"material":2
				}
			]
		},
		{
			"name":"Under-Construction.02.000",
			"primitives":[
				{
					"attributes":{
						"POSITION":31,
						"NORMAL":32,
						"TEXCOORD_0":33,
						"TEXCOORD_1":34,
						"TEXCOORD_2":35,
						"COLOR_0":36,
						"COLOR_1":37,
						"JOINTS_0":38,
						"WEIGHTS_0":39
					},
					"indices":40,
					"material":3
				}
			]
		}
	],
	"textures":[
		{
			"sampler":0,
			"source":0
		},
		{
			"sampler":0,
			"source":0
		},
		{
			"sampler":0,
			"source":1
		},
		{
			"sampler":0,
			"source":2
		},
		{
			"sampler":0,
			"source":3
		},
		{
			"sampler":0,
			"source":4
		},
		{
			"sampler":0,
			"source":5
		},
		{
			"sampler":0,
			"source":5
		},
		{
			"sampler":0,
			"source":6
		},
		{
			"sampler":0,
			"source":2
		},
		{
			"sampler":0,
			"source":7
		},
		{
			"sampler":0,
			"source":7
		},
		{
			"sampler":0,
			"source":8
		},
		{
			"sampler":0,
			"source":2
		}
	],
	"images":[
		{
			"mimeType":"image/png",
			"name":"TCUCBody_Normal",
			"uri":"TCUCBody_Normal.png"
		},
		{
			"mimeType":"image/png",
			"name":"TCUCBody_Diffuse",
			"uri":"TCUCBody_Diffuse.png"
		},
		{
			"mimeType":"image/png",
			"name":"3104558709_battleworn_metal_01_dif",
			"uri":"3104558709_battleworn_metal_01_dif.png"
		},
		{
			"mimeType":"image/png",
			"name":"Decals.png",
			"uri":"Decals.png.png"
		},
		{
			"mimeType":"image/png",
			"name":"Decals.png",
			"uri":"Decals.png-1.png"
		},
		{
			"mimeType":"image/png",
			"name":"TCUCFront_Normal",
			"uri":"TCUCFront_Normal.png"
		},
		{
			"mimeType":"image/png",
			"name":"TCUCFront_Diffuse",
			"uri":"TCUCFront_Diffuse.png"
		},
		{
			"mimeType":"image/png",
			"name":"TCUCHandle_Normal",
			"uri":"TCUCHandle_Normal.png"
		},
		{
			"mimeType":"image/png",
			"name":"TCUCHandle_Diffuse",
			"uri":"TCUCHandle_Diffuse.png"
		}
	],
	"skins":[
		{
			"inverseBindMatrices":10,
			"joints":[
				13,
				1,
				0,
				2,
				3,
				4,
				5,
				12,
				7,
				6,
				9,
				8,
				11,
				10
			],
			"name":"Armature"
		}
	],
	"accessors":[
		{
			"bufferView":0,
			"componentType":5126,
			"count":14246,
			"max":[
				0.11172199994325638,
				0.16297000646591187,
				0.16605599224567413
			],
			"min":[
				-0.11172199994325638,
				-0.08965200185775757,
				-0.06464199721813202
			],
			"type":"VEC3"
		},
		{
			"bufferView":1,
			"componentType":5126,
			"count":14246,
			"type":"VEC3"
		},
		{
			"bufferView":2,
			"componentType":5126,
			"count":14246,
			"type":"VEC2"
		},
		{
			"bufferView":3,
			"componentType":5126,
			"count":14246,
			"type":"VEC2"
		},
		{
			"bufferView":4,
			"componentType":5126,
			"count":14246,
			"type":"VEC2"
		},
		{
			"bufferView":5,
			"componentType":5121,
			"count":14246,
			"normalized":true,
			"type":"VEC4"
		},
		{
			"bufferView":6,
			"componentType":5123,
			"count":14246,
			"normalized":true,
			"type":"VEC4"
		},
		{
			"bufferView":7,
			"componentType":5121,
			"count":14246,
			"type":"VEC4"
		},
		{
			"bufferView":8,
			"componentType":5126,
			"count":14246,
			"type":"VEC4"
		},
		{
			"bufferView":9,
			"componentType":5123,
			"count":41532,
			"type":"SCALAR"
		},
		{
			"bufferView":10,
			"componentType":5126,
			"count":14,
			"type":"MAT4"
		},
		{
			"bufferView":11,
			"componentType":5126,
			"count":120,
			"max":[
				0.07473500072956085,
				0.09907200187444687,
				0.09629900008440018
			],
			"min":[
				-0.07473500072956085,
				0.07205499708652496,
				0.019385000690817833
			],
			"type":"VEC3"
		},
		{
			"bufferView":12,
			"componentType":5126,
			"count":120,
			"type":"VEC3"
		},
		{
			"bufferView":13,
			"componentType":5126,
			"count":120,
			"type":"VEC2"
		},
		{
			"bufferView":14,
			"componentType":5126,
			"count":120,
			"type":"VEC2"
		},
		{
			"bufferView":15,
			"componentType":5126,
			"count":120,
			"type":"VEC2"
		},
		{
			"bufferView":16,
			"componentType":5121,
			"count":120,
			"normalized":true,
			"type":"VEC4"
		},
		{
			"bufferView":17,
			"componentType":5123,
			"count":120,
			"normalized":true,
			"type":"VEC4"
		},
		{
			"bufferView":18,
			"componentType":5121,
			"count":120,
			"type":"VEC4"
		},
		{
			"bufferView":19,
			"componentType":5126,
			"count":120,
			"type":"VEC4"
		},
		{
			"bufferView":20,
			"componentType":5123,
			"count":168,
			"type":"SCALAR"
		},
		{
			"bufferView":21,
			"componentType":5126,
			"count":8637,
			"max":[
				0.13100799918174744,
				0.09999199956655502,
				0.3135800063610077
			],
			"min":[
				-0.13100799918174744,
				-0.12864799797534943,
				0.14425799250602722
			],
			"type":"VEC3"
		},
		{
			"bufferView":22,
			"componentType":5126,
			"count":8637,
			"type":"VEC3"
		},
		{
			"bufferView":23,
			"componentType":5126,
			"count":8637,
			"type":"VEC2"
		},
		{
			"bufferView":24,
			"componentType":5126,
			"count":8637,
			"type":"VEC2"
		},
		{
			"bufferView":25,
			"componentType":5126,
			"count":8637,
			"type":"VEC2"
		},
		{
			"bufferView":26,
			"componentType":5121,
			"count":8637,
			"normalized":true,
			"type":"VEC4"
		},
		{
			"bufferView":27,
			"componentType":5123,
			"count":8637,
			"normalized":true,
			"type":"VEC4"
		},
		{
			"bufferView":28,
			"componentType":5121,
			"count":8637,
			"type":"VEC4"
		},
		{
			"bufferView":29,
			"componentType":5126,
			"count":8637,
			"type":"VEC4"
		},
		{
			"bufferView":30,
			"componentType":5123,
			"count":19971,
			"type":"SCALAR"
		},
		{
			"bufferView":31,
			"componentType":5126,
			"count":5347,
			"max":[
				0.09434399753808975,
				0.13877800107002258,
				0.01566299982368946
			],
			"min":[
				-0.09434399753808975,
				-0.09724999964237213,
				-0.27493301033973694
			],
			"type":"VEC3"
		},
		{
			"bufferView":32,
			"componentType":5126,
			"count":5347,
			"type":"VEC3"
		},
		{
			"bufferView":33,
			"componentType":5126,
			"count":5347,
			"type":"VEC2"
		},
		{
			"bufferView":34,
			"componentType":5126,
			"count":5347,
			"type":"VEC2"
		},
		{
			"bufferView":35,
			"componentType":5126,
			"count":5347,
			"type":"VEC2"
		},
		{
			"bufferView":36,
			"componentType":5121,
			"count":5347,
			"normalized":true,
			"type":"VEC4"
		},
		{
			"bufferView":37,
			"componentType":5123,
			"count":5347,
			"normalized":true,
			"type":"VEC4"
		},
		{
			"bufferView":38,
			"componentType":5121,
			"count":5347,
			"type":"VEC4"
		},
		{
			"bufferView":39,
			"componentType":5126,
			"count":5347,
			"type":"VEC4"
		},
		{
			"bufferView":40,
			"componentType":5123,
			"count":18867,
			"type":"SCALAR"
		}
	],
	"bufferViews":[
		{
			"buffer":0,
			"byteLength":170952,
			"byteOffset":0,
			"target":34962
		},
		{
			"buffer":0,
			"byteLength":170952,
			"byteOffset":170952,
			"target":34962
		},
		{
			"buffer":0,
			"byteLength":113968,
			"byteOffset":341904,
			"target":34962
		},
		{
			"buffer":0,
			"byteLength":113968,
			"byteOffset":455872,
			"target":34962
		},
		{
			"buffer":0,
			"byteLength":113968,
			"byteOffset":569840,
			"target":34962
		},
		{
			"buffer":0,
			"byteLength":56984,
			"byteOffset":683808,
			"target":34962
		},
		{
			"buffer":0,
			"byteLength":113968,
			"byteOffset":740792,
			"target":34962
		},
		{
			"buffer":0,
			"byteLength":56984,
			"byteOffset":854760,
			"target":34962
		},
		{
			"buffer":0,
			"byteLength":227936,
			"byteOffset":911744,
			"target":34962
		},
		{
			"buffer":0,
			"byteLength":83064,
			"byteOffset":1139680,
			"target":34963
		},
		{
			"buffer":0,
			"byteLength":896,
			"byteOffset":1222744
		},
		{
			"buffer":0,
			"byteLength":1440,
			"byteOffset":1223640,
			"target":34962
		},
		{
			"buffer":0,
			"byteLength":1440,
			"byteOffset":1225080,
			"target":34962
		},
		{
			"buffer":0,
			"byteLength":960,
			"byteOffset":1226520,
			"target":34962
		},
		{
			"buffer":0,
			"byteLength":960,
			"byteOffset":1227480,
			"target":34962
		},
		{
			"buffer":0,
			"byteLength":960,
			"byteOffset":1228440,
			"target":34962
		},
		{
			"buffer":0,
			"byteLength":480,
			"byteOffset":1229400,
			"target":34962
		},
		{
			"buffer":0,
			"byteLength":960,
			"byteOffset":1229880,
			"target":34962
		},
		{
			"buffer":0,
			"byteLength":480,
			"byteOffset":1230840,
			"target":34962
		},
		{
			"buffer":0,
			"byteLength":1920,
			"byteOffset":1231320,
			"target":34962
		},
		{
			"buffer":0,
			"byteLength":336,
			"byteOffset":1233240,
			"target":34963
		},
		{
			"buffer":0,
			"byteLength":103644,
			"byteOffset":1233576,
			"target":34962
		},
		{
			"buffer":0,
			"byteLength":103644,
			"byteOffset":1337220,
			"target":34962
		},
		{
			"buffer":0,
			"byteLength":69096,
			"byteOffset":1440864,
			"target":34962
		},
		{
			"buffer":0,
			"byteLength":69096,
			"byteOffset":1509960,
			"target":34962
		},
		{
			"buffer":0,
			"byteLength":69096,
			"byteOffset":1579056,
			"target":34962
		},
		{
			"buffer":0,
			"byteLength":34548,
			"byteOffset":1648152,
			"target":34962
		},
		{
			"buffer":0,
			"byteLength":69096,
			"byteOffset":1682700,
			"target":34962
		},
		{
			"buffer":0,
			"byteLength":34548,
			"byteOffset":1751796,
			"target":34962
		},
		{
			"buffer":0,
			"byteLength":138192,
			"byteOffset":1786344,
			"target":34962
		},
		{
			"buffer":0,
			"byteLength":39942,
			"byteOffset":1924536,
			"target":34963
		},
		{
			"buffer":0,
			"byteLength":64164,
			"byteOffset":1964480,
			"target":34962
		},
		{
			"buffer":0,
			"byteLength":64164,
			"byteOffset":2028644,
			"target":34962
		},
		{
			"buffer":0,
			"byteLength":42776,
			"byteOffset":2092808,
			"target":34962
		},
		{
			"buffer":0,
			"byteLength":42776,
			"byteOffset":2135584,
			"target":34962
		},
		{
			"buffer":0,
			"byteLength":42776,
			"byteOffset":2178360,
			"target":34962
		},
		{
			"buffer":0,
			"byteLength":21388,
			"byteOffset":2221136,
			"target":34962
		},
		{
			"buffer":0,
			"byteLength":42776,
			"byteOffset":2242524,
			"target":34962
		},
		{
			"buffer":0,
			"byteLength":21388,
			"byteOffset":2285300,
			"target":34962
		},
		{
			"buffer":0,
			"byteLength":85552,
			"byteOffset":2306688,
			"target":34962
		},
		{
			"buffer":0,
			"byteLength":37734,
			"byteOffset":2392240,
			"target":34963
		}
	],
	"samplers":[
		{
			"magFilter":9729,
			"minFilter":9987
		}
	],
	"buffers":[
		{
			"byteLength":2429976,
			"uri":"Tractor.bin"
		}
	]
}
